<svg width="11" height="13" viewBox="0 0 11 13" fill="none" xmlns="http://www.w3.org/2000/svg">
<path d="M5.50033 0.5C2.55366 0.5 0.166992 1.69333 0.166992 3.16667C0.166992 4.64 2.55366 5.83333 5.50033 5.83333C8.44699 5.83333 10.8337 4.64 10.8337 3.16667C10.8337 1.69333 8.44699 0.5 5.50033 0.5ZM0.166992 4.5V6.5C0.166992 7.97333 2.55366 9.16667 5.50033 9.16667C8.44699 9.16667 10.8337 7.97333 10.8337 6.5V4.5C10.8337 5.97333 8.44699 7.16667 5.50033 7.16667C2.55366 7.16667 0.166992 5.97333 0.166992 4.5ZM0.166992 7.83333V9.83333C0.166992 11.3067 2.55366 12.5 5.50033 12.5C8.44699 12.5 10.8337 11.3067 10.8337 9.83333V7.83333C10.8337 9.30667 8.44699 10.5 5.50033 10.5C2.55366 10.5 0.166992 9.30667 0.166992 7.83333Z" fill="#567191"/>
</svg>
