<svg width="20" height="20" viewBox="0 0 20 20" fill="none" xmlns="http://www.w3.org/2000/svg">
<path fill-rule="evenodd" clip-rule="evenodd" d="M5.30529 7.70679C5.11782 7.51926 5.0125 7.26495 5.0125 6.99979C5.0125 6.73462 5.11782 6.48031 5.30529 6.29279L9.30529 2.29279C9.49282 2.10532 9.74712 2 10.0123 2C10.2775 2 10.5318 2.10532 10.7193 2.29279L14.7193 6.29279C14.9014 6.48139 15.0022 6.73399 15 6.99619C14.9977 7.25838 14.8925 7.5092 14.7071 7.6946C14.5217 7.88001 14.2709 7.98518 14.0087 7.98746C13.7465 7.98974 13.4939 7.88894 13.3053 7.70679L11.0123 5.41379V16.9998C11.0123 17.265 10.9069 17.5194 10.7194 17.7069C10.5319 17.8944 10.2775 17.9998 10.0123 17.9998C9.74707 17.9998 9.49272 17.8944 9.30518 17.7069C9.11765 17.5194 9.01229 17.265 9.01229 16.9998V5.41379L6.71929 7.70679C6.53176 7.89426 6.27745 7.99957 6.01229 7.99957C5.74712 7.99957 5.49282 7.89426 5.30529 7.70679Z" fill="currentColor"/>
</svg>
