<svg width="20" height="20" viewBox="0 0 20 20" fill="none" xmlns="http://www.w3.org/2000/svg">
<path fill-rule="evenodd" clip-rule="evenodd" d="M10.0003 9.882L2.00326 5.884C2.03286 5.37444 2.25616 4.89549 2.62743 4.54523C2.9987 4.19497 3.48984 3.99991 4.00026 4H16.0003C16.5107 3.99991 17.0018 4.19497 17.3731 4.54523C17.7443 4.89549 17.9677 5.37444 17.9973 5.884L10.0003 9.882ZM10 12.1172L18 8.11719V11.416C17.3875 11.1484 16.7111 11 16 11C13.2388 11 11.0004 13.2381 11 15.9992H4C3.46957 15.9992 2.96086 15.7885 2.58579 15.4134C2.21071 15.0383 2 14.5296 2 13.9992V8.11719L10 12.1172Z" fill="currentColor"/>
<path fill-rule="evenodd" clip-rule="evenodd" d="M16 20C18.2091 20 20 18.2091 20 16C20 13.7909 18.2091 12 16 12C13.7909 12 12 13.7909 12 16C12 18.2091 13.7909 20 16 20ZM16.3536 14.8536C16.5488 14.6583 16.5488 14.3417 16.3536 14.1464C16.1583 13.9512 15.8417 13.9512 15.6464 14.1464L14.1464 15.6464C13.9512 15.8417 13.9512 16.1583 14.1464 16.3536L15.6464 17.8536C15.8417 18.0488 16.1583 18.0488 16.3536 17.8536C16.5488 17.6583 16.5488 17.3417 16.3536 17.1464L15.7071 16.5H17.5C17.7761 16.5 18 16.2761 18 16C18 15.7239 17.7761 15.5 17.5 15.5L15.7071 15.5L16.3536 14.8536Z" fill="currentColor"/>
</svg>
