<svg width="16" height="12" viewBox="0 0 16 12" fill="none" xmlns="http://www.w3.org/2000/svg">
<path d="M0.00325513 1.884L8.00026 5.882L15.9973 1.884C15.9677 1.37444 15.7443 0.895487 15.3731 0.545226C15.0018 0.194965 14.5107 -9.35846e-05 14.0003 3.3684e-08H2.00026C1.48984 -9.35846e-05 0.998702 0.194965 0.627433 0.545226C0.256163 0.895487 0.0328592 1.37444 0.00325513 1.884Z" fill="currentColor"/>
<path d="M16 4.11719L8 8.11719L0 4.11719V9.99919C0 10.5296 0.210714 11.0383 0.585786 11.4134C0.960859 11.7885 1.46957 11.9992 2 11.9992H14C14.5304 11.9992 15.0391 11.7885 15.4142 11.4134C15.7893 11.0383 16 10.5296 16 9.99919V4.11719Z" fill="currentColor"/>
</svg>
