<svg width="20" height="20" viewBox="0 0 20 20" fill="none" xmlns="http://www.w3.org/2000/svg">
<path d="M18.4 14.9091H20L17.4545 20V16.3636H16V12H19.6364L18.4 14.9091Z" fill="url(#paint0_linear_24720_161897)"/>
<path fill-rule="evenodd" clip-rule="evenodd" d="M10.0003 9.882L2.00326 5.884C2.03286 5.37444 2.25616 4.89549 2.62743 4.54523C2.9987 4.19497 3.48984 3.99991 4.00026 4H16.0003C16.5107 3.99991 17.0018 4.19497 17.3731 4.54523C17.7443 4.89549 17.9677 5.37444 17.9973 5.884L10.0003 9.882ZM10 12.1172L18 8.11719L18 11H16C15.4477 11 15 11.4477 15 12V15.9992H4C3.46957 15.9992 2.96086 15.7885 2.58579 15.4134C2.21071 15.0383 2 14.5296 2 13.9992V8.11719L10 12.1172Z" fill="url(#paint1_linear_24720_161897)"/>
<defs>
<linearGradient id="paint0_linear_24720_161897" x1="15.4" y1="12" x2="21.8915" y2="12.9624" gradientUnits="userSpaceOnUse">
<stop stop-color="#A282E8"/>
<stop offset="0.484375" stop-color="#7E8EE7"/>
<stop offset="1" stop-color="#4499E9"/>
</linearGradient>
<linearGradient id="paint1_linear_24720_161897" x1="-0.4" y1="4" x2="22.5491" y2="13.0738" gradientUnits="userSpaceOnUse">
<stop stop-color="#A282E8"/>
<stop offset="0.484375" stop-color="#7E8EE7"/>
<stop offset="1" stop-color="#4499E9"/>
</linearGradient>
</defs>
</svg>
