<svg width="20" height="20" viewBox="0 0 20 20" fill="none" xmlns="http://www.w3.org/2000/svg">
<g clip-path="url(#clip0_24921_150110)">
<path fill-rule="evenodd" clip-rule="evenodd" d="M2 8.87398V13.9992C2 14.5296 2.21071 15.0383 2.58579 15.4134C2.96086 15.7885 3.46957 15.9992 4 15.9992H11C11.0004 13.2381 13.2388 11 16 11C16.7111 11 17.3875 11.1484 18 11.416V8.11719L10 12.1172L3.65793 8.94615C3.44388 8.98157 3.22409 9 3 9C2.6547 9 2.31962 8.95625 2 8.87398ZM5.84971 7.80698L10.0003 9.882L17.9973 5.884C17.9677 5.37444 17.7443 4.89549 17.3731 4.54523C17.0018 4.19497 16.5107 3.99991 16.0003 4H6.87398C6.95625 4.31962 7 4.6547 7 5C7 6.0937 6.56105 7.08488 5.84971 7.80698Z" fill="currentColor"/>
<ellipse cx="2.99997" cy="5" rx="3" ry="3" fill="#F77272"/>
<path fill-rule="evenodd" clip-rule="evenodd" d="M16 20C18.2091 20 20 18.2091 20 16C20 13.7909 18.2091 12 16 12C13.7909 12 12 13.7909 12 16C12 18.2091 13.7909 20 16 20ZM16.3536 14.8536C16.5488 14.6583 16.5488 14.3417 16.3536 14.1464C16.1583 13.9512 15.8417 13.9512 15.6464 14.1464L14.1464 15.6464C13.9512 15.8417 13.9512 16.1583 14.1464 16.3536L15.6464 17.8536C15.8417 18.0488 16.1583 18.0488 16.3536 17.8536C16.5488 17.6583 16.5488 17.3417 16.3536 17.1464L15.7071 16.5H17.5C17.7761 16.5 18 16.2761 18 16C18 15.7239 17.7761 15.5 17.5 15.5L15.7071 15.5L16.3536 14.8536Z" fill="currentColor"/>
</g>
<defs>
<clipPath id="clip0_24921_150110">
<rect width="20" height="20" fill="white"/>
</clipPath>
</defs>
</svg>
