<svg width="16" height="13" viewBox="0 0 16 13" fill="none" xmlns="http://www.w3.org/2000/svg">
<path fill-rule="evenodd" clip-rule="evenodd" d="M8.29866 2.3168V3.81931H12.3503C13.0068 3.81931 13.5436 4.36793 13.5436 5.03887V6.5797H15.1662C15.3101 6.5797 15.4286 6.69955 15.4286 6.84783V9.97149C15.4286 10.1185 15.3113 10.2396 15.1662 10.2396H13.5436V11.7804C13.5436 12.4514 13.0068 13 12.3503 13H3.52401C2.86748 13 2.33065 12.4514 2.33065 11.7804V10.2396H0.833811C0.688722 10.2396 0.571442 10.1198 0.571442 9.97272V6.84783C0.571442 6.70079 0.688722 6.5797 0.833811 6.5797H2.33065V5.04011C2.33065 4.36917 2.86748 3.82055 3.52401 3.82055H7.57563V2.3168C7.11013 2.16111 6.77522 1.71505 6.77522 1.18743C6.77522 0.531318 7.29512 0 7.93714 0C8.57916 0 9.09906 0.531318 9.09906 1.18743C9.09906 1.71505 8.76294 2.16111 8.29866 2.3168ZM5.53229 9.85287H10.4665C10.7071 9.85287 10.9042 10.0543 10.9042 10.3002V10.5102C10.9042 10.7561 10.7071 10.9575 10.4665 10.9575H5.53229C5.29168 10.9575 5.0946 10.7561 5.0946 10.5102V10.3002C5.0946 10.053 5.29168 9.85287 5.53229 9.85287ZM10.0869 5.88033C10.7362 5.88033 11.2633 6.41783 11.2633 7.0826C11.2633 7.74613 10.7374 8.28362 10.0869 8.28362C9.4364 8.28362 8.91166 7.74613 8.91166 7.0826C8.91045 6.41783 9.43761 5.88033 10.0869 5.88033ZM5.91315 5.88033C6.56242 5.88033 7.08837 6.41783 7.08837 7.0826C7.08837 7.74613 6.56242 8.28362 5.91315 8.28362C5.26387 8.28362 4.73792 7.74613 4.73792 7.0826C4.73792 6.41783 5.26387 5.88033 5.91315 5.88033Z" fill="currentColor"/>
</svg>
