<svg width="24" height="24" viewBox="0 0 24 24" fill="none" xmlns="http://www.w3.org/2000/svg">
<path d="M20.88 16.6911H22.8L19.7455 22.8002V18.4366H18V13.2002H22.3636L20.88 16.6911Z" fill="url(#paint0_linear_20855_106304)"/>
<path d="M9.28432 21.8986C9.45407 21.9662 9.62382 22 9.79358 22C10.0652 22 10.3368 21.8986 10.5744 21.7297L13.9016 18.8919H15.6C15.6 17.4002 15.6 12.0002 15.6 10.8002C16.8 10.8002 19.5657 10.8002 22.0004 10.8002C22.0004 9.58398 22.0004 6.7973 22.0004 6.7973C22.0004 4.16216 18.9942 2 16.346 2H7.65469C5.00654 2 2.00037 4.16216 2.00037 6.7973C2.00037 6.7973 2.00037 9.30569 2.00037 10.5275C2.00037 11.7494 2.00037 14.0946 2.00037 14.0946C2.00037 16.6959 5.00654 18.8919 7.65469 18.8919H8.60531V20.8514C8.60531 21.3243 8.87691 21.7297 9.28432 21.8986Z" fill="url(#paint1_linear_20855_106304)"/>
<defs>
<linearGradient id="paint0_linear_20855_106304" x1="17.28" y1="13.2002" x2="25.0698" y2="14.3551" gradientUnits="userSpaceOnUse">
<stop stop-color="#A282E8"/>
<stop offset="0.484375" stop-color="#7E8EE7"/>
<stop offset="1" stop-color="#4499E9"/>
</linearGradient>
<linearGradient id="paint1_linear_20855_106304" x1="-0.999634" y1="2" x2="29.4905" y2="11.041" gradientUnits="userSpaceOnUse">
<stop stop-color="#A282E8"/>
<stop offset="0.484375" stop-color="#7E8EE7"/>
<stop offset="1" stop-color="#4499E9"/>
</linearGradient>
</defs>
</svg>
