<svg width="20" height="18" viewBox="0 0 20 18" fill="none" xmlns="http://www.w3.org/2000/svg">
<path d="M6.3999 0.600098C6.08164 0.600098 5.77642 0.726526 5.55137 0.951569C5.32633 1.17661 5.1999 1.48184 5.1999 1.8001C5.1999 2.11836 5.32633 2.42358 5.55137 2.64863C5.77642 2.87367 6.08164 3.0001 6.3999 3.0001H13.5999C13.9182 3.0001 14.2234 2.87367 14.4484 2.64863C14.6735 2.42358 14.7999 2.11836 14.7999 1.8001C14.7999 1.48184 14.6735 1.17661 14.4484 0.951569C14.2234 0.726526 13.9182 0.600098 13.5999 0.600098H6.3999ZM2.7999 5.4001C2.7999 5.08184 2.92633 4.77661 3.15137 4.55157C3.37642 4.32653 3.68164 4.2001 3.9999 4.2001H15.9999C16.3182 4.2001 16.6234 4.32653 16.8484 4.55157C17.0735 4.77661 17.1999 5.08184 17.1999 5.4001C17.1999 5.71836 17.0735 6.02358 16.8484 6.24863C16.6234 6.47367 16.3182 6.6001 15.9999 6.6001H3.9999C3.68164 6.6001 3.37642 6.47367 3.15137 6.24863C2.92633 6.02358 2.7999 5.71836 2.7999 5.4001ZM0.399902 10.2001C0.399902 9.56358 0.652759 8.95313 1.10285 8.50304C1.55293 8.05295 2.16338 7.8001 2.7999 7.8001H17.1999C17.8364 7.8001 18.4469 8.05295 18.897 8.50304C19.347 8.95313 19.5999 9.56358 19.5999 10.2001V15.0001C19.5999 15.6366 19.347 16.2471 18.897 16.6972C18.4469 17.1472 17.8364 17.4001 17.1999 17.4001H2.7999C2.16338 17.4001 1.55293 17.1472 1.10285 16.6972C0.652759 16.2471 0.399902 15.6366 0.399902 15.0001V10.2001Z" fill="url(#paint0_linear_21613_1246)"/>
<defs>
<linearGradient id="paint0_linear_21613_1246" x1="0.399902" y1="0.600098" x2="17.0512" y2="19.6302" gradientUnits="userSpaceOnUse">
<stop stop-color="#FFCF4F"/>
<stop offset="1" stop-color="#FF9B4A"/>
</linearGradient>
</defs>
</svg>
