<svg width="20" height="18" viewBox="0 0 20 18" fill="none" xmlns="http://www.w3.org/2000/svg">
<path d="M6.73291 0.600098C6.41465 0.600098 6.10943 0.726526 5.88438 0.951569C5.65934 1.17661 5.53291 1.48184 5.53291 1.8001C5.53291 2.11836 5.65934 2.42358 5.88438 2.64863C6.10943 2.87367 6.41465 3.0001 6.73291 3.0001H13.9329C14.2512 3.0001 14.5564 2.87367 14.7814 2.64863C15.0065 2.42358 15.1329 2.11836 15.1329 1.8001C15.1329 1.48184 15.0065 1.17661 14.7814 0.951569C14.5564 0.726526 14.2512 0.600098 13.9329 0.600098H6.73291ZM3.13291 5.4001C3.13291 5.08184 3.25934 4.77661 3.48438 4.55157C3.70943 4.32653 4.01465 4.2001 4.33291 4.2001H16.3329C16.6512 4.2001 16.9564 4.32653 17.1814 4.55157C17.4065 4.77661 17.5329 5.08184 17.5329 5.4001C17.5329 5.71836 17.4065 6.02358 17.1814 6.24863C16.9564 6.47367 16.6512 6.6001 16.3329 6.6001H4.33291C4.01465 6.6001 3.70943 6.47367 3.48438 6.24863C3.25934 6.02358 3.13291 5.71836 3.13291 5.4001ZM0.73291 10.2001C0.73291 9.56358 0.985766 8.95313 1.43585 8.50304C1.88594 8.05295 2.49639 7.8001 3.13291 7.8001H17.5329C18.1694 7.8001 18.7799 8.05295 19.23 8.50304C19.6801 8.95313 19.9329 9.56358 19.9329 10.2001V15.0001C19.9329 15.6366 19.6801 16.2471 19.23 16.6972C18.7799 17.1472 18.1694 17.4001 17.5329 17.4001H3.13291C2.49639 17.4001 1.88594 17.1472 1.43585 16.6972C0.985766 16.2471 0.73291 15.6366 0.73291 15.0001V10.2001Z" fill="currentColor"/>
</svg>
