<svg width="98" height="100" viewBox="0 0 98 100" fill="none" xmlns="http://www.w3.org/2000/svg">
<path fill-rule="evenodd" clip-rule="evenodd" d="M48.5273 99.9999C24.144 99.9999 5.00051 83.7746 0.675848 60.2549V60.2549C0.548538 59.5625 1.08918 58.9302 1.79316 58.9302L23.7823 58.9306C24.2737 58.9306 24.7021 59.2545 24.8538 59.7219V59.7219C28.4359 70.7623 38.1655 76.4711 48.5273 76.4711C58.9064 76.4711 68.6511 70.8626 72.2188 59.7402V59.7402C72.3721 59.2622 72.8093 58.9303 73.3112 58.9303L95.4818 58.9302C96.0706 58.9302 96.5223 59.4586 96.4182 60.0382V60.0382C92.1716 83.6749 72.9855 99.9999 48.5273 99.9999Z" fill="url(#paint0_linear_405_1540427878276257)"/>
<path fill-rule="evenodd" clip-rule="evenodd" d="M48.5281 0C74.0319 0 93.8032 17.5893 96.881 42.993V42.993C96.9878 43.8746 96.2861 44.6418 95.398 44.6418L74.1973 44.6418C73.6508 44.6418 73.1899 44.245 73.0889 43.7078V43.7078C70.5661 30.297 59.9298 23.5288 48.5281 23.5288C37.2568 23.5288 26.7335 30.1431 24.057 43.2504V43.2504C23.8937 44.05 23.2088 44.6418 22.3927 44.6418L2.3263 44.6418C1.08155 44.6418 0.0950709 43.564 0.259543 42.3301V42.3301C3.59824 17.2839 23.2467 0 48.5281 0Z" fill="url(#paint1_linear_405_154047277892)"/>
<defs>
<linearGradient id="paint0_linear_405_1540427878276257" x1="-13.9742" y1="58.9302" x2="93.6389" y2="133.64" gradientUnits="userSpaceOnUse">
<stop stop-color="#A282E8"/>
<stop offset="1" stop-color="#7E8EE7"/>
</linearGradient>
<linearGradient id="paint1_linear_405_154047277892" x1="-14.5584" y1="-3.01779e-07" x2="99.1549" y2="73.3076" gradientUnits="userSpaceOnUse">
<stop stop-color="#A282E8"/>
<stop offset="1" stop-color="#7E8EE7"/>
</linearGradient>
</defs>
</svg>
