<svg width="20" height="18" viewBox="0 0 20 18" fill="none" xmlns="http://www.w3.org/2000/svg">
<path d="M6.06641 0.600098C5.74815 0.600098 5.44292 0.726526 5.21788 0.951569C4.99283 1.17661 4.86641 1.48184 4.86641 1.8001C4.86641 2.11836 4.99283 2.42358 5.21788 2.64863C5.44292 2.87367 5.74815 3.0001 6.06641 3.0001H13.2664C13.5847 3.0001 13.8899 2.87367 14.1149 2.64863C14.34 2.42358 14.4664 2.11836 14.4664 1.8001C14.4664 1.48184 14.34 1.17661 14.1149 0.951569C13.8899 0.726526 13.5847 0.600098 13.2664 0.600098H6.06641ZM2.46641 5.4001C2.46641 5.08184 2.59283 4.77661 2.81788 4.55157C3.04292 4.32653 3.34815 4.2001 3.66641 4.2001H15.6664C15.9847 4.2001 16.2899 4.32653 16.5149 4.55157C16.74 4.77661 16.8664 5.08184 16.8664 5.4001C16.8664 5.71836 16.74 6.02358 16.5149 6.24863C16.2899 6.47367 15.9847 6.6001 15.6664 6.6001H3.66641C3.34815 6.6001 3.04292 6.47367 2.81788 6.24863C2.59283 6.02358 2.46641 5.71836 2.46641 5.4001ZM0.0664062 10.2001C0.0664062 9.56358 0.319263 8.95313 0.76935 8.50304C1.21944 8.05295 1.82989 7.8001 2.46641 7.8001H16.8664C17.5029 7.8001 18.1134 8.05295 18.5635 8.50304C19.0135 8.95313 19.2664 9.56358 19.2664 10.2001V15.0001C19.2664 15.6366 19.0135 16.2471 18.5635 16.6972C18.1134 17.1472 17.5029 17.4001 16.8664 17.4001H2.46641C1.82989 17.4001 1.21944 17.1472 0.76935 16.6972C0.319263 16.2471 0.0664063 15.6366 0.0664062 15.0001V10.2001Z" fill="url(#paint0_linear_21613_1238)"/>
<defs>
<linearGradient id="paint0_linear_21613_1238" x1="19.2664" y1="17.4001" x2="2.61508" y2="-1.62999" gradientUnits="userSpaceOnUse">
<stop stop-color="#40E0CF"/>
<stop offset="1" stop-color="#36CDCF"/>
</linearGradient>
</defs>
</svg>
