<svg width="54" height="54" viewBox="0 0 54 54" fill="none" xmlns="http://www.w3.org/2000/svg">
<rect width="48" height="48" rx="10" fill="url(#paint0_linear_23898_149603)"/>
<circle cx="44" cy="44" r="9" fill="white"/>
<path d="M20.4004 15.6C20.0821 15.6 19.7769 15.7264 19.5519 15.9515C19.3268 16.1765 19.2004 16.4817 19.2004 16.8C19.2004 17.1183 19.3268 17.4235 19.5519 17.6485C19.7769 17.8736 20.0821 18 20.4004 18H27.6004C27.9186 18 28.2239 17.8736 28.4489 17.6485C28.674 17.4235 28.8004 17.1183 28.8004 16.8C28.8004 16.4817 28.674 16.1765 28.4489 15.9515C28.2239 15.7264 27.9186 15.6 27.6004 15.6H20.4004ZM16.8004 20.4C16.8004 20.0817 16.9268 19.7765 17.1519 19.5515C17.3769 19.3264 17.6821 19.2 18.0004 19.2H30.0004C30.3186 19.2 30.6239 19.3264 30.8489 19.5515C31.074 19.7765 31.2004 20.0817 31.2004 20.4C31.2004 20.7183 31.074 21.0235 30.8489 21.2485C30.6239 21.4736 30.3186 21.6 30.0004 21.6H18.0004C17.6821 21.6 17.3769 21.4736 17.1519 21.2485C16.9268 21.0235 16.8004 20.7183 16.8004 20.4ZM14.4004 25.2C14.4004 24.5635 14.6532 23.953 15.1033 23.5029C15.5534 23.0529 16.1639 22.8 16.8004 22.8H31.2004C31.8369 22.8 32.4474 23.0529 32.8974 23.5029C33.3475 23.953 33.6004 24.5635 33.6004 25.2V30C33.6004 30.6365 33.3475 31.247 32.8974 31.6971C32.4474 32.1471 31.8369 32.4 31.2004 32.4H16.8004C16.1639 32.4 15.5534 32.1471 15.1033 31.6971C14.6532 31.247 14.4004 30.6365 14.4004 30V25.2Z" fill="white"/>
<path fill-rule="evenodd" clip-rule="evenodd" d="M44 52C48.4183 52 52 48.4183 52 44C52 39.5817 48.4183 36 44 36C39.5817 36 36 39.5817 36 44C36 48.4183 39.5817 52 44 52ZM43.5547 41.168C43.2478 40.9634 42.8533 40.9443 42.5281 41.1183C42.203 41.2923 42 41.6312 42 42V46C42 46.3688 42.203 46.7077 42.5281 46.8817C42.8533 47.0557 43.2478 47.0366 43.5547 46.8321L46.5547 44.8321C46.8329 44.6466 47 44.3344 47 44C47 43.6656 46.8329 43.3534 46.5547 43.168L43.5547 41.168Z" fill="url(#paint1_linear_23898_149603)"/>
<defs>
<linearGradient id="paint0_linear_23898_149603" x1="48" y1="48" x2="0" y2="0" gradientUnits="userSpaceOnUse">
<stop stop-color="#40E0CF"/>
<stop offset="1" stop-color="#36CDCF"/>
</linearGradient>
<linearGradient id="paint1_linear_23898_149603" x1="52" y1="52" x2="36" y2="36" gradientUnits="userSpaceOnUse">
<stop stop-color="#40E0CF"/>
<stop offset="1" stop-color="#36CDCF"/>
</linearGradient>
</defs>
</svg>
