<svg width="20" height="20" viewBox="0 0 20 20" fill="none" xmlns="http://www.w3.org/2000/svg">
<path fill-rule="evenodd" clip-rule="evenodd" d="M5.38285 14.6175C1.3231 10.5577 -0.213445 5.76468 1.56409 2.80418L1.68081 2.62165L1.97116 2.31408L3.41378 0.833984L7.27766 4.69786L5.64566 6.37609L5.60282 6.4249C4.72168 8.12497 5.79663 10.5026 7.64717 12.3532C9.47654 14.1825 11.821 15.254 13.5168 14.427L13.7023 14.2615L14.5434 13.4575L15.3025 12.7227L19.1663 16.5865L17.4973 18.1928L17.3039 18.3681C17.2981 18.3727 17.2937 18.376 17.2907 18.3779C14.3385 20.2464 9.48611 18.7207 5.38285 14.6175Z" fill="url(#paint0_linear_21739_4375)"/>
<defs>
<linearGradient id="paint0_linear_21739_4375" x1="-1.91699" y1="0.833984" x2="26.0323" y2="9.12156" gradientUnits="userSpaceOnUse">
<stop stop-color="#A282E8"/>
<stop offset="0.484375" stop-color="#7E8EE7"/>
<stop offset="1" stop-color="#4499E9"/>
</linearGradient>
</defs>
</svg>
