<svg width="48" height="48" viewBox="0 0 48 48" fill="none" xmlns="http://www.w3.org/2000/svg">
<path fill-rule="evenodd" clip-rule="evenodd" d="M18.8024 6.00586C21.1124 2.00586 26.8884 2.00586 29.1964 6.00586L43.9064 31.5019C46.2144 35.5019 43.3264 40.5019 38.7084 40.5019H9.29036C4.67236 40.5019 1.78636 35.5019 4.09436 31.5019L18.8004 6.00586H18.8024ZM24.0004 16.4999C24.3982 16.4999 24.7797 16.6579 25.061 16.9392C25.3423 17.2205 25.5004 17.602 25.5004 17.9999V25.4999C25.5004 25.8977 25.3423 26.2792 25.061 26.5605C24.7797 26.8418 24.3982 26.9999 24.0004 26.9999C23.6025 26.9999 23.221 26.8418 22.9397 26.5605C22.6584 26.2792 22.5004 25.8977 22.5004 25.4999V17.9999C22.5004 17.602 22.6584 17.2205 22.9397 16.9392C23.221 16.6579 23.6025 16.4999 24.0004 16.4999ZM24.0004 32.9999C24.3982 32.9999 24.7797 32.8418 25.061 32.5605C25.3423 32.2792 25.5004 31.8977 25.5004 31.4999C25.5004 31.102 25.3423 30.7205 25.061 30.4392C24.7797 30.1579 24.3982 29.9999 24.0004 29.9999C23.6025 29.9999 23.221 30.1579 22.9397 30.4392C22.6584 30.7205 22.5004 31.102 22.5004 31.4999C22.5004 31.8977 22.6584 32.2792 22.9397 32.5605C23.221 32.8418 23.6025 32.9999 24.0004 32.9999Z" fill="url(#paint0_linear_29487_171865)"/>
<defs>
<linearGradient id="paint0_linear_29487_171865" x1="-1.995" y1="-1.55447" x2="57.811" y2="30.5947" gradientUnits="userSpaceOnUse">
<stop stop-color="currentColor"/>
<stop offset="1" stop-color="currentColor"/>
</linearGradient>
</defs>
</svg>
