<svg width="40" height="40" viewBox="0 0 40 40" fill="none" xmlns="http://www.w3.org/2000/svg">
<path fill-rule="evenodd" clip-rule="evenodd" d="M39.1998 19.9998C39.1998 30.6037 30.6037 39.1998 19.9998 39.1998C9.39594 39.1998 0.799805 30.6037 0.799805 19.9998C0.799805 9.39594 9.39594 0.799805 19.9998 0.799805C30.6037 0.799805 39.1998 9.39594 39.1998 19.9998ZM22.3998 29.5998C22.3998 30.9253 21.3253 31.9998 19.9998 31.9998C18.6743 31.9998 17.5998 30.9253 17.5998 29.5998C17.5998 28.2743 18.6743 27.1998 19.9998 27.1998C21.3253 27.1998 22.3998 28.2743 22.3998 29.5998ZM19.9998 7.9998C18.6743 7.9998 17.5998 9.07432 17.5998 10.3998V19.9998C17.5998 21.3253 18.6743 22.3998 19.9998 22.3998C21.3253 22.3998 22.3998 21.3253 22.3998 19.9998V10.3998C22.3998 9.07432 21.3253 7.9998 19.9998 7.9998Z" fill="url(#paint0_linear_21840_827)"/>
<defs>
<linearGradient id="paint0_linear_21840_827" x1="0.799805" y1="0.799805" x2="39.1998" y2="39.1998" gradientUnits="userSpaceOnUse">
<stop stop-color="#FFCF4F"/>
<stop offset="1" stop-color="#FF9B4A"/>
</linearGradient>
</defs>
</svg>
