<svg width="17" height="16" viewBox="0 0 17 16" fill="none" xmlns="http://www.w3.org/2000/svg">
<path fill-rule="evenodd" clip-rule="evenodd" d="M8.33301 16C12.7513 16 16.333 12.4183 16.333 8C16.333 3.58172 12.7513 0 8.33301 0C3.91473 0 0.333008 3.58172 0.333008 8C0.333008 12.4183 3.91473 16 8.33301 16ZM9.33301 4C9.33301 3.44772 8.88529 3 8.33301 3C7.78072 3 7.33301 3.44772 7.33301 4V8C7.33301 8.26522 7.43836 8.51957 7.6259 8.70711L10.4543 11.5355C10.8449 11.9261 11.478 11.9261 11.8685 11.5355C12.2591 11.145 12.2591 10.5118 11.8685 10.1213L9.33301 7.58579V4Z" fill="currentColor"/>
</svg>
