<svg width="14" height="14" viewBox="0 0 14 14" fill="none" xmlns="http://www.w3.org/2000/svg">
<path fill-rule="evenodd" clip-rule="evenodd" d="M0.341241 0.35617C0.559803 0.137454 0.856198 0.0145854 1.16524 0.0145854C1.47429 0.0145854 1.77069 0.137454 1.98925 0.35617L6.99271 5.36467L11.9962 0.35617C12.1037 0.244741 12.2323 0.155862 12.3745 0.094718C12.5167 0.0335742 12.6696 0.00139017 12.8244 4.40499e-05C12.9791 -0.00130207 13.1326 0.0282163 13.2758 0.0868774C13.4191 0.145538 13.5492 0.232167 13.6586 0.341709C13.7681 0.45125 13.8546 0.581511 13.9132 0.72489C13.9718 0.868269 14.0013 1.0219 14 1.1768C13.9986 1.33171 13.9665 1.4848 13.9054 1.62714C13.8443 1.76948 13.7555 1.89821 13.6442 2.00584L8.64072 7.01434L13.6442 12.0228C13.8565 12.2429 13.974 12.5376 13.9713 12.8435C13.9687 13.1494 13.8461 13.442 13.63 13.6583C13.4139 13.8746 13.1216 13.9973 12.816 14C12.5104 14.0026 12.216 13.885 11.9962 13.6725L6.99271 8.664L1.98925 13.6725C1.76943 13.885 1.47503 14.0026 1.16944 14C0.86385 13.9973 0.57153 13.8746 0.355438 13.6583C0.139346 13.442 0.0167721 13.1494 0.0141166 12.8435C0.0114611 12.5376 0.128937 12.2429 0.341241 12.0228L5.34471 7.01434L0.341241 2.00584C0.122745 1.78705 0 1.49036 0 1.181C0 0.871645 0.122745 0.574952 0.341241 0.35617Z" fill="currentColor"/>
</svg>
