<svg width="20" height="20" viewBox="0 0 20 20" fill="none" xmlns="http://www.w3.org/2000/svg">
<path d="M14.9998 9.16699H12.3498C11.9998 8.20033 11.0832 7.50033 9.99984 7.50033C8.9165 7.50033 7.99984 8.20033 7.64984 9.16699H4.99984C4.72484 9.16699 3.33317 9.08366 3.33317 7.50033V6.66699C3.33317 5.14199 4.6165 5.00033 4.99984 5.00033H13.4832C13.8332 5.96699 14.7498 6.66699 15.8332 6.66699C16.4962 6.66699 17.1321 6.4036 17.6009 5.93476C18.0698 5.46592 18.3332 4.83003 18.3332 4.16699C18.3332 3.50395 18.0698 2.86807 17.6009 2.39923C17.1321 1.93038 16.4962 1.66699 15.8332 1.66699C14.7498 1.66699 13.8332 2.36699 13.4832 3.33366H4.99984C3.65817 3.33366 1.6665 4.21699 1.6665 6.66699V7.50033C1.6665 9.95033 3.65817 10.8337 4.99984 10.8337H7.64984C7.99984 11.8003 8.9165 12.5003 9.99984 12.5003C11.0832 12.5003 11.9998 11.8003 12.3498 10.8337H14.9998C15.2748 10.8337 16.6665 10.917 16.6665 12.5003V13.3337C16.6665 14.8587 15.3832 15.0003 14.9998 15.0003H6.5165C6.1665 14.0337 5.24984 13.3337 4.1665 13.3337C3.50346 13.3337 2.86758 13.5971 2.39874 14.0659C1.9299 14.5347 1.6665 15.1706 1.6665 15.8337C1.6665 16.4967 1.9299 17.1326 2.39874 17.6014C2.86758 18.0703 3.50346 18.3337 4.1665 18.3337C5.24984 18.3337 6.1665 17.6337 6.5165 16.667H14.9998C16.3415 16.667 18.3332 15.7753 18.3332 13.3337V12.5003C18.3332 10.0587 16.3415 9.16699 14.9998 9.16699ZM15.8332 3.33366C16.0542 3.33366 16.2661 3.42146 16.4224 3.57774C16.5787 3.73402 16.6665 3.94598 16.6665 4.16699C16.6665 4.38801 16.5787 4.59997 16.4224 4.75625C16.2661 4.91253 16.0542 5.00033 15.8332 5.00033C15.6122 5.00033 15.4002 4.91253 15.2439 4.75625C15.0876 4.59997 14.9998 4.38801 14.9998 4.16699C14.9998 3.94598 15.0876 3.73402 15.2439 3.57774C15.4002 3.42146 15.6122 3.33366 15.8332 3.33366ZM4.1665 16.667C3.94549 16.667 3.73353 16.5792 3.57725 16.4229C3.42097 16.2666 3.33317 16.0547 3.33317 15.8337C3.33317 15.6126 3.42097 15.4007 3.57725 15.2444C3.73353 15.0881 3.94549 15.0003 4.1665 15.0003C4.38752 15.0003 4.59948 15.0881 4.75576 15.2444C4.91204 15.4007 4.99984 15.6126 4.99984 15.8337C4.99984 16.0547 4.91204 16.2666 4.75576 16.4229C4.59948 16.5792 4.38752 16.667 4.1665 16.667Z" fill="#567191"/>
</svg>
