<svg width="24" height="24" viewBox="0 0 24 24" fill="none" xmlns="http://www.w3.org/2000/svg">
<path d="M8.41698 17.428C8.41698 17.6711 8.51352 17.9042 8.68537 18.0761C8.85727 18.248 9.09039 18.3445 9.33346 18.3445C9.57654 18.3445 9.80966 18.248 9.98156 18.0761L12.7316 15.3261C12.9035 15.1542 13 14.9211 13 14.678C13 14.4349 12.9035 14.2018 12.7316 14.0299L9.98156 11.2798C9.897 11.1923 9.79585 11.1225 9.68401 11.0744C9.57217 11.0264 9.45188 11.0011 9.33016 11C9.20845 10.999 9.08774 11.0222 8.97508 11.0683C8.86243 11.1143 8.76008 11.1824 8.67401 11.2685C8.58794 11.3546 8.51987 11.4569 8.47378 11.5696C8.42769 11.6822 8.40449 11.8029 8.40555 11.9246C8.40661 12.0464 8.4319 12.1666 8.47994 12.2785C8.52798 12.3903 8.59782 12.4915 8.68537 12.576L9.87064 13.7613H2.91668C2.67356 13.7613 2.4404 13.8579 2.26849 14.0298C2.09658 14.2017 2 14.4349 2 14.678C2 14.9211 2.09658 15.1543 2.26849 15.3262C2.4404 15.4981 2.67356 15.5947 2.91668 15.5947H9.87064L8.68537 16.7799C8.51352 16.9518 8.41698 17.185 8.41698 17.428Z" fill="#567191"/>
<path d="M16.583 5.91649C16.583 5.67342 16.4865 5.4403 16.3146 5.26839C16.1427 5.09654 15.9096 5 15.6665 5C15.4235 5 15.1903 5.09654 15.0184 5.26839L12.2684 8.01844C12.0965 8.19035 12 8.42347 12 8.66654C12 8.90961 12.0965 9.14273 12.2684 9.31463L15.0184 12.0647C15.103 12.1522 15.2042 12.2221 15.316 12.2701C15.4278 12.3182 15.5481 12.3434 15.6698 12.3445C15.7916 12.3456 15.9123 12.3224 16.0249 12.2763C16.1376 12.2302 16.2399 12.1621 16.326 12.076C16.4121 11.99 16.4801 11.8876 16.5262 11.775C16.5723 11.6623 16.5955 11.5416 16.5944 11.4199C16.5934 11.2982 16.5681 11.1779 16.5201 11.066C16.472 10.9542 16.4022 10.8531 16.3146 10.7685L15.1294 9.58322H22.0833C22.3264 9.58322 22.5596 9.48664 22.7315 9.31473C22.9034 9.14282 23 8.90966 23 8.66654C23 8.42342 22.9034 8.19025 22.7315 8.01834C22.5596 7.84643 22.3264 7.74985 22.0833 7.74985H15.1294L16.3146 6.56458C16.4865 6.39268 16.583 6.15956 16.583 5.91649Z" fill="#567191"/>
</svg>

