<svg width="40" height="40" viewBox="0 0 40 40" fill="none" xmlns="http://www.w3.org/2000/svg">
<path d="M7.5 5.625C7.5 4.58947 8.33947 3.75 9.375 3.75H17.5C25.7843 3.75 32.5 10.4657 32.5 18.75V34.375C32.5 35.4105 31.6605 36.25 30.625 36.25H9.375C8.33947 36.25 7.5 35.4105 7.5 34.375V5.625Z" fill="white"/>
<path d="M32.5 23.75V19.375C32.5 16.2684 29.9816 13.75 26.875 13.75H24.375C23.3395 13.75 22.5 12.9105 22.5 11.875V9.375C22.5 6.2684 19.9816 3.75 16.875 3.75H13.75M17.5 3.75H9.375C8.33947 3.75 7.5 4.58947 7.5 5.625V34.375C7.5 35.4105 8.33947 36.25 9.375 36.25H30.625C31.6605 36.25 32.5 35.4105 32.5 34.375V18.75C32.5 10.4657 25.7843 3.75 17.5 3.75Z" stroke="#D2D2D2" stroke-width="1.25" stroke-linecap="round" stroke-linejoin="round"/>
<rect x="2.5" y="18.125" width="19.375" height="13.75" rx="3.125" fill="#088A2C"/>
<path d="M8.64417 23.7616C8.46309 23.7616 8.30237 23.7972 8.16199 23.8684C8.02364 23.9376 7.90666 24.0383 7.81104 24.1705C7.71745 24.3028 7.64624 24.4625 7.59741 24.6497C7.54858 24.8368 7.52417 25.0474 7.52417 25.2814C7.52417 25.5967 7.56283 25.8663 7.64014 26.0901C7.71948 26.3118 7.84155 26.4817 8.00635 26.5997C8.17114 26.7157 8.38375 26.7737 8.64417 26.7737C8.82524 26.7737 9.00631 26.7533 9.18738 26.7126C9.37048 26.672 9.56885 26.614 9.78247 26.5387V27.3322C9.58512 27.4135 9.39083 27.4715 9.19959 27.5061C9.00834 27.5427 8.7937 27.561 8.55566 27.561C8.09587 27.561 7.71745 27.4664 7.42041 27.2772C7.12541 27.086 6.9067 26.8195 6.76428 26.4777C6.62187 26.1338 6.55066 25.733 6.55066 25.2753C6.55066 24.9375 6.59644 24.6283 6.68799 24.3475C6.77954 24.0668 6.91382 23.8236 7.09082 23.6182C7.26782 23.4127 7.48653 23.254 7.74695 23.1421C8.00737 23.0302 8.30644 22.9742 8.64417 22.9742C8.86593 22.9742 9.08769 23.0027 9.30945 23.0597C9.53324 23.1146 9.74687 23.1909 9.95032 23.2886L9.64514 24.0576C9.47831 23.9783 9.31047 23.9091 9.1416 23.8501C8.97274 23.7911 8.80693 23.7616 8.64417 23.7616ZM13.3683 26.261C13.3683 26.5255 13.3042 26.7554 13.176 26.9507C13.0479 27.146 12.8607 27.2965 12.6145 27.4023C12.3704 27.5081 12.0733 27.561 11.7234 27.561C11.5688 27.561 11.4172 27.5509 11.2687 27.5305C11.1222 27.5102 10.9808 27.4807 10.8445 27.442C10.7102 27.4013 10.582 27.3515 10.46 27.2925V26.4136C10.6715 26.5072 10.8913 26.5916 11.1191 26.6669C11.347 26.7421 11.5728 26.7798 11.7966 26.7798C11.9513 26.7798 12.0754 26.7594 12.1689 26.7187C12.2646 26.6781 12.3337 26.6221 12.3765 26.5509C12.4192 26.4797 12.4406 26.3983 12.4406 26.3068C12.4406 26.1949 12.4029 26.0992 12.3276 26.0199C12.2524 25.9406 12.1486 25.8663 12.0164 25.7971C11.8861 25.7279 11.7386 25.6537 11.5739 25.5743C11.4701 25.5255 11.3572 25.4665 11.2351 25.3973C11.113 25.3261 10.9971 25.2397 10.8872 25.1379C10.7773 25.0362 10.6868 24.9131 10.6156 24.7687C10.5464 24.6222 10.5118 24.4472 10.5118 24.2438C10.5118 23.9773 10.5729 23.7494 10.6949 23.5602C10.817 23.371 10.991 23.2265 11.2168 23.1268C11.4447 23.0251 11.7132 22.9742 12.0225 22.9742C12.2544 22.9742 12.4751 23.0017 12.6847 23.0566C12.8963 23.1095 13.117 23.1868 13.3469 23.2886L13.0417 24.024C12.8363 23.9406 12.6521 23.8765 12.4894 23.8318C12.3266 23.785 12.1608 23.7616 11.9919 23.7616C11.8739 23.7616 11.7732 23.7809 11.6898 23.8196C11.6064 23.8562 11.5433 23.9091 11.5006 23.9783C11.4579 24.0454 11.4365 24.1237 11.4365 24.2133C11.4365 24.3191 11.467 24.4086 11.5281 24.4818C11.5911 24.553 11.6847 24.6222 11.8088 24.6893C11.935 24.7565 12.0916 24.8348 12.2788 24.9243C12.5067 25.0321 12.701 25.1451 12.8617 25.2631C13.0245 25.379 13.1496 25.5164 13.2371 25.675C13.3245 25.8317 13.3683 26.027 13.3683 26.261ZM17.6774 23.0383L16.1606 27.5H15.1292L13.6155 23.0383H14.5707L15.4099 25.6934C15.4242 25.7381 15.4476 25.8226 15.4801 25.9467C15.5127 26.0687 15.5452 26.1989 15.5778 26.3373C15.6123 26.4736 15.6357 26.5865 15.6479 26.676C15.6602 26.5865 15.6815 26.4736 15.712 26.3373C15.7446 26.201 15.7761 26.0718 15.8066 25.9497C15.8392 25.8256 15.8626 25.7402 15.8768 25.6934L16.7222 23.0383H17.6774Z" fill="white"/>
</svg>
