<svg width="16" height="17" viewBox="0 0 16 17" fill="none" xmlns="http://www.w3.org/2000/svg">
<path d="M12.5673 8.26667C11.1007 6.8 8.72565 6.80833 7.26732 8.275C5.80065 9.74167 5.80065 12.1167 7.26732 13.575C8.50898 14.8083 10.4257 15.025 11.909 14.1L14.5007 16.6583L15.659 15.5L13.084 12.9083C14.0257 11.4333 13.809 9.5 12.5673 8.26667ZM11.3923 12.3917C10.5757 13.2083 9.25898 13.2 8.44232 12.3917C7.63398 11.575 7.63398 10.2583 8.45065 9.44167C9.25898 8.63333 10.5757 8.63333 11.3923 9.44167C12.2007 10.2583 12.2007 11.575 11.3923 12.3917ZM6.08398 14.75C5.54232 14.2 5.11732 13.5417 4.85065 12.8167C2.22565 12.375 0.333984 11.1333 0.333984 9.66667V12.1667C0.333984 14.0083 3.31732 15.5 7.00065 15.5C6.66732 15.2833 6.35898 15.0333 6.08398 14.75ZM0.333984 5.5V8C0.333984 9.4 2.05898 10.6 4.50065 11.0833C4.50065 11.025 4.50065 10.975 4.50065 10.9167C4.50065 10.1417 4.66732 9.375 4.98398 8.675C2.28398 8.25 0.333984 6.99167 0.333984 5.5ZM7.00065 0.5C3.31732 0.5 0.333984 1.99167 0.333984 3.83333C0.333984 5.5 2.83398 6.9 6.04232 7.16667H6.08398C7.08398 6.11667 8.46732 5.5 9.91732 5.5C10.6757 5.5 11.4257 5.65833 12.1173 5.96667C12.9757 5.575 13.559 4.76667 13.6673 3.83333C13.6673 1.99167 10.684 0.5 7.00065 0.5Z" fill="currentColor"/>
</svg>
