<svg width="48" height="56" viewBox="0 0 48 56" fill="none" xmlns="http://www.w3.org/2000/svg">
<g filter="url(#filter0_d_27506_167734)">
<path d="M11 10.9875C11 9.88983 11.8898 9 12.9875 9H21.6C30.3813 9 37.5 16.1187 37.5 24.9V41.4625C37.5 42.5602 36.6102 43.45 35.5125 43.45H12.9875C11.8898 43.45 11 42.5602 11 41.4625V10.9875Z" fill="white"/>
<path d="M37.5 30.2V25.5625C37.5 22.2695 34.8305 19.6 31.5375 19.6H28.8875C27.7898 19.6 26.9 18.7102 26.9 17.6125V14.9625C26.9 11.6695 24.2305 9 20.9375 9H17.625M21.6 9H12.9875C11.8898 9 11 9.88983 11 10.9875V41.4625C11 42.5602 11.8898 43.45 12.9875 43.45H35.5125C36.6102 43.45 37.5 42.5602 37.5 41.4625V24.9C37.5 16.1187 30.3813 9 21.6 9Z" stroke="#D2D2D2" stroke-width="1.325" stroke-linecap="round" stroke-linejoin="round"/>
</g>
<rect x="3.6875" y="24.5" width="25" height="15" rx="3.125" fill="#088A2C"/>
<path d="M10.5977 35.5H9.40625V29.7891H12.6797V30.7812H10.5977V32.2539H12.5352V33.2422H10.5977V35.5ZM14.8945 31.1328V35.5H13.7031V31.1328H14.8945ZM14.3008 29.4219C14.4779 29.4219 14.6302 29.4635 14.7578 29.5469C14.8854 29.6276 14.9492 29.7799 14.9492 30.0039C14.9492 30.2253 14.8854 30.3789 14.7578 30.4648C14.6302 30.5482 14.4779 30.5898 14.3008 30.5898C14.1211 30.5898 13.9674 30.5482 13.8398 30.4648C13.7148 30.3789 13.6523 30.2253 13.6523 30.0039C13.6523 29.7799 13.7148 29.6276 13.8398 29.5469C13.9674 29.4635 14.1211 29.4219 14.3008 29.4219ZM17.3398 35.5H16.1484V29.4219H17.3398V35.5ZM20.3945 31.0508C20.7982 31.0508 21.1458 31.1289 21.4375 31.2852C21.7292 31.4388 21.9544 31.6628 22.1133 31.957C22.2721 32.2513 22.3516 32.6107 22.3516 33.0352V33.6133H19.5352C19.5482 33.9492 19.6484 34.2135 19.8359 34.4062C20.026 34.5964 20.2891 34.6914 20.625 34.6914C20.9036 34.6914 21.1589 34.6628 21.3906 34.6055C21.6224 34.5482 21.8607 34.4622 22.1055 34.3477V35.2695C21.8893 35.3763 21.6628 35.4544 21.4258 35.5039C21.1914 35.5534 20.9062 35.5781 20.5703 35.5781C20.1328 35.5781 19.7448 35.4974 19.4062 35.3359C19.0703 35.1745 18.806 34.9284 18.6133 34.5977C18.4232 34.2669 18.3281 33.8503 18.3281 33.3477C18.3281 32.8372 18.4141 32.4128 18.5859 32.0742C18.7604 31.7331 19.0026 31.4779 19.3125 31.3086C19.6224 31.1367 19.9831 31.0508 20.3945 31.0508ZM20.4023 31.8984C20.1706 31.8984 19.9779 31.9727 19.8242 32.1211C19.6732 32.2695 19.5859 32.5026 19.5625 32.8203H21.2344C21.2318 32.6432 21.1992 32.4857 21.1367 32.3477C21.0768 32.2096 20.9857 32.1003 20.8633 32.0195C20.7435 31.9388 20.5898 31.8984 20.4023 31.8984Z" fill="white"/>
<defs>
<filter id="filter0_d_27506_167734" x="0.701527" y="0.0245736" width="47.0969" height="55.0462" filterUnits="userSpaceOnUse" color-interpolation-filters="sRGB">
<feFlood flood-opacity="0" result="BackgroundImageFix"/>
<feColorMatrix in="SourceAlpha" type="matrix" values="0 0 0 0 0 0 0 0 0 0 0 0 0 0 0 0 0 0 127 0" result="hardAlpha"/>
<feOffset dy="1.325"/>
<feGaussianBlur stdDeviation="4.81818"/>
<feComposite in2="hardAlpha" operator="out"/>
<feColorMatrix type="matrix" values="0 0 0 0 0.160784 0 0 0 0 0.168627 0 0 0 0 0.345098 0 0 0 0.16 0"/>
<feBlend mode="normal" in2="BackgroundImageFix" result="effect1_dropShadow_27506_167734"/>
<feBlend mode="normal" in="SourceGraphic" in2="effect1_dropShadow_27506_167734" result="shape"/>
</filter>
</defs>
</svg>