<svg width="16" height="17" viewBox="0 0 16 17" fill="none" xmlns="http://www.w3.org/2000/svg">
<path fill-rule="evenodd" clip-rule="evenodd" d="M3.19995 3.69961C3.19995 2.81595 3.9163 2.09961 4.79995 2.09961H8.46858C8.89293 2.09961 9.29989 2.26818 9.59995 2.56824L12.3313 5.29961C12.6314 5.59967 12.7999 6.00663 12.7999 6.43098V13.2996C12.7999 14.1833 12.0836 14.8996 11.2 14.8996H4.79995C3.91629 14.8996 3.19995 14.1833 3.19995 13.2996V3.69961ZM4.79995 8.49961C4.79995 8.05778 5.15812 7.69961 5.59995 7.69961H10.4C10.8418 7.69961 11.2 8.05778 11.2 8.49961C11.2 8.94144 10.8418 9.29961 10.4 9.29961H5.59995C5.15812 9.29961 4.79995 8.94144 4.79995 8.49961ZM5.59995 10.8996C5.15812 10.8996 4.79995 11.2578 4.79995 11.6996C4.79995 12.1414 5.15812 12.4996 5.59995 12.4996H10.4C10.8418 12.4996 11.2 12.1414 11.2 11.6996C11.2 11.2578 10.8418 10.8996 10.4 10.8996H5.59995Z" fill="#567191"/>
</svg>
