<svg width="16" height="17" viewBox="0 0 16 17" fill="none" xmlns="http://www.w3.org/2000/svg">
<path d="M8.5 9C8.5 9.13261 8.44732 9.25978 8.35355 9.35355C8.25979 9.44732 8.13261 9.5 8 9.5C7.86739 9.5 7.74022 9.44732 7.64645 9.35355C7.55268 9.25978 7.5 9.13261 7.5 9C7.5 8.86739 7.55268 8.74022 7.64645 8.64645C7.74022 8.55268 7.86739 8.5 8 8.5C8.13261 8.5 8.25979 8.55268 8.35355 8.64645C8.44732 8.74022 8.5 8.86739 8.5 9ZM5 11C5.13261 11 5.25978 10.9473 5.35355 10.8536C5.44732 10.7598 5.5 10.6326 5.5 10.5C5.5 10.3674 5.44732 10.2402 5.35355 10.1464C5.25978 10.0527 5.13261 10 5 10C4.86739 10 4.74021 10.0527 4.64645 10.1464C4.55268 10.2402 4.5 10.3674 4.5 10.5C4.5 10.6326 4.55268 10.7598 4.64645 10.8536C4.74021 10.9473 4.86739 11 5 11ZM5.5 12C5.5 12.1326 5.44732 12.2598 5.35355 12.3536C5.25978 12.4473 5.13261 12.5 5 12.5C4.86739 12.5 4.74021 12.4473 4.64645 12.3536C4.55268 12.2598 4.5 12.1326 4.5 12C4.5 11.8674 4.55268 11.7402 4.64645 11.6464C4.74021 11.5527 4.86739 11.5 5 11.5C5.13261 11.5 5.25978 11.5527 5.35355 11.6464C5.44732 11.7402 5.5 11.8674 5.5 12ZM6.5 11C6.63261 11 6.75978 10.9473 6.85355 10.8536C6.94732 10.7598 7 10.6326 7 10.5C7 10.3674 6.94732 10.2402 6.85355 10.1464C6.75978 10.0527 6.63261 10 6.5 10C6.36739 10 6.24022 10.0527 6.14645 10.1464C6.05268 10.2402 6 10.3674 6 10.5C6 10.6326 6.05268 10.7598 6.14645 10.8536C6.24022 10.9473 6.36739 11 6.5 11ZM7 12C7 12.1326 6.94732 12.2598 6.85355 12.3536C6.75978 12.4473 6.63261 12.5 6.5 12.5C6.36739 12.5 6.24022 12.4473 6.14645 12.3536C6.05268 12.2598 6 12.1326 6 12C6 11.8674 6.05268 11.7402 6.14645 11.6464C6.24022 11.5527 6.36739 11.5 6.5 11.5C6.63261 11.5 6.75978 11.5527 6.85355 11.6464C6.94732 11.7402 7 11.8674 7 12ZM8 11C8.13261 11 8.25979 10.9473 8.35355 10.8536C8.44732 10.7598 8.5 10.6326 8.5 10.5C8.5 10.3674 8.44732 10.2402 8.35355 10.1464C8.25979 10.0527 8.13261 10 8 10C7.86739 10 7.74022 10.0527 7.64645 10.1464C7.55268 10.2402 7.5 10.3674 7.5 10.5C7.5 10.6326 7.55268 10.7598 7.64645 10.8536C7.74022 10.9473 7.86739 11 8 11ZM8.5 12C8.5 12.1326 8.44732 12.2598 8.35355 12.3536C8.25979 12.4473 8.13261 12.5 8 12.5C7.86739 12.5 7.74022 12.4473 7.64645 12.3536C7.55268 12.2598 7.5 12.1326 7.5 12C7.5 11.8674 7.55268 11.7402 7.64645 11.6464C7.74022 11.5527 7.86739 11.5 8 11.5C8.13261 11.5 8.25979 11.5527 8.35355 11.6464C8.44732 11.7402 8.5 11.8674 8.5 12ZM9.5 11C9.63261 11 9.75979 10.9473 9.85355 10.8536C9.94732 10.7598 10 10.6326 10 10.5C10 10.3674 9.94732 10.2402 9.85355 10.1464C9.75979 10.0527 9.63261 10 9.5 10C9.36739 10 9.24022 10.0527 9.14645 10.1464C9.05268 10.2402 9 10.3674 9 10.5C9 10.6326 9.05268 10.7598 9.14645 10.8536C9.24022 10.9473 9.36739 11 9.5 11ZM10 12C10 12.1326 9.94732 12.2598 9.85355 12.3536C9.75979 12.4473 9.63261 12.5 9.5 12.5C9.36739 12.5 9.24022 12.4473 9.14645 12.3536C9.05268 12.2598 9 12.1326 9 12C9 11.8674 9.05268 11.7402 9.14645 11.6464C9.24022 11.5527 9.36739 11.5 9.5 11.5C9.63261 11.5 9.75979 11.5527 9.85355 11.6464C9.94732 11.7402 10 11.8674 10 12ZM11 11C11.1326 11 11.2598 10.9473 11.3536 10.8536C11.4473 10.7598 11.5 10.6326 11.5 10.5C11.5 10.3674 11.4473 10.2402 11.3536 10.1464C11.2598 10.0527 11.1326 10 11 10C10.8674 10 10.7402 10.0527 10.6464 10.1464C10.5527 10.2402 10.5 10.3674 10.5 10.5C10.5 10.6326 10.5527 10.7598 10.6464 10.8536C10.7402 10.9473 10.8674 11 11 11ZM10 9C10 9.13261 9.94732 9.25978 9.85355 9.35355C9.75979 9.44732 9.63261 9.5 9.5 9.5C9.36739 9.5 9.24022 9.44732 9.14645 9.35355C9.05268 9.25978 9 9.13261 9 9C9 8.86739 9.05268 8.74022 9.14645 8.64645C9.24022 8.55268 9.36739 8.5 9.5 8.5C9.63261 8.5 9.75979 8.55268 9.85355 8.64645C9.94732 8.74022 10 8.86739 10 9ZM11 9.5C11.1326 9.5 11.2598 9.44732 11.3536 9.35355C11.4473 9.25978 11.5 9.13261 11.5 9C11.5 8.86739 11.4473 8.74022 11.3536 8.64645C11.2598 8.55268 11.1326 8.5 11 8.5C10.8674 8.5 10.7402 8.55268 10.6464 8.64645C10.5527 8.74022 10.5 8.86739 10.5 9C10.5 9.13261 10.5527 9.25978 10.6464 9.35355C10.7402 9.44732 10.8674 9.5 11 9.5Z" fill="currentColor"/>
<path fill-rule="evenodd" clip-rule="evenodd" d="M4.5 2C4.63261 2 4.75979 2.05268 4.85355 2.14645C4.94732 2.24021 5 2.36739 5 2.5V3.5H11V2.5C11 2.36739 11.0527 2.24021 11.1464 2.14645C11.2402 2.05268 11.3674 2 11.5 2C11.6326 2 11.7598 2.05268 11.8536 2.14645C11.9473 2.24021 12 2.36739 12 2.5V3.5H12.5C13.0304 3.5 13.5391 3.71071 13.9142 4.08579C14.2893 4.46086 14.5 4.96957 14.5 5.5V13C14.5 13.5304 14.2893 14.0391 13.9142 14.4142C13.5391 14.7893 13.0304 15 12.5 15H3.5C2.96957 15 2.46086 14.7893 2.08579 14.4142C1.71071 14.0391 1.5 13.5304 1.5 13V5.5C1.5 4.96957 1.71071 4.46086 2.08579 4.08579C2.46086 3.71071 2.96957 3.5 3.5 3.5H4V2.5C4 2.36739 4.05268 2.24021 4.14645 2.14645C4.24021 2.05268 4.36739 2 4.5 2ZM13.5 8C13.5 7.73478 13.3946 7.48043 13.2071 7.29289C13.0196 7.10536 12.7652 7 12.5 7H3.5C3.23478 7 2.98043 7.10536 2.79289 7.29289C2.60536 7.48043 2.5 7.73478 2.5 8V13C2.5 13.2652 2.60536 13.5196 2.79289 13.7071C2.98043 13.8946 3.23478 14 3.5 14H12.5C12.7652 14 13.0196 13.8946 13.2071 13.7071C13.3946 13.5196 13.5 13.2652 13.5 13V8Z" fill="#567191"/>
</svg>
