<svg width="16" height="21" viewBox="0 0 16 21" fill="none" xmlns="http://www.w3.org/2000/svg">
<path fill-rule="evenodd" clip-rule="evenodd" d="M16 10.7593C16 16.3951 12.4183 20.9638 8 20.9638C3.58172 20.9638 0 16.3951 0 10.7593C0 5.12343 3.58172 0.554688 8 0.554688C12.4183 0.554688 16 5.12343 16 10.7593ZM9 15.8615C9 16.566 8.55229 17.1371 8 17.1371C7.44772 17.1371 7 16.566 7 15.8615C7 15.1571 7.44772 14.586 8 14.586C8.55229 14.586 9 15.1571 9 15.8615ZM8 4.3814C7.44772 4.3814 7 4.95249 7 5.65697V10.7593C7 11.4637 7.44772 12.0348 8 12.0348C8.55229 12.0348 9 11.4637 9 10.7593V5.65697C9 4.95249 8.55229 4.3814 8 4.3814Z" fill="url(#paint0_linear_20646_3651)"/>
<defs>
<linearGradient id="paint0_linear_20646_3651" x1="24" y1="10.7593" x2="4.18081" y2="-4.77824" gradientUnits="userSpaceOnUse">
<stop stop-color="#FF8888"/>
<stop offset="1" stop-color="#F05F5F"/>
</linearGradient>
</defs>
</svg>
