<svg width="40" height="40" viewBox="0 0 40 40" fill="none" xmlns="http://www.w3.org/2000/svg">
<path fill-rule="evenodd" clip-rule="evenodd" d="M39.1998 19.9969C39.1998 30.6007 30.6037 39.1969 19.9998 39.1969C9.39594 39.1969 0.799805 30.6007 0.799805 19.9969C0.799805 9.39301 9.39594 0.796875 19.9998 0.796875C30.6037 0.796875 39.1998 9.39301 39.1998 19.9969ZM22.3998 29.5969C22.3998 30.9224 21.3253 31.9969 19.9998 31.9969C18.6743 31.9969 17.5998 30.9224 17.5998 29.5969C17.5998 28.2714 18.6743 27.1969 19.9998 27.1969C21.3253 27.1969 22.3998 28.2714 22.3998 29.5969ZM19.9998 7.99688C18.6743 7.99688 17.5998 9.07139 17.5998 10.3969V19.9969C17.5998 21.3224 18.6743 22.3969 19.9998 22.3969C21.3253 22.3969 22.3998 21.3224 22.3998 19.9969V10.3969C22.3998 9.07139 21.3253 7.99688 19.9998 7.99688Z" fill="url(#paint0_linear_12268_81210)"/>
<defs>
<linearGradient id="paint0_linear_12268_81210" x1="55.668" y1="19.8676" x2="16.2332" y2="-16.6945" gradientUnits="userSpaceOnUse">
<stop stop-color="#FF8888"/>
<stop offset="1" stop-color="#F05F5F"/>
</linearGradient>
</defs>
</svg>
