<svg width="17" height="15" viewBox="0 0 17 15" fill="none" xmlns="http://www.w3.org/2000/svg">
<path fill-rule="evenodd" clip-rule="evenodd" d="M1.60185 14.4997C0.446354 14.4997 -0.275233 13.2481 0.303714 12.2481L6.86871 0.908601C7.44646 -0.0893261 8.88724 -0.089325 9.46499 0.908602L16.03 12.2481C16.6089 13.2481 15.8873 14.4997 14.7318 14.4997H1.60185ZM8.22519 12.4997C8.70844 12.4997 9.10019 12.1079 9.10019 11.6247C9.10019 11.1414 8.70844 10.7497 8.22519 10.7497C7.74194 10.7497 7.35019 11.1414 7.35019 11.6247C7.35019 12.1079 7.74194 12.4997 8.22519 12.4997ZM7.35019 4.62468C7.35019 4.14143 7.74194 3.74968 8.22519 3.74968C8.70844 3.74968 9.10019 4.14143 9.10019 4.62468V8.12468C9.10019 8.60793 8.70844 8.99968 8.22519 8.99968C7.74194 8.99968 7.35019 8.60793 7.35019 8.12468V4.62468Z" fill="url(#paint0_linear_17474_128121)"/>
<defs>
<linearGradient id="paint0_linear_17474_128121" x1="0.0996094" y1="0.160156" x2="14.34" y2="16.1831" gradientUnits="userSpaceOnUse">
<stop stop-color="#FFCF4F"/>
<stop offset="1" stop-color="#FF9B4A"/>
</linearGradient>
</defs>
</svg>
