<svg width="14" height="16" viewBox="0 0 14 16" fill="none" xmlns="http://www.w3.org/2000/svg">
<path fill-rule="evenodd" clip-rule="evenodd" d="M0 15C-2.41411e-08 14.4477 0.447715 14 1 14H13C13.5523 14 14 14.4477 14 15C14 15.5523 13.5523 16 13 16H1C0.447715 16 2.41411e-08 15.5523 0 15ZM3.29289 4.70711C2.90237 4.31658 2.90237 3.68342 3.29289 3.29289L6.29289 0.292893C6.48043 0.105357 6.73478 1.1593e-08 7 0C7.26522 -1.1593e-08 7.51957 0.105357 7.70711 0.292893L10.7071 3.29289C11.0976 3.68342 11.0976 4.31658 10.7071 4.70711C10.3166 5.09763 9.68342 5.09763 9.29289 4.70711L8 3.41421L8 11C8 11.5523 7.55228 12 7 12C6.44771 12 6 11.5523 6 11L6 3.41421L4.70711 4.70711C4.31658 5.09763 3.68342 5.09763 3.29289 4.70711Z" fill="#567191"/>
</svg>