<svg width="16" height="16" viewBox="0 0 10 12" fill="none" xmlns="http://www.w3.org/2000/svg">
<path d="M8.77337 5.46667C8.62003 5.26667 8.43337 5.09333 8.26003 4.92C7.81337 4.52 7.3067 4.23333 6.88003 3.81333C5.8867 2.84 5.6667 1.23333 6.30003 0C5.6667 0.153333 5.11337 0.5 4.64003 0.88C2.91337 2.26667 2.23337 4.71333 3.0467 6.81333C3.07337 6.88 3.10003 6.94667 3.10003 7.03333C3.10003 7.18 3.00003 7.31333 2.8667 7.36667C2.71337 7.43333 2.55337 7.39333 2.4267 7.28667C2.3867 7.25333 2.36003 7.22 2.33337 7.17333C1.58003 6.22 1.46003 4.85333 1.9667 3.76C0.853366 4.66667 0.2467 6.2 0.333366 7.64667C0.373366 7.98 0.413366 8.31333 0.5267 8.64667C0.620033 9.04667 0.800033 9.44667 1.00003 9.8C1.72003 10.9533 2.9667 11.78 4.3067 11.9467C5.73337 12.1267 7.26003 11.8667 8.35337 10.88C9.57337 9.77333 10 8 9.37337 6.48L9.2867 6.30667C9.1467 6 8.77337 5.46667 8.77337 5.46667ZM6.6667 9.66667C6.48003 9.82667 6.17337 10 5.93337 10.0667C5.1867 10.3333 4.03366 9.96 3.59366 9.52C4.38699 9.33333 4.86033 8.74667 5.00033 8.15333C5.11366 7.62 4.90033 7.18 4.81366 6.66667C4.7011 6 5.15366 5.12667 5.33366 4.66667C5.46033 4.92 5.59956 5.88535 5.93337 6.48C6.32319 7.17444 7.07337 6.96 7.2467 7.86667C7.27337 7.96 7.2867 8.05333 7.2867 8.15333C7.3067 8.7 7.0667 9.3 6.6667 9.66667Z" fill="currentColor"/>
</svg>
