<svg width="12" height="12" viewBox="0 0 12 12" fill="none" xmlns="http://www.w3.org/2000/svg">
<path d="M11.2729 5.8884C11.2729 5.50921 11.2393 5.14922 11.1817 4.79883H5.75781V6.96358H8.86334C8.72414 7.67396 8.31615 8.27395 7.71137 8.68194V10.1219H9.56412C10.6489 9.11873 11.2729 7.64036 11.2729 5.8884Z" fill="currentColor"/>
<path d="M5.75591 11.5201C7.31108 11.5201 8.61184 11.0017 9.56222 10.1233L7.70947 8.68333C7.19108 9.02892 6.53349 9.24012 5.75591 9.24012C4.25355 9.24012 2.98158 8.22734 2.52559 6.85938H0.615234V8.34254C1.56081 10.2241 3.50477 11.5201 5.75591 11.5201Z" fill="currentColor"/>
<path d="M2.52954 6.85925C2.40954 6.51365 2.34714 6.14406 2.34714 5.76007C2.34714 5.37608 2.41434 5.00649 2.52954 4.6609V3.17773H0.619185C0.225594 3.95532 0 4.82889 0 5.76007C0 6.69125 0.225594 7.56483 0.619185 8.34241L2.52954 6.85925Z" fill="currentColor"/>
<path d="M5.75591 2.27995C6.60549 2.27995 7.36388 2.57274 7.96386 3.14393L9.60542 1.50237C8.61185 0.571187 7.31108 0 5.75591 0C3.50477 0 1.56081 1.29597 0.615234 3.17753L2.52559 4.66069C2.98158 3.29272 4.25355 2.27995 5.75591 2.27995Z" fill="currentColor"/>
</svg>
