<svg width="45" height="45" viewBox="0 0 45 45" fill="none" xmlns="http://www.w3.org/2000/svg">
<g filter="url(#filter0_d_27551_219402)">
<path d="M14.9174 13.7339C15.7974 13.4039 17.5391 13.6056 17.9974 14.5956C18.4557 15.5856 18.7307 16.8689 18.7491 16.5572C18.714 15.6099 18.794 14.6619 18.9874 13.7339C19.1912 13.1396 19.6581 12.6727 20.2524 12.4689C20.7975 12.2965 21.3762 12.2588 21.9391 12.3589C22.5082 12.476 23.0122 12.8033 23.3507 13.2756C23.7796 14.3446 24.0215 15.4795 24.0657 16.6306C24.1113 15.6484 24.2776 14.6755 24.5607 13.7339C24.8671 13.3022 25.3145 12.991 25.8257 12.8539C26.4318 12.7431 27.053 12.7431 27.6591 12.8539C28.1566 13.019 28.5917 13.3325 28.9057 13.7522C29.2951 14.7242 29.5302 15.751 29.6024 16.7956C29.6024 17.0522 29.7307 16.0806 30.1341 15.4389C30.4581 14.477 31.5005 13.9599 32.4624 14.2839C33.4243 14.6079 33.9414 15.6503 33.6174 16.6122C33.6174 17.8039 33.6174 17.7489 33.6174 18.5556C33.6174 19.3622 33.6174 20.0772 33.6174 20.7556C33.5514 21.8285 33.4043 22.8948 33.1774 23.9456C32.8592 24.8756 32.4151 25.7577 31.8574 26.5672C30.9674 27.5573 30.232 28.676 29.6757 29.8856C29.54 30.4869 29.4785 31.1026 29.4924 31.7189C29.4906 32.2884 29.5645 32.8556 29.7124 33.4056C28.9629 33.4856 28.2069 33.4856 27.4574 33.4056C26.7424 33.2956 25.8624 31.8656 25.6241 31.4256C25.5061 31.1893 25.2648 31.04 25.0007 31.04C24.7367 31.04 24.4953 31.1893 24.3774 31.4256C23.9741 32.1222 23.0757 33.3872 22.5441 33.4606C21.3157 33.6072 18.7674 33.4606 16.7874 33.4606C16.7874 33.4606 17.1357 31.6272 16.3657 30.9672C15.5957 30.3072 14.8441 29.5372 14.2757 29.0239L12.7541 27.3372C11.681 26.3411 10.8958 25.0746 10.4807 23.6706C10.0957 21.9472 10.1324 21.1222 10.4807 20.4256C10.836 19.8503 11.3908 19.426 12.0391 19.2339C12.5776 19.1362 13.1321 19.174 13.6524 19.3439C14.0122 19.4945 14.3232 19.742 14.5507 20.0589C14.9724 20.6272 15.1191 20.9022 14.9357 20.2789C14.7524 19.6556 14.3491 19.1972 14.1474 18.4456C13.7548 17.5579 13.5191 16.6088 13.4507 15.6406C13.5259 14.7719 14.1324 14.0411 14.9724 13.8072" fill="white"/>
<path fill-rule="evenodd" clip-rule="evenodd" d="M14.9174 13.7339C15.7974 13.4039 17.5391 13.6056 17.9974 14.5956C18.4557 15.5856 18.7307 16.8689 18.7491 16.5572C18.714 15.6099 18.794 14.6619 18.9874 13.7339C19.1912 13.1396 19.6581 12.6727 20.2524 12.4689C20.7975 12.2965 21.3762 12.2588 21.9391 12.3589C22.5082 12.476 23.0122 12.8033 23.3507 13.2756C23.7796 14.3446 24.0215 15.4795 24.0657 16.6306C24.1113 15.6484 24.2776 14.6755 24.5607 13.7339C24.8671 13.3022 25.3145 12.991 25.8257 12.8539C26.4318 12.7431 27.053 12.7431 27.6591 12.8539C28.1566 13.019 28.5917 13.3325 28.9057 13.7522C29.2951 14.7242 29.5302 15.751 29.6024 16.7956C29.6024 17.0522 29.7307 16.0806 30.1341 15.4389C30.4581 14.477 31.5005 13.9599 32.4624 14.2839C33.4243 14.6079 33.9414 15.6503 33.6174 16.6122C33.6174 17.8039 33.6174 17.7489 33.6174 18.5556C33.6174 19.3622 33.6174 20.0772 33.6174 20.7556C33.5514 21.8285 33.4043 22.8948 33.1774 23.9456C32.8592 24.8756 32.4151 25.7577 31.8574 26.5672C30.9674 27.5573 30.232 28.676 29.6757 29.8856C29.54 30.4869 29.4785 31.1026 29.4924 31.7189C29.4906 32.2884 29.5645 32.8556 29.7124 33.4056C28.9629 33.4856 28.2069 33.4856 27.4574 33.4056C26.7424 33.2956 25.8624 31.8656 25.6241 31.4256C25.5061 31.1893 25.2648 31.04 25.0007 31.04C24.7367 31.04 24.4953 31.1893 24.3774 31.4256C23.9741 32.1222 23.0757 33.3872 22.5441 33.4606C21.3157 33.6072 18.7674 33.4606 16.7874 33.4606C16.7874 33.4606 17.1357 31.6272 16.3657 30.9672C15.5957 30.3072 14.8441 29.5372 14.2757 29.0239L12.7541 27.3372C11.681 26.3411 10.8958 25.0746 10.4807 23.6706C10.0957 21.9472 10.1324 21.1222 10.4807 20.4256C10.836 19.8503 11.3908 19.426 12.0391 19.2339C12.5776 19.1362 13.1321 19.174 13.6524 19.3439C14.0122 19.4945 14.3232 19.742 14.5507 20.0589C14.9724 20.6272 15.1191 20.9022 14.9357 20.2789C14.7524 19.6556 14.3491 19.1972 14.1474 18.4456C13.7548 17.5579 13.5191 16.6088 13.4507 15.6406C13.4882 14.7592 14.0751 13.9962 14.9174 13.7339Z" stroke="black" stroke-width="1.375" stroke-linejoin="round"/>
<path d="M29.1265 27.8061V21.4779C29.1265 21.0991 28.8187 20.792 28.439 20.792C28.0593 20.792 27.7515 21.0991 27.7515 21.4779V27.8061C27.7515 28.1849 28.0593 28.492 28.439 28.492C28.8187 28.492 29.1265 28.1849 29.1265 27.8061Z" fill="black"/>
<path d="M25.4961 27.8038L25.4595 21.4723C25.4573 21.0944 25.1477 20.7898 24.768 20.792C24.3883 20.7942 24.0823 21.1023 24.0845 21.4802L24.1212 27.8117C24.1233 28.1896 24.4329 28.4942 24.8126 28.492C25.1923 28.4898 25.4983 28.1817 25.4961 27.8038Z" fill="black"/>
<path d="M20.4175 21.4885L20.4542 27.8036C20.4564 28.186 20.766 28.4942 21.1457 28.492C21.5254 28.4897 21.8314 28.1779 21.8291 27.7955L21.7925 21.4804C21.7902 21.098 21.4806 20.7898 21.101 20.792C20.7213 20.7942 20.4153 21.1061 20.4175 21.4885Z" fill="black"/>
</g>
<defs>
<filter id="filter0_d_27551_219402" x="8.0514" y="11.6167" width="27.8171" height="25.8967" filterUnits="userSpaceOnUse" color-interpolation-filters="sRGB">
<feFlood flood-opacity="0" result="BackgroundImageFix"/>
<feColorMatrix in="SourceAlpha" type="matrix" values="0 0 0 0 0 0 0 0 0 0 0 0 0 0 0 0 0 0 127 0" result="hardAlpha"/>
<feOffset dy="1.83333"/>
<feGaussianBlur stdDeviation="0.733333"/>
<feColorMatrix type="matrix" values="0 0 0 0 0 0 0 0 0 0 0 0 0 0 0 0 0 0 0.5 0"/>
<feBlend mode="normal" in2="BackgroundImageFix" result="effect1_dropShadow_27551_219402"/>
<feBlend mode="normal" in="SourceGraphic" in2="effect1_dropShadow_27551_219402" result="shape"/>
</filter>
</defs>
</svg>
