<svg width="34" height="34" viewBox="0 0 34 34" fill="none" xmlns="http://www.w3.org/2000/svg">
<rect width="34" height="34" rx="10" fill="url(#paint0_linear_23836_149443028502)" fill-opacity="0.2"/>
<path d="M22.6728 16.2C22.4428 15.9 22.1628 15.64 21.9028 15.38C21.2328 14.78 20.4728 14.35 19.8328 13.72C18.3428 12.26 18.0128 9.85 18.9628 8C18.0128 8.23 17.1828 8.75 16.4728 9.32C13.8828 11.4 12.8628 15.07 14.0828 18.22C14.1228 18.32 14.1628 18.42 14.1628 18.55C14.1628 18.77 14.0128 18.97 13.8128 19.05C13.5828 19.15 13.3428 19.09 13.1528 18.93C13.0928 18.88 13.0528 18.83 13.0128 18.76C11.8828 17.33 11.7028 15.28 12.4628 13.64C10.7928 15 9.88279 17.3 10.0128 19.47C10.0728 19.97 10.1328 20.47 10.3028 20.97C10.4428 21.57 10.7128 22.17 11.0128 22.7C12.0928 24.43 13.9628 25.67 15.9728 25.92C18.1128 26.19 20.4028 25.8 22.0428 24.32C23.8728 22.66 24.5128 20 23.5728 17.72L23.4428 17.46C23.2328 17 22.6728 16.2 22.6728 16.2Z" fill="#FFD338"/>
<path d="M22.6605 16.2C22.4305 15.9 22.1505 15.64 21.8905 15.38C21.2205 14.78 20.4605 14.35 19.8205 13.72C18.3305 12.26 18.0005 9.85 18.9505 8C18.0005 8.23 17.1705 8.75 16.4605 9.32C13.8705 11.4 12.8505 15.07 14.0705 18.22C14.1105 18.32 14.1505 18.42 14.1505 18.55C14.1505 18.77 14.0005 18.97 13.8005 19.05C13.5705 19.15 13.3305 19.09 13.1405 18.93C13.0805 18.88 13.0405 18.83 13.0005 18.76C11.8705 17.33 11.6905 15.28 12.4505 13.64C10.7805 15 9.87054 17.3 10.0005 19.47C10.0605 19.97 10.1205 20.47 10.2905 20.97C10.4305 21.57 10.7005 22.17 11.0005 22.7C12.0805 24.43 13.9505 25.67 15.9605 25.92C18.1005 26.19 20.3905 25.8 22.0305 24.32C23.8605 22.66 24.5005 20 23.5605 17.72L23.4305 17.46C23.2205 17 22.6605 16.2 22.6605 16.2ZM19.5005 22.5C19.2205 22.74 18.7605 23 18.4005 23.1C17.2805 23.5 15.551 22.94 14.891 22.28C16.081 22 16.791 21.12 17.001 20.23C17.171 19.43 16.851 18.77 16.721 18C16.5521 17 17.231 15.69 17.501 15C17.691 15.38 17.8998 16.828 18.4005 17.72C18.9853 18.7617 20.1105 18.44 20.3705 19.8C20.4105 19.94 20.4305 20.08 20.4305 20.23C20.4605 21.05 20.1005 21.95 19.5005 22.5Z" fill="#FF8148"/>
<defs>
<linearGradient id="paint0_linear_23836_149443028502" x1="0" y1="0" x2="34" y2="34" gradientUnits="userSpaceOnUse">
<stop stop-color="#FFCF4F"/>
<stop offset="1" stop-color="#FF9B4A"/>
</linearGradient>
</defs>
</svg>
