<svg width="32" height="32" viewBox="0 0 32 32" fill="none" xmlns="http://www.w3.org/2000/svg">
<rect width="32" height="32" rx="10" fill="#ff7a59"/>
<g clip-path="url(#clip0_14053_101279)">
<path d="M20.4163 13.1565V11.0896C20.6895 10.9619 20.9207 10.7593 21.0832 10.5053C21.2457 10.2513 21.3327 9.95643 21.3341 9.65493V9.60751C21.3341 8.72844 20.6214 8.01582 19.7424 8.01582H19.6949C18.8159 8.01582 18.1033 8.72844 18.1033 9.60751V9.65493C18.1046 9.95643 18.1916 10.2513 18.3541 10.5053C18.5166 10.7593 18.7478 10.9619 19.021 11.0896V13.1565C18.236 13.2767 17.4966 13.6022 16.8779 14.1001L11.2092 9.68478C11.2496 9.53886 11.2707 9.38881 11.2731 9.2382C11.2738 8.88347 11.1693 8.53651 10.9727 8.24119C10.7762 7.94587 10.4965 7.71548 10.169 7.57914C9.84156 7.44281 9.481 7.40666 9.13296 7.47527C8.78493 7.54388 8.46507 7.71417 8.21383 7.9646C7.96259 8.21502 7.79126 8.53433 7.72152 8.88214C7.65178 9.22995 7.68676 9.59063 7.82203 9.91855C7.95731 10.2465 8.18679 10.5269 8.48147 10.7244C8.77615 10.9219 9.12277 11.0275 9.4775 11.028C9.78783 11.0265 10.0923 10.9437 10.3606 10.7877L15.9426 15.1313C14.9164 16.6816 14.9438 18.7021 16.0118 20.224L14.314 21.9223C14.1767 21.8784 14.0338 21.8551 13.8897 21.8531C13.0766 21.8538 12.4179 22.5132 12.4182 23.3263C12.4184 24.1393 13.0775 24.7983 13.8905 24.7985C14.7036 24.7987 15.3629 24.1401 15.3636 23.327C15.3617 23.1829 15.3384 23.04 15.2944 22.9028L16.974 21.2226C18.4747 22.3779 20.5358 22.4774 22.1408 21.4721C23.7458 20.4668 24.5558 18.5688 24.1712 16.7144C23.7867 14.86 22.2888 13.4407 20.4163 13.1564V13.1565ZM19.7202 19.9544C19.4099 19.9627 19.1011 19.9088 18.812 19.7959C18.5229 19.6829 18.2593 19.5131 18.0369 19.2966C17.8145 19.0801 17.6377 18.8212 17.517 18.5353C17.3963 18.2493 17.3341 17.9421 17.3341 17.6317C17.3341 17.3213 17.3963 17.014 17.517 16.7281C17.6377 16.4421 17.8145 16.1832 18.0369 15.9667C18.2593 15.7502 18.5229 15.5804 18.812 15.4675C19.1011 15.3545 19.4099 15.3006 19.7202 15.3089C20.9706 15.3527 21.9618 16.3787 21.9625 17.63C21.963 18.8811 20.9729 19.9082 19.7225 19.9532" fill="white"/>
</g>
<defs>
<clipPath id="clip0_14053_101279">
<rect width="17.6" height="17.6" fill="white" transform="translate(7.2002 7.19922)"/>
</clipPath>
</defs>
</svg>
