<svg width="18" height="18" viewBox="0 0 18 18" fill="none" xmlns="http://www.w3.org/2000/svg">
<g opacity="0.48">
<path fill-rule="evenodd" clip-rule="evenodd" d="M16.1998 9.00005C16.1998 12.9765 12.9763 16.2 8.9998 16.2C5.02335 16.2 1.7998 12.9765 1.7998 9.00005C1.7998 5.0236 5.02335 1.80005 8.9998 1.80005C12.9763 1.80005 16.1998 5.0236 16.1998 9.00005ZM9.89981 5.40005C9.89981 5.89711 9.49686 6.30005 8.9998 6.30005C8.50275 6.30005 8.0998 5.89711 8.0998 5.40005C8.0998 4.90299 8.50275 4.50005 8.9998 4.50005C9.49686 4.50005 9.89981 4.90299 9.89981 5.40005ZM8.0998 8.10005C7.60275 8.10005 7.1998 8.50299 7.1998 9.00005C7.1998 9.49711 7.60275 9.90005 8.0998 9.90005V12.6C8.0998 13.0971 8.50275 13.5 8.9998 13.5H9.89981C10.3969 13.5 10.7998 13.0971 10.7998 12.6C10.7998 12.103 10.3969 11.7 9.89981 11.7V9.00005C9.89981 8.50299 9.49686 8.10005 8.9998 8.10005H8.0998Z" fill="#8193A8"/>
</g>
</svg>
