<svg width="14" height="14" viewBox="0 0 14 14" fill="none" xmlns="http://www.w3.org/2000/svg">
<path fill-rule="evenodd" clip-rule="evenodd" d="M13.4016 7.0001C13.4016 10.5347 10.5362 13.4001 7.00156 13.4001C3.46694 13.4001 0.601562 10.5347 0.601562 7.0001C0.601562 3.46548 3.46694 0.600098 7.00156 0.600098C10.5362 0.600098 13.4016 3.46548 13.4016 7.0001ZM7.80156 3.8001C7.80156 4.24193 7.44339 4.6001 7.00156 4.6001C6.55973 4.6001 6.20156 4.24193 6.20156 3.8001C6.20156 3.35827 6.55973 3.0001 7.00156 3.0001C7.44339 3.0001 7.80156 3.35827 7.80156 3.8001ZM6.20156 6.2001C5.75973 6.2001 5.40156 6.55827 5.40156 7.0001C5.40156 7.44193 5.75973 7.8001 6.20156 7.8001V10.2001C6.20156 10.6419 6.55973 11.0001 7.00156 11.0001H7.80156C8.24339 11.0001 8.60156 10.6419 8.60156 10.2001C8.60156 9.75827 8.24339 9.4001 7.80156 9.4001V7.0001C7.80156 6.55827 7.44339 6.2001 7.00156 6.2001H6.20156Z" fill="currentColor"/>
</svg>
    