<svg width="48" height="48" viewBox="0 0 48 48" fill="none" xmlns="http://www.w3.org/2000/svg">
<path fill-rule="evenodd" clip-rule="evenodd" d="M43.1998 23.9998C43.1998 34.6037 34.6037 43.1998 23.9998 43.1998C13.3959 43.1998 4.7998 34.6037 4.7998 23.9998C4.7998 13.3959 13.3959 4.7998 23.9998 4.7998C34.6037 4.7998 43.1998 13.3959 43.1998 23.9998ZM26.3998 14.3998C26.3998 15.7253 25.3253 16.7998 23.9998 16.7998C22.6743 16.7998 21.5998 15.7253 21.5998 14.3998C21.5998 13.0743 22.6743 11.9998 23.9998 11.9998C25.3253 11.9998 26.3998 13.0743 26.3998 14.3998ZM21.5998 21.5998C20.2743 21.5998 19.1998 22.6743 19.1998 23.9998C19.1998 25.3253 20.2743 26.3998 21.5998 26.3998V33.5998C21.5998 34.9253 22.6743 35.9998 23.9998 35.9998H26.3998C27.7253 35.9998 28.7998 34.9253 28.7998 33.5998C28.7998 32.2743 27.7253 31.1998 26.3998 31.1998V23.9998C26.3998 22.6743 25.3253 21.5998 23.9998 21.5998H21.5998Z" fill="url(#paint0_linear_26862_163560)"/>
<defs>
<linearGradient id="paint0_linear_26862_163560" x1="-0.960196" y1="4.7998" x2="57.5809" y2="22.1585" gradientUnits="userSpaceOnUse">
<stop stop-color="#A282E8"/>
<stop offset="0.484375" stop-color="#7E8EE7"/>
<stop offset="1" stop-color="#4499E9"/>
</linearGradient>
</defs>
</svg>
