<svg width="17" height="16" viewBox="0 0 17 16" fill="none" xmlns="http://www.w3.org/2000/svg">
<path d="M9.5 1C9.5 0.447715 9.05229 0 8.5 0C7.94771 0 7.5 0.447715 7.5 1V2C7.5 2.55228 7.94771 3 8.5 3C9.05229 3 9.5 2.55228 9.5 2V1Z" fill="#567191"/>
<path d="M14.1568 3.75731C14.5473 3.36678 14.5473 2.73362 14.1568 2.34309C13.7663 1.95257 13.1331 1.95257 12.7426 2.34309L12.0355 3.0502C11.645 3.44072 11.645 4.07389 12.0355 4.46441C12.426 4.85494 13.0592 4.85494 13.4497 4.46441L14.1568 3.75731Z" fill="#567191"/>
<path d="M16.5 8C16.5 8.55229 16.0523 9 15.5 9H14.5C13.9477 9 13.5 8.55228 13.5 8C13.5 7.44771 13.9477 7 14.5 7H15.5C16.0523 7 16.5 7.44771 16.5 8Z" fill="#567191"/>
<path d="M3.55019 4.46443C3.94071 4.85496 4.57388 4.85496 4.9644 4.46443C5.35493 4.07391 5.35493 3.44074 4.9644 3.05022L4.2573 2.34311C3.86677 1.95259 3.23361 1.95259 2.84308 2.34311C2.45256 2.73363 2.45256 3.3668 2.84308 3.75732L3.55019 4.46443Z" fill="#567191"/>
<path d="M3.5 8C3.5 8.55229 3.05228 9 2.5 9H1.5C0.947715 9 0.5 8.55228 0.5 8C0.5 7.44771 0.947715 7 1.5 7H2.5C3.05228 7 3.5 7.44771 3.5 8Z" fill="#567191"/>
<path d="M6.5 14V13H10.5V14C10.5 15.1046 9.60457 16 8.5 16C7.39543 16 6.5 15.1046 6.5 14Z" fill="#567191"/>
<path d="M10.5009 12C10.5155 11.6597 10.7076 11.3537 10.9768 11.1411C11.9046 10.4086 12.5 9.27384 12.5 8C12.5 5.79086 10.7091 4 8.5 4C6.29086 4 4.5 5.79086 4.5 8C4.5 9.27384 5.09545 10.4086 6.02319 11.1411C6.29241 11.3537 6.48451 11.6597 6.49911 12H10.5009Z" fill="#567191"/>
</svg>
