<svg width="18" height="18" viewBox="0 0 18 18" fill="none" xmlns="http://www.w3.org/2000/svg">
<path fill-rule="evenodd" clip-rule="evenodd" d="M8.71875 17.1875C13.3959 17.1875 17.1875 13.3959 17.1875 8.71875C17.1875 4.04159 13.3959 0.25 8.71875 0.25C4.04159 0.25 0.25 4.04159 0.25 8.71875C0.25 13.3959 4.04159 17.1875 8.71875 17.1875ZM13.2408 7.08734C13.7376 7.08734 14.1441 7.48932 14.1441 7.99067V8.894C14.1441 9.01144 14.1216 9.11984 14.0809 9.22372L12.7169 12.408C12.5814 12.7332 12.2607 12.959 11.8858 12.959H7.82081C7.58123 12.959 7.35146 12.8638 7.18206 12.6944C7.01265 12.525 6.91748 12.2952 6.91748 12.0557V7.539C6.91748 7.29059 7.01684 7.06475 7.18396 6.89764L10.1559 3.92567L10.6347 4.39992C10.7566 4.52187 10.8334 4.69351 10.8334 4.87869C10.8334 4.92837 10.8289 4.97806 10.8199 5.02322L10.3863 7.08734H13.2408ZM6.01414 12.959H4.20747V7.539H6.01414V12.959Z" fill="currentColor"/>
</svg>
