<svg width="16" height="16" viewBox="0 0 16 16" fill="none" xmlns="http://www.w3.org/2000/svg">
<path fill-rule="evenodd" clip-rule="evenodd" d="M8 16C12.4183 16 16 12.4183 16 8C16 3.58172 12.4183 0 8 0C3.58172 0 0 3.58172 0 8C0 12.4183 3.58172 16 8 16ZM7.25062 12.2708C7.18272 12.2708 7.11482 12.2573 7.04691 12.2303C6.88395 12.1627 6.77531 12.0006 6.77531 11.8114V11.0276H6.39506C5.3358 11.0276 4.13333 10.1492 4.13333 9.10867V7.68185V6.18975C4.13333 5.1357 5.3358 4.27083 6.39506 4.27083H9.87161C10.9309 4.27083 12.1333 5.1357 12.1333 6.18975V7.68185V9.10867C12.1333 10.1627 10.9309 11.0276 9.88519 11.0276H8.89383L7.56296 12.1627C7.4679 12.2303 7.35926 12.2708 7.25062 12.2708Z" fill="url(#paint0_linear_24304_16061206598)"/>
<defs>
<linearGradient id="paint0_linear_24304_16061206598" x1="-2.4" y1="-1.0816e-07" x2="21.9921" y2="7.23279" gradientUnits="userSpaceOnUse">
<stop stop-color="#A282E8"/>
<stop offset="0.484375" stop-color="#7E8EE7"/>
<stop offset="1" stop-color="#4499E9"/>
</linearGradient>
</defs>
</svg>
