<svg width="18" height="18" viewBox="0 0 18 18" fill="none" xmlns="http://www.w3.org/2000/svg">
<path fill-rule="evenodd" clip-rule="evenodd" d="M8.71875 17.1875C13.3959 17.1875 17.1875 13.3959 17.1875 8.71875C17.1875 4.04159 13.3959 0.25 8.71875 0.25C4.04159 0.25 0.25 4.04159 0.25 8.71875C0.25 13.3959 4.04159 17.1875 8.71875 17.1875ZM7.74717 7.60575C8.04364 7.30929 8.44573 7.14273 8.86499 7.14273C9.28426 7.14273 9.68635 7.30929 9.98281 7.60575C10.2793 7.90221 10.4458 8.3043 10.4458 8.72357C10.4458 9.14283 10.2793 9.54492 9.98281 9.84138C9.68635 10.1378 9.28426 10.3044 8.86499 10.3044C8.44573 10.3044 8.04364 10.1378 7.74717 9.84138C7.45071 9.54492 7.28416 9.14283 7.28416 8.72357C7.28416 8.3043 7.45071 7.90221 7.74717 7.60575ZM7.00196 10.5866C7.49607 11.0807 8.16622 11.3583 8.86499 11.3583C9.56376 11.3583 10.2339 11.0807 10.728 10.5866C11.2221 10.0925 11.4997 9.42234 11.4997 8.72357C11.4997 8.0248 11.2221 7.35464 10.728 6.86054C10.2339 6.36643 9.56376 6.08885 8.86499 6.08885C8.16622 6.08885 7.49607 6.36643 7.00196 6.86054C6.50786 7.35464 6.23027 8.0248 6.23027 8.72357C6.23027 9.42234 6.50786 10.0925 7.00196 10.5866ZM3.0686 8.72357C3.98022 6.41028 6.23027 4.77148 8.86499 4.77148C11.4997 4.77148 13.7498 6.41028 14.6614 8.72357C13.7498 11.0369 11.4997 12.6756 8.86499 12.6756C6.23027 12.6756 3.98022 11.0369 3.0686 8.72357Z" fill="currentColor"/>
</svg>
