<svg width="18" height="18" viewBox="0 0 18 18" fill="none" xmlns="http://www.w3.org/2000/svg">
<path fill-rule="evenodd" clip-rule="evenodd" d="M9.34375 17.1875C14.0209 17.1875 17.8125 13.3959 17.8125 8.71875C17.8125 4.04159 14.0209 0.25 9.34375 0.25C4.66659 0.25 0.875 4.04159 0.875 8.71875C0.875 13.3959 4.66659 17.1875 9.34375 17.1875ZM8.54994 13.2402C8.47806 13.2402 8.40618 13.2259 8.3343 13.1973C8.16179 13.1258 8.04678 12.9541 8.04678 12.7539V11.9241H7.64425C6.52293 11.9241 5.25 10.9943 5.25 9.89279V8.38236V6.80284C5.25 5.68702 6.52293 4.77148 7.64425 4.77148H11.3245C12.4458 4.77148 13.7188 5.68702 13.7188 6.80284V8.38236V9.89279C13.7188 11.0086 12.4458 11.9241 11.3389 11.9241H10.2894L8.88058 13.1258C8.77995 13.1973 8.66495 13.2402 8.54994 13.2402Z" fill="currentColor"/>
</svg>
