<svg width="18" height="18" viewBox="0 0 18 18" fill="none" xmlns="http://www.w3.org/2000/svg">
<path fill-rule="evenodd" clip-rule="evenodd" d="M8.72103 17.1921C13.3995 17.1921 17.1921 13.3995 17.1921 8.72103C17.1921 4.04261 13.3995 0.25 8.72103 0.25C4.04261 0.25 0.25 4.04261 0.25 8.72103C0.25 13.3995 4.04261 17.1921 8.72103 17.1921ZM12.276 10.707C11.5553 10.3466 10.6904 10.1228 9.67556 10.0324C9.3868 9.99118 9.08318 9.98457 8.76686 9.98457C8.66941 9.98628 8.57316 9.98904 8.47811 9.99285C8.37112 9.99598 8.26578 10.0012 8.16218 10.0097C7.04251 10.0846 6.09787 10.3145 5.32074 10.703C4.40746 11.1597 3.93255 11.7259 3.89602 12.42V13.0228C3.89602 13.3624 4.17133 13.6377 4.51094 13.6377H6.63994C6.65953 13.6404 6.6792 13.6417 6.69887 13.6417H7.81307H13.0858C13.4254 13.6417 13.7007 13.3664 13.7007 13.0268V12.424C13.6642 11.7299 13.1893 11.1636 12.276 10.707ZM8.76686 3.89602C9.44878 3.91428 10.0211 4.15174 10.4777 4.60838C10.9344 5.06502 11.1597 5.63735 11.1597 6.33144C11.1597 7.02554 10.9344 7.59786 10.4777 8.0545C10.0211 8.51114 9.44878 8.73642 8.76686 8.73642C8.08494 8.73642 7.51262 8.51114 7.05598 8.0545C6.59934 7.59786 6.37406 7.02554 6.37406 6.33144C6.37406 5.63735 6.59934 5.06502 7.05598 4.60838C7.51262 4.15174 8.08494 3.91428 8.76686 3.89602Z" fill="currentColor"/>
</svg>
