<svg width="14" height="14" viewBox="0 0 14 14" fill="none" xmlns="http://www.w3.org/2000/svg">
<path d="M9.07018 2.67019C9.69502 2.04535 10.7081 2.04535 11.3329 2.67019C11.9578 3.29503 11.9578 4.30809 11.3329 4.93293L8.93292 7.33293C8.30808 7.95777 7.29502 7.95777 6.67018 7.33293C6.35776 7.02051 5.85123 7.02051 5.53881 7.33293C5.22639 7.64535 5.22639 8.15188 5.53881 8.4643C6.78848 9.71398 8.81461 9.71398 10.0643 8.4643L12.4643 6.0643C13.714 4.81463 13.714 2.7885 12.4643 1.53882C11.2146 0.289143 9.18848 0.289143 7.93881 1.53882L6.73881 2.73882C6.42639 3.05124 6.42639 3.55777 6.73881 3.87019C7.05123 4.18261 7.55776 4.18261 7.87018 3.87019L9.07018 2.67019Z" fill="currentColor"/>
<path d="M5.07019 6.67019C5.69503 6.04535 6.70809 6.04535 7.33293 6.67019C7.64535 6.98261 8.15188 6.98261 8.4643 6.67019C8.77672 6.35777 8.77672 5.85124 8.4643 5.53882C7.21463 4.28914 5.1885 4.28914 3.93882 5.53882L1.53882 7.93882C0.289143 9.1885 0.289143 11.2146 1.53882 12.4643C2.7885 13.714 4.81463 13.714 6.0643 12.4643L7.2643 11.2643C7.57672 10.9519 7.57672 10.4454 7.2643 10.1329C6.95188 9.82051 6.44535 9.82051 6.13293 10.1329L4.93293 11.3329C4.30809 11.9578 3.29503 11.9578 2.67019 11.3329C2.04535 10.7081 2.04535 9.69503 2.67019 9.07019L5.07019 6.67019Z" fill="currentColor"/>
</svg>
