<svg width="16" height="16" viewBox="0 0 16 16" fill="none" xmlns="http://www.w3.org/2000/svg">
<path fill-rule="evenodd" clip-rule="evenodd" d="M8 16C12.4183 16 16 12.4183 16 8C16 3.58172 12.4183 0 8 0C3.58172 0 0 3.58172 0 8C0 12.4183 3.58172 16 8 16ZM12.2708 6.46167C12.7402 6.46167 13.1242 6.8414 13.1242 7.315V8.16833C13.1242 8.27926 13.1028 8.38166 13.0644 8.4798L11.7759 11.4878C11.6479 11.795 11.345 12.0083 10.9908 12.0083H7.15083C6.92452 12.0083 6.70747 11.9184 6.54744 11.7584C6.38741 11.5984 6.2975 11.3813 6.2975 11.155V6.88833C6.2975 6.65367 6.39137 6.44033 6.54923 6.28247L9.3567 3.475L9.80897 3.923C9.92417 4.0382 9.9967 4.20033 9.9967 4.37527C9.9967 4.4222 9.99244 4.46913 9.9839 4.5118L9.5743 6.46167H12.2708ZM5.44417 12.0083H3.7375V6.88833H5.44417V12.0083Z" fill="url(#paint0_linear_24304_16063134956247)"/>
<defs>
<linearGradient id="paint0_linear_24304_16063134956247" x1="-2.4" y1="-1.0816e-07" x2="21.9921" y2="7.23279" gradientUnits="userSpaceOnUse">
<stop stop-color="#A282E8"/>
<stop offset="0.484375" stop-color="#7E8EE7"/>
<stop offset="1" stop-color="#4499E9"/>
</linearGradient>
</defs>
</svg>
