<svg width="16" height="12" viewBox="0 0 16 12" fill="none" xmlns="http://www.w3.org/2000/svg">
<path d="M0.00325513 1.884L8.00026 5.882L15.9973 1.884C15.9677 1.37444 15.7443 0.895487 15.3731 0.545226C15.0018 0.194965 14.5107 -9.35846e-05 14.0003 3.3684e-08H2.00026C1.48984 -9.35846e-05 0.998702 0.194965 0.627433 0.545226C0.256163 0.895487 0.0328592 1.37444 0.00325513 1.884Z" fill="url(#paint0_linear_24858_174)"/>
<path d="M16 4.11719L8 8.11719L0 4.11719V9.99919C0 10.5296 0.210714 11.0383 0.585786 11.4134C0.960859 11.7885 1.46957 11.9992 2 11.9992H14C14.5304 11.9992 15.0391 11.7885 15.4142 11.4134C15.7893 11.0383 16 10.5296 16 9.99919V4.11719Z" fill="url(#paint1_linear_24858_174)"/>
<defs>
<linearGradient id="paint0_linear_24858_174" x1="-2.4" y1="-8.11146e-08" x2="20.5491" y2="9.07383" gradientUnits="userSpaceOnUse">
<stop stop-color="#A282E8"/>
<stop offset="0.484375" stop-color="#7E8EE7"/>
<stop offset="1" stop-color="#4499E9"/>
</linearGradient>
<linearGradient id="paint1_linear_24858_174" x1="-2.4" y1="-8.11146e-08" x2="20.5491" y2="9.07383" gradientUnits="userSpaceOnUse">
<stop stop-color="#A282E8"/>
<stop offset="0.484375" stop-color="#7E8EE7"/>
<stop offset="1" stop-color="#4499E9"/>
</linearGradient>
</defs>
</svg>
