<svg width="20" height="20" viewBox="0 0 20 20" fill="none" xmlns="http://www.w3.org/2000/svg">
<path fill-rule="evenodd" clip-rule="evenodd" d="M10.0003 9.882L2.00326 5.884C2.03286 5.37444 2.25616 4.89549 2.62743 4.54523C2.9987 4.19497 3.48984 3.99991 4.00026 4H16.0003C16.5107 3.99991 17.0018 4.19497 17.3731 4.54523C17.7443 4.89549 17.9677 5.37444 17.9973 5.884L10.0003 9.882ZM10 12.1172L18 8.11719V11.416C17.3875 11.1484 16.7111 11 16 11C13.2388 11 11.0004 13.2381 11 15.9992H4C3.46957 15.9992 2.96086 15.7885 2.58579 15.4134C2.21071 15.0383 2 14.5296 2 13.9992V8.11719L10 12.1172Z" fill="currentColor"/>
<path fill-rule="evenodd" clip-rule="evenodd" d="M16 12C13.7909 12 12 13.7909 12 16C12 18.2091 13.7909 20 16 20C18.2091 20 20 18.2091 20 16C20 13.7909 18.2091 12 16 12ZM15.6464 17.1464C15.4512 17.3417 15.4512 17.6583 15.6464 17.8536C15.8417 18.0488 16.1583 18.0488 16.3536 17.8536L17.8536 16.3536C18.0488 16.1583 18.0488 15.8417 17.8536 15.6464L16.3536 14.1464C16.1583 13.9512 15.8417 13.9512 15.6464 14.1464C15.4512 14.3417 15.4512 14.6583 15.6464 14.8536L16.2929 15.5H14.5C14.2239 15.5 14 15.7239 14 16C14 16.2761 14.2239 16.5 14.5 16.5L16.2929 16.5L15.6464 17.1464Z" fill="currentColor"/>
</svg>
