<svg width="16" height="15" viewBox="0 0 16 15" fill="none" xmlns="http://www.w3.org/2000/svg">
<path d="M3 9.5C3 10.0523 3.44771 10.5 4 10.5C4.55228 10.5 5 10.0523 5 9.5L5 3.91421L6.29289 5.20711C6.68342 5.59763 7.31658 5.59763 7.70711 5.20711C8.09763 4.81658 8.09763 4.18342 7.70711 3.79289L4.70711 0.792893C4.51957 0.605357 4.26522 0.5 4 0.5C3.73478 0.5 3.48043 0.605357 3.29289 0.792893L0.292893 3.79289C-0.0976311 4.18342 -0.0976311 4.81658 0.292893 5.20711C0.683417 5.59763 1.31658 5.59763 1.70711 5.20711L3 3.91421L3 9.5Z" fill="currentColor"/>
<path d="M13 5.5C13 4.94772 12.5523 4.5 12 4.5C11.4477 4.5 11 4.94772 11 5.5L11 11.0858L9.70711 9.79289C9.31658 9.40237 8.68342 9.40237 8.29289 9.79289C7.90237 10.1834 7.90237 10.8166 8.29289 11.2071L11.2929 14.2071C11.4804 14.3946 11.7348 14.5 12 14.5C12.2652 14.5 12.5196 14.3946 12.7071 14.2071L15.7071 11.2071C16.0976 10.8166 16.0976 10.1834 15.7071 9.79289C15.3166 9.40237 14.6834 9.40237 14.2929 9.79289L13 11.0858L13 5.5Z" fill="currentColor"/>
</svg>
