<svg width="73" height="74" viewBox="0 0 73 74" fill="none" xmlns="http://www.w3.org/2000/svg">
<path d="M65.4008 29.7748C65.4008 31.691 64.6396 33.5287 63.2846 34.8836C61.9297 36.2386 60.092 36.9998 58.1758 36.9998C56.2596 36.9998 54.4219 36.2386 53.0669 34.8836C51.712 33.5287 50.9508 31.691 50.9508 29.7748C50.9508 27.8586 51.712 26.0209 53.0669 24.666C54.4219 23.311 56.2596 22.5498 58.1758 22.5498C60.092 22.5498 61.9297 23.311 63.2846 24.666C64.6396 26.0209 65.4008 27.8586 65.4008 29.7748ZM22.0508 29.7748C22.0508 31.691 21.2896 33.5287 19.9346 34.8836C18.5797 36.2386 16.742 36.9998 14.8258 36.9998C12.9096 36.9998 11.0719 36.2386 9.71694 34.8836C8.36199 33.5287 7.60078 31.691 7.60078 29.7748C7.60078 27.8586 8.36199 26.0209 9.71694 24.666C11.0719 23.311 12.9096 22.5498 14.8258 22.5498C16.742 22.5498 18.5797 23.311 19.9346 24.666C21.2896 26.0209 22.0508 27.8586 22.0508 29.7748ZM58.1758 65.8998V55.0623C58.181 51.3894 57.2484 47.776 55.4664 44.5644C57.068 44.1545 58.7421 44.1159 60.3608 44.4514C61.9796 44.7869 63.5004 45.4877 64.8072 46.5004C66.114 47.513 67.1722 48.8107 67.9011 50.2946C68.63 51.7784 69.0104 53.4091 69.0133 55.0623V65.8998H58.1758ZM17.5352 44.5644C15.7533 47.7761 14.8207 51.3894 14.8258 55.0623V65.8998H3.98828V55.0623C3.98759 53.4079 4.36566 51.7753 5.09352 50.2897C5.82138 48.804 6.8797 47.5047 8.18739 46.4913C9.49508 45.478 11.0174 44.7774 12.6377 44.4434C14.258 44.1094 15.9333 44.1508 17.5352 44.5644Z" fill="#F6F6F6"/>
<path d="M44.164 30.2137C46.1965 28.1812 47.3383 25.4247 47.3383 22.5504C47.3383 19.6761 46.1965 16.9195 44.164 14.8871C42.1316 12.8547 39.3751 11.7129 36.5008 11.7129C33.6265 11.7129 30.8699 12.8547 28.8375 14.8871C26.8051 16.9195 25.6633 19.6761 25.6633 22.5504C25.6633 25.4247 26.8051 28.1812 28.8375 30.2137C30.8699 32.2461 33.6265 33.3879 36.5008 33.3879C39.3751 33.3879 42.1316 32.2461 44.164 30.2137Z" fill="#DCE2E4"/>
<path d="M46.7185 44.8452C49.4284 47.5551 50.9508 51.2305 50.9508 55.0629V65.9004H22.0508V55.0629C22.0508 51.2305 23.5732 47.5551 26.2831 44.8452C28.993 42.1353 32.6684 40.6129 36.5008 40.6129C40.3332 40.6129 44.0086 42.1353 46.7185 44.8452Z" fill="#DCE2E4"/>
</svg>
