<svg width="17" height="16" viewBox="0 0 17 16" fill="none" xmlns="http://www.w3.org/2000/svg">
<path fill-rule="evenodd" clip-rule="evenodd" d="M8.6665 16C13.0848 16 16.6665 12.4183 16.6665 8C16.6665 3.58172 13.0848 0 8.6665 0C4.24823 0 0.666504 3.58172 0.666504 8C0.666504 12.4183 4.24823 16 8.6665 16ZM8.2212 5.16795C7.91435 4.96338 7.5198 4.94431 7.19465 5.11833C6.86949 5.29235 6.6665 5.63121 6.6665 6V10C6.6665 10.3688 6.86949 10.7077 7.19465 10.8817C7.5198 11.0557 7.91435 11.0366 8.2212 10.8321L11.2212 8.83205C11.4994 8.64659 11.6665 8.33435 11.6665 8C11.6665 7.66565 11.4994 7.35342 11.2212 7.16795L8.2212 5.16795Z" fill="url(#paint0_linear_21613_1242)"/>
<defs>
<linearGradient id="paint0_linear_21613_1242" x1="16.6665" y1="16" x2="0.666504" y2="0" gradientUnits="userSpaceOnUse">
<stop stop-color="#40E0CF"/>
<stop offset="1" stop-color="#36CDCF"/>
</linearGradient>
</defs>
</svg>
