<svg width="12" height="16" viewBox="0 0 12 16" fill="none" xmlns="http://www.w3.org/2000/svg">
<path fill-rule="evenodd" clip-rule="evenodd" d="M7.0409 0.836872C7.37393 0.941849 7.60039 1.25069 7.60039 1.59986V5.59986L10.8004 5.59986C11.0987 5.59986 11.3722 5.76583 11.51 6.03041C11.6477 6.295 11.6268 6.61426 11.4558 6.85863L5.85578 14.8586C5.65554 15.1447 5.2929 15.2678 4.95988 15.1629C4.62686 15.0579 4.40039 14.749 4.40039 14.3999V10.3999H1.20039C0.902093 10.3999 0.628568 10.2339 0.49081 9.96931C0.353052 9.70473 0.373943 9.38547 0.545007 9.14109L6.14501 1.14109C6.34525 0.855037 6.70788 0.731896 7.0409 0.836872Z" fill="url(#paint0_linear_19575_6634)"/>
<defs>
<linearGradient id="paint0_linear_19575_6634" x1="-1.27961" y1="0.799805" x2="16.358" y2="4.86751" gradientUnits="userSpaceOnUse">
<stop stop-color="#A282E8"/>
<stop offset="0.484375" stop-color="#7E8EE7"/>
<stop offset="1" stop-color="#4499E9"/>
</linearGradient>
</defs>
</svg>
