<svg width="40" height="40" viewBox="0 0 40 40" fill="none" xmlns="http://www.w3.org/2000/svg">
<path fill-rule="evenodd" clip-rule="evenodd" d="M39.1998 19.9998C39.1998 30.6037 30.6037 39.1998 19.9998 39.1998C9.39594 39.1998 0.799805 30.6037 0.799805 19.9998C0.799805 9.39594 9.39594 0.799805 19.9998 0.799805C30.6037 0.799805 39.1998 9.39594 39.1998 19.9998ZM19.9998 12.7998C19.1145 12.7998 18.338 13.2779 17.9194 14.0015C17.2557 15.1489 15.7876 15.541 14.6403 14.8773C13.4929 14.2136 13.1008 12.7454 13.7645 11.5981C15.0058 9.45224 17.3318 7.9998 19.9998 7.9998C23.9763 7.9998 27.1998 11.2234 27.1998 15.1998C27.1998 18.3347 25.1963 21.0017 22.3998 21.9901V22.3998C22.3998 23.7253 21.3253 24.7998 19.9998 24.7998C18.6744 24.7998 17.5998 23.7253 17.5998 22.3998V19.9998C17.5998 18.6743 18.6744 17.5998 19.9998 17.5998C21.3253 17.5998 22.3998 16.5253 22.3998 15.1998C22.3998 13.8743 21.3253 12.7998 19.9998 12.7998ZM19.9998 31.9998C21.3253 31.9998 22.3998 30.9253 22.3998 29.5998C22.3998 28.2743 21.3253 27.1998 19.9998 27.1998C18.6743 27.1998 17.5998 28.2743 17.5998 29.5998C17.5998 30.9253 18.6743 31.9998 19.9998 31.9998Z" fill="url(#paint0_linear_20409_22952)"/>
<defs>
<linearGradient id="paint0_linear_20409_22952" x1="-4.9602" y1="0.799804" x2="53.5809" y2="18.1585" gradientUnits="userSpaceOnUse">
<stop stop-color="#A282E8"/>
<stop offset="0.484375" stop-color="#7E8EE7"/>
<stop offset="1" stop-color="#4499E9"/>
</linearGradient>
</defs>
</svg>
