<svg width="20" height="20" viewBox="0 0 20 20" fill="none" xmlns="http://www.w3.org/2000/svg">
<rect opacity="0.01" width="20" height="20" fill="#567191"/>
<path fill-rule="evenodd" clip-rule="evenodd" d="M3.87651 16.1235C0.140954 12.388 -0.187746 6.92485 3.06919 2.76632L3.28418 2.5V2.5L6.77113 5.98695L6.65836 6.14682V6.14682C5.07053 8.47369 5.64059 11.0194 7.3106 12.6894C8.96151 14.3404 11.4682 14.9163 13.7733 13.3953L14.0131 13.2289V13.2289L17.5 16.7159L17.1801 16.9724V16.9724L17.1246 17.0152C12.98 20.1818 7.57948 19.8265 3.87651 16.1235Z" fill="#567191"/>
<path fill-rule="evenodd" clip-rule="evenodd" d="M11.1709 3.17085C11.3987 2.94305 11.768 2.94305 11.9958 3.17085L14.5 5.67504L17.0042 3.17085C17.232 2.94305 17.6013 2.94305 17.8291 3.17085C18.057 3.39866 18.057 3.76801 17.8291 3.99581L15.325 6.5L17.8291 9.00419C18.057 9.23199 18.057 9.60134 17.8291 9.82915C17.6013 10.057 17.232 10.057 17.0042 9.82915L14.5 7.32496L11.9958 9.82915C11.768 10.057 11.3987 10.057 11.1709 9.82915C10.943 9.60134 10.943 9.23199 11.1709 9.00419L13.675 6.5L11.1709 3.99581C10.943 3.76801 10.943 3.39866 11.1709 3.17085Z" fill="#567191"/>
</svg>
