<svg width="10" height="14" viewBox="0 0 10 14" fill="none" xmlns="http://www.w3.org/2000/svg">
<path d="M7.4987 10.1843C7.94073 10.1843 8.36465 10.3599 8.67721 10.6725C8.98977 10.985 9.16536 11.409 9.16536 11.851C9.16536 12.293 8.98977 12.7169 8.67721 13.0295C8.36465 13.3421 7.94073 13.5177 7.4987 13.5177C7.05667 13.5177 6.63275 13.3421 6.32019 13.0295C6.00763 12.7169 5.83203 12.293 5.83203 11.851C5.83203 11.409 6.00763 10.985 6.32019 10.6725C6.63275 10.3599 7.05667 10.1843 7.4987 10.1843ZM7.4987 5.18433C7.94073 5.18433 8.36465 5.35992 8.67721 5.67248C8.98977 5.98504 9.16536 6.40897 9.16536 6.85099C9.16536 7.29302 8.98977 7.71694 8.67721 8.0295C8.36465 8.34206 7.94073 8.51766 7.4987 8.51766C7.05667 8.51766 6.63275 8.34206 6.32019 8.0295C6.00763 7.71694 5.83203 7.29302 5.83203 6.85099C5.83203 6.40897 6.00763 5.98504 6.32019 5.67248C6.63275 5.35992 7.05667 5.18433 7.4987 5.18433ZM7.4987 0.184326C7.94073 0.184326 8.36465 0.359921 8.67721 0.672481C8.98977 0.985042 9.16536 1.40897 9.16536 1.85099C9.16536 2.29302 8.98977 2.71694 8.67721 3.0295C8.36465 3.34206 7.94073 3.51766 7.4987 3.51766C7.05667 3.51766 6.63275 3.34206 6.32019 3.0295C6.00763 2.71694 5.83203 2.29302 5.83203 1.85099C5.83203 1.40897 6.00763 0.985042 6.32019 0.672481C6.63275 0.359921 7.05667 0.184326 7.4987 0.184326Z" fill="url(#paint0_linear_23791_799938402394)"/>
<path d="M2.31706 10.1843C2.75908 10.1843 3.18301 10.3599 3.49557 10.6725C3.80813 10.985 3.98372 11.409 3.98372 11.851C3.98372 12.293 3.80813 12.7169 3.49557 13.0295C3.18301 13.3421 2.75908 13.5177 2.31706 13.5177C1.87503 13.5177 1.45111 13.3421 1.13855 13.0295C0.825986 12.7169 0.650391 12.293 0.650391 11.851C0.650391 11.409 0.825986 10.985 1.13855 10.6725C1.45111 10.3599 1.87503 10.1843 2.31706 10.1843ZM2.31706 5.18433C2.75908 5.18433 3.18301 5.35992 3.49557 5.67248C3.80813 5.98504 3.98372 6.40897 3.98372 6.85099C3.98372 7.29302 3.80813 7.71694 3.49557 8.0295C3.18301 8.34206 2.75908 8.51766 2.31706 8.51766C1.87503 8.51766 1.45111 8.34206 1.13855 8.0295C0.825986 7.71694 0.650391 7.29302 0.650391 6.85099C0.650391 6.40897 0.825986 5.98504 1.13855 5.67248C1.45111 5.35992 1.87503 5.18433 2.31706 5.18433ZM2.31706 0.184326C2.75908 0.184326 3.18301 0.359921 3.49557 0.672481C3.80813 0.985042 3.98372 1.40897 3.98372 1.85099C3.98372 2.29302 3.80813 2.71694 3.49557 3.0295C3.18301 3.34206 2.75908 3.51766 2.31706 3.51766C1.87503 3.51766 1.45111 3.34206 1.13855 3.0295C0.825986 2.71694 0.650391 2.29302 0.650391 1.85099C0.650391 1.40897 0.825986 0.985042 1.13855 0.672481C1.45111 0.359921 1.87503 0.184326 2.31706 0.184326Z" fill="url(#paint1_linear_23791_7999287432)"/>
<defs>
<linearGradient id="paint0_linear_23791_799938402394" x1="5.33203" y1="0.184326" x2="10.8303" y2="0.591917" gradientUnits="userSpaceOnUse">
<stop stop-color="#A282E8"/>
<stop offset="0.484375" stop-color="#7E8EE7"/>
<stop offset="1" stop-color="#4499E9"/>
</linearGradient>
<linearGradient id="paint1_linear_23791_7999287432" x1="0.150391" y1="0.184326" x2="5.64868" y2="0.591917" gradientUnits="userSpaceOnUse">
<stop stop-color="#A282E8"/>
<stop offset="0.484375" stop-color="#7E8EE7"/>
<stop offset="1" stop-color="#4499E9"/>
</linearGradient>
</defs>
</svg>
