<svg class="ck ck-icon ck-button__icon" viewBox="0 0 20 20">
<path d="M9.991 0.832031C4.931 0.832031 0.833496 4.9387 0.833496 9.9987C0.833496 15.0587 4.931 19.1654 9.991 19.1654C15.0602 19.1654 19.1668 15.0587 19.1668 9.9987C19.1668 4.9387 15.0602 0.832031 9.991 0.832031ZM10.0002 17.332C5.9485 17.332 2.66683 14.0504 2.66683 9.9987C2.66683 5.94703 5.9485 2.66536 10.0002 2.66536C14.0518 2.66536 17.3335 5.94703 17.3335 9.9987C17.3335 14.0504 14.0518 17.332 10.0002 17.332ZM13.2085 9.08203C13.9693 9.08203 14.5835 8.46786 14.5835 7.70703C14.5835 6.9462 13.9693 6.33203 13.2085 6.33203C12.4477 6.33203 11.8335 6.9462 11.8335 7.70703C11.8335 8.46786 12.4477 9.08203 13.2085 9.08203ZM6.79183 9.08203C7.55266 9.08203 8.16683 8.46786 8.16683 7.70703C8.16683 6.9462 7.55266 6.33203 6.79183 6.33203C6.031 6.33203 5.41683 6.9462 5.41683 7.70703C5.41683 8.46786 6.031 9.08203 6.79183 9.08203ZM10.0002 15.0404C12.136 15.0404 13.951 13.702 14.6843 11.832H5.316C6.04933 13.702 7.86433 15.0404 10.0002 15.0404Z" fill="#8193A8"></path>
</svg>