<svg width="16" height="17" viewBox="0 0 16 17" fill="none" xmlns="http://www.w3.org/2000/svg">
<path d="M3.75 3C3.28587 3 2.84075 3.18437 2.51256 3.51256C2.18437 3.84075 2 4.28587 2 4.75C2 5.21413 2.18437 5.65925 2.51256 5.98744C2.84075 6.31563 3.28587 6.5 3.75 6.5H12.25C12.7141 6.5 13.1592 6.31563 13.4874 5.98744C13.8156 5.65925 14 5.21413 14 4.75C14 4.28587 13.8156 3.84075 13.4874 3.51256C13.1592 3.18437 12.7141 3 12.25 3H3.75ZM2.5 8C2.36739 8 2.24021 8.05268 2.14645 8.14645C2.05268 8.24022 2 8.36739 2 8.5C2 8.63261 2.05268 8.75979 2.14645 8.85355C2.24021 8.94732 2.36739 9 2.5 9H13.5C13.6326 9 13.7598 8.94732 13.8536 8.85355C13.9473 8.75979 14 8.63261 14 8.5C14 8.36739 13.9473 8.24022 13.8536 8.14645C13.7598 8.05268 13.6326 8 13.5 8H2.5ZM2 11C2 10.8674 2.05268 10.7402 2.14645 10.6464C2.24021 10.5527 2.36739 10.5 2.5 10.5H13.5C13.6326 10.5 13.7598 10.5527 13.8536 10.6464C13.9473 10.7402 14 10.8674 14 11C14 11.1326 13.9473 11.2598 13.8536 11.3536C13.7598 11.4473 13.6326 11.5 13.5 11.5H2.5C2.36739 11.5 2.24021 11.4473 2.14645 11.3536C2.05268 11.2598 2 11.1326 2 11ZM2.5 13C2.36739 13 2.24021 13.0527 2.14645 13.1464C2.05268 13.2402 2 13.3674 2 13.5C2 13.6326 2.05268 13.7598 2.14645 13.8536C2.24021 13.9473 2.36739 14 2.5 14H13.5C13.6326 14 13.7598 13.9473 13.8536 13.8536C13.9473 13.7598 14 13.6326 14 13.5C14 13.3674 13.9473 13.2402 13.8536 13.1464C13.7598 13.0527 13.6326 13 13.5 13H2.5Z" fill="currentColor"/>
</svg>
