<svg width="590" height="96" viewBox="0 0 590 96" fill="none" xmlns="http://www.w3.org/2000/svg">
<rect width="590" height="96" rx="20" fill="url(#paint0_linear_15244_1041343408573)" fill-opacity="0.1"/>
<path fill-rule="evenodd" clip-rule="evenodd" d="M93 43C68.1491 43 48.6386 26.0121 44.231 1.38694C44.1487 0.92727 44 0 44 0L68.6243 0.000452087C68.6243 0.000452087 68.7862 0.555898 68.8725 0.828952C72.5233 12.3882 82.4395 18.3654 93 18.3654C103.578 18.3654 113.51 12.4932 117.146 0.848072C117.233 0.568703 117.396 0.000152977 117.396 0.000152977L142 0C142 0 141.876 0.775207 141.809 1.16005C137.481 25.9077 117.927 43 93 43Z" fill="url(#paint1_linear_15244_104134348750394)" fill-opacity="0.2"/>
<path fill-rule="evenodd" clip-rule="evenodd" d="M501 42C531.937 42 556.225 63.3336 561.712 94.2583C561.815 94.8355 562 96 562 96L531.345 95.9994C531.345 95.9994 531.144 95.3019 531.036 94.959C526.491 80.4427 514.147 72.9365 501 72.9365C487.831 72.9365 475.468 80.3108 470.941 94.935C470.832 95.2858 470.629 95.9998 470.629 95.9998L440 96C440 96 440.154 95.0265 440.238 94.5432C445.626 63.4647 469.968 42 501 42Z" fill="url(#paint2_linear_15244_104134398764893)" fill-opacity="0.2"/>
<circle cx="296" cy="25" r="15" fill="url(#paint3_linear_15244_1041343056873049)"/>
<path fill-rule="evenodd" clip-rule="evenodd" d="M296 33C300.418 33 304 29.4183 304 25C304 20.5817 300.418 17 296 17C291.582 17 288 20.5817 288 25C288 29.4183 291.582 33 296 33ZM297 21C297 20.4477 296.552 20 296 20C295.448 20 295 20.4477 295 21V25C295 25.2652 295.105 25.5196 295.293 25.7071L298.121 28.5355C298.512 28.9261 299.145 28.9261 299.536 28.5355C299.926 28.145 299.926 27.5118 299.536 27.1213L297 24.5858V21Z" fill="white"/>
<path d="M151.829 65L149.423 57.1592H149.361C149.37 57.346 149.384 57.6286 149.402 58.0068C149.425 58.3805 149.446 58.7793 149.464 59.2031C149.482 59.627 149.491 60.0098 149.491 60.3516V65H147.598V55.0059H150.482L152.848 62.6484H152.889L155.397 55.0059H158.282V65H156.307V60.2695C156.307 59.9551 156.311 59.5928 156.32 59.1826C156.334 58.7725 156.35 58.3828 156.368 58.0137C156.386 57.64 156.4 57.3597 156.409 57.1729H156.348L153.771 65H151.829ZM163.771 57.2002C164.797 57.2002 165.583 57.4235 166.13 57.8701C166.677 58.3167 166.95 58.9958 166.95 59.9072V65H165.494L165.091 63.9609H165.036C164.817 64.2344 164.594 64.4577 164.366 64.6309C164.138 64.804 163.876 64.9316 163.58 65.0137C163.284 65.0957 162.924 65.1367 162.5 65.1367C162.049 65.1367 161.643 65.0501 161.283 64.877C160.928 64.7038 160.647 64.4395 160.442 64.084C160.237 63.724 160.135 63.2682 160.135 62.7168C160.135 61.9056 160.42 61.3086 160.989 60.9258C161.559 60.5384 162.413 60.3242 163.553 60.2832L164.879 60.2422V59.9072C164.879 59.5062 164.774 59.2122 164.564 59.0254C164.355 58.8385 164.063 58.7451 163.689 58.7451C163.32 58.7451 162.958 58.7975 162.603 58.9023C162.247 59.0072 161.892 59.1393 161.536 59.2988L160.846 57.8906C161.251 57.6764 161.705 57.5078 162.206 57.3848C162.712 57.2617 163.234 57.2002 163.771 57.2002ZM164.879 61.459L164.072 61.4863C163.398 61.5046 162.928 61.6253 162.664 61.8486C162.404 62.0719 162.274 62.3659 162.274 62.7305C162.274 63.0495 162.368 63.2773 162.555 63.4141C162.742 63.5462 162.985 63.6123 163.286 63.6123C163.733 63.6123 164.109 63.4801 164.414 63.2158C164.724 62.9515 164.879 62.5755 164.879 62.0879V61.459ZM171.188 57.3574V65H169.104V57.3574H171.188ZM170.149 54.3633C170.459 54.3633 170.726 54.4362 170.949 54.582C171.173 54.7233 171.284 54.9899 171.284 55.3818C171.284 55.7692 171.173 56.0381 170.949 56.1885C170.726 56.3343 170.459 56.4072 170.149 56.4072C169.835 56.4072 169.566 56.3343 169.343 56.1885C169.124 56.0381 169.015 55.7692 169.015 55.3818C169.015 54.9899 169.124 54.7233 169.343 54.582C169.566 54.4362 169.835 54.3633 170.149 54.3633ZM175.468 65H173.383V54.3633H175.468V65ZM186.631 62.7305C186.631 63.25 186.508 63.6898 186.262 64.0498C186.02 64.4053 185.658 64.6764 185.175 64.8633C184.692 65.0456 184.09 65.1367 183.37 65.1367C182.837 65.1367 182.379 65.1025 181.996 65.0342C181.618 64.9658 181.235 64.8519 180.848 64.6924V62.9697C181.262 63.1566 181.707 63.3115 182.181 63.4346C182.659 63.5531 183.078 63.6123 183.438 63.6123C183.844 63.6123 184.133 63.5531 184.307 63.4346C184.484 63.3115 184.573 63.152 184.573 62.9561C184.573 62.8285 184.537 62.7145 184.464 62.6143C184.396 62.5094 184.245 62.3932 184.013 62.2656C183.78 62.1335 183.416 61.9626 182.919 61.7529C182.44 61.5524 182.046 61.3496 181.736 61.1445C181.431 60.9395 181.203 60.6979 181.053 60.4199C180.907 60.1374 180.834 59.7796 180.834 59.3467C180.834 58.6403 181.107 58.1094 181.654 57.7539C182.206 57.3939 182.942 57.2139 183.862 57.2139C184.336 57.2139 184.787 57.2617 185.216 57.3574C185.649 57.4531 186.093 57.6058 186.549 57.8154L185.92 59.3193C185.542 59.1553 185.184 59.0208 184.847 58.916C184.514 58.8112 184.174 58.7588 183.828 58.7588C183.523 58.7588 183.293 58.7998 183.138 58.8818C182.983 58.9639 182.905 59.0892 182.905 59.2578C182.905 59.3809 182.944 59.4902 183.021 59.5859C183.104 59.6816 183.258 59.7887 183.486 59.9072C183.719 60.0212 184.058 60.1693 184.505 60.3516C184.938 60.5293 185.314 60.7161 185.633 60.9121C185.952 61.1035 186.198 61.3428 186.371 61.6299C186.544 61.9124 186.631 62.2793 186.631 62.7305ZM191.361 65.1367C190.605 65.1367 189.96 65 189.427 64.7266C188.894 64.4486 188.488 64.0202 188.21 63.4414C187.932 62.8626 187.793 62.1221 187.793 61.2197C187.793 60.2855 187.95 59.5244 188.265 58.9365C188.584 58.3441 189.023 57.9089 189.584 57.6309C190.149 57.3529 190.803 57.2139 191.546 57.2139C192.075 57.2139 192.53 57.2663 192.913 57.3711C193.3 57.4714 193.638 57.5921 193.925 57.7334L193.31 59.3467C192.981 59.2145 192.676 59.1074 192.394 59.0254C192.111 58.9388 191.828 58.8955 191.546 58.8955C191.181 58.8955 190.878 58.9821 190.637 59.1553C190.395 59.3239 190.215 59.5791 190.097 59.9209C189.978 60.2627 189.919 60.6911 189.919 61.2061C189.919 61.7119 189.983 62.1312 190.11 62.4639C190.238 62.7965 190.423 63.0449 190.664 63.209C190.906 63.3685 191.2 63.4482 191.546 63.4482C191.979 63.4482 192.364 63.3913 192.701 63.2773C193.038 63.1589 193.367 62.9948 193.686 62.7852V64.5693C193.367 64.7699 193.032 64.9134 192.681 65C192.334 65.0911 191.895 65.1367 191.361 65.1367ZM197.548 54.3633V56.5303C197.548 56.9085 197.534 57.2686 197.507 57.6104C197.484 57.9521 197.466 58.1937 197.452 58.335H197.562C197.726 58.0706 197.919 57.8564 198.143 57.6924C198.37 57.5283 198.621 57.4076 198.895 57.3301C199.168 57.2526 199.462 57.2139 199.776 57.2139C200.328 57.2139 200.809 57.3118 201.219 57.5078C201.629 57.6992 201.948 58.0023 202.176 58.417C202.404 58.8271 202.518 59.3604 202.518 60.0166V65H200.433V60.5361C200.433 59.9893 200.332 59.5768 200.132 59.2988C199.931 59.0208 199.621 58.8818 199.202 58.8818C198.783 58.8818 198.452 58.9798 198.211 59.1758C197.969 59.3672 197.799 59.652 197.698 60.0303C197.598 60.404 197.548 60.862 197.548 61.4043V65H195.463V54.3633H197.548ZM207.815 57.2139C208.522 57.2139 209.13 57.3506 209.641 57.624C210.151 57.8929 210.545 58.2848 210.823 58.7998C211.101 59.3148 211.24 59.9437 211.24 60.6865V61.6982H206.312C206.334 62.2861 206.51 62.7487 206.838 63.0859C207.171 63.4186 207.631 63.585 208.219 63.585C208.706 63.585 209.153 63.5348 209.559 63.4346C209.964 63.3343 210.381 63.1839 210.81 62.9834V64.5967C210.431 64.7835 210.035 64.9202 209.62 65.0068C209.21 65.0934 208.711 65.1367 208.123 65.1367C207.357 65.1367 206.678 64.9954 206.086 64.7129C205.498 64.4303 205.035 63.9997 204.698 63.4209C204.366 62.8421 204.199 62.113 204.199 61.2334C204.199 60.3402 204.35 59.5973 204.65 59.0049C204.956 58.4079 205.38 57.9613 205.922 57.665C206.464 57.3643 207.095 57.2139 207.815 57.2139ZM207.829 58.6973C207.424 58.6973 207.086 58.8271 206.817 59.0869C206.553 59.3467 206.4 59.7546 206.359 60.3105H209.285C209.281 60.0007 209.224 59.7249 209.114 59.4834C209.009 59.2419 208.85 59.0505 208.636 58.9092C208.426 58.7679 208.157 58.6973 207.829 58.6973ZM215.355 65.1367C214.503 65.1367 213.808 64.804 213.271 64.1387C212.737 63.4688 212.471 62.4867 212.471 61.1924C212.471 59.8844 212.742 58.8955 213.284 58.2256C213.826 57.5511 214.535 57.2139 215.41 57.2139C215.775 57.2139 216.096 57.264 216.374 57.3643C216.652 57.4645 216.891 57.599 217.092 57.7676C217.297 57.9362 217.47 58.1253 217.611 58.335H217.68C217.652 58.1891 217.618 57.9749 217.577 57.6924C217.541 57.4053 217.522 57.1113 217.522 56.8105V54.3633H219.614V65H218.015L217.611 64.0088H217.522C217.39 64.2184 217.224 64.4098 217.023 64.583C216.827 64.7516 216.593 64.8861 216.319 64.9863C216.046 65.0866 215.725 65.1367 215.355 65.1367ZM216.087 63.4756C216.657 63.4756 217.058 63.307 217.29 62.9697C217.527 62.6279 217.652 62.1152 217.666 61.4316V61.2061C217.666 60.4632 217.552 59.8958 217.324 59.5039C217.096 59.1074 216.673 58.9092 216.053 58.9092C215.592 58.9092 215.232 59.1074 214.973 59.5039C214.713 59.9004 214.583 60.4723 214.583 61.2197C214.583 61.9671 214.713 62.5299 214.973 62.9082C215.237 63.2865 215.608 63.4756 216.087 63.4756ZM228.809 57.3574V65H227.209L226.929 64.0225H226.819C226.655 64.2822 226.45 64.4941 226.204 64.6582C225.958 64.8223 225.687 64.943 225.391 65.0205C225.094 65.098 224.787 65.1367 224.468 65.1367C223.921 65.1367 223.445 65.041 223.039 64.8496C222.633 64.6536 222.317 64.3506 222.089 63.9404C221.866 63.5303 221.754 62.9971 221.754 62.3408V57.3574H223.839V61.8213C223.839 62.3682 223.937 62.7806 224.133 63.0586C224.329 63.3366 224.641 63.4756 225.069 63.4756C225.493 63.4756 225.826 63.3799 226.067 63.1885C226.309 62.9925 226.478 62.7077 226.573 62.334C226.674 61.9557 226.724 61.4954 226.724 60.9531V57.3574H228.809ZM233.081 65H230.996V54.3633H233.081V65ZM238.427 57.2139C239.133 57.2139 239.742 57.3506 240.252 57.624C240.762 57.8929 241.157 58.2848 241.435 58.7998C241.713 59.3148 241.852 59.9437 241.852 60.6865V61.6982H236.923C236.946 62.2861 237.121 62.7487 237.449 63.0859C237.782 63.4186 238.242 63.585 238.83 63.585C239.318 63.585 239.764 63.5348 240.17 63.4346C240.576 63.3343 240.993 63.1839 241.421 62.9834V64.5967C241.043 64.7835 240.646 64.9202 240.231 65.0068C239.821 65.0934 239.322 65.1367 238.734 65.1367C237.969 65.1367 237.29 64.9954 236.697 64.7129C236.109 64.4303 235.647 63.9997 235.31 63.4209C234.977 62.8421 234.811 62.113 234.811 61.2334C234.811 60.3402 234.961 59.5973 235.262 59.0049C235.567 58.4079 235.991 57.9613 236.533 57.665C237.076 57.3643 237.707 57.2139 238.427 57.2139ZM238.44 58.6973C238.035 58.6973 237.698 58.8271 237.429 59.0869C237.164 59.3467 237.012 59.7546 236.971 60.3105H239.896C239.892 60.0007 239.835 59.7249 239.726 59.4834C239.621 59.2419 239.461 59.0505 239.247 58.9092C239.037 58.7679 238.769 58.6973 238.44 58.6973ZM245.967 65.1367C245.115 65.1367 244.42 64.804 243.882 64.1387C243.349 63.4688 243.082 62.4867 243.082 61.1924C243.082 59.8844 243.353 58.8955 243.896 58.2256C244.438 57.5511 245.146 57.2139 246.021 57.2139C246.386 57.2139 246.707 57.264 246.985 57.3643C247.263 57.4645 247.503 57.599 247.703 57.7676C247.908 57.9362 248.081 58.1253 248.223 58.335H248.291C248.264 58.1891 248.229 57.9749 248.188 57.6924C248.152 57.4053 248.134 57.1113 248.134 56.8105V54.3633H250.226V65H248.626L248.223 64.0088H248.134C248.002 64.2184 247.835 64.4098 247.635 64.583C247.439 64.7516 247.204 64.8861 246.931 64.9863C246.657 65.0866 246.336 65.1367 245.967 65.1367ZM246.698 63.4756C247.268 63.4756 247.669 63.307 247.901 62.9697C248.138 62.6279 248.264 62.1152 248.277 61.4316V61.2061C248.277 60.4632 248.163 59.8958 247.936 59.5039C247.708 59.1074 247.284 58.9092 246.664 58.9092C246.204 58.9092 245.844 59.1074 245.584 59.5039C245.324 59.9004 245.194 60.4723 245.194 61.2197C245.194 61.9671 245.324 62.5299 245.584 62.9082C245.848 63.2865 246.22 63.4756 246.698 63.4756ZM254.348 63.373L254.45 63.5303C254.368 63.8584 254.261 64.2116 254.129 64.5898C254.001 64.9681 253.86 65.3464 253.705 65.7246C253.555 66.1029 253.402 66.4629 253.247 66.8047H251.743C251.834 66.4355 251.923 66.0482 252.01 65.6426C252.096 65.237 252.176 64.8382 252.249 64.4463C252.326 64.0544 252.388 63.6966 252.434 63.373H254.348ZM263.255 63.4756C263.483 63.4756 263.704 63.4528 263.918 63.4072C264.137 63.3617 264.353 63.3047 264.567 63.2363V64.7881C264.344 64.8883 264.066 64.9704 263.733 65.0342C263.405 65.1025 263.045 65.1367 262.653 65.1367C262.198 65.1367 261.787 65.0638 261.423 64.918C261.063 64.7676 260.778 64.5101 260.568 64.1455C260.363 63.7764 260.261 63.2637 260.261 62.6074V58.9229H259.263V58.041L260.411 57.3438L261.013 55.7305H262.346V57.3574H264.485V58.9229H262.346V62.6074C262.346 62.8991 262.428 63.1178 262.592 63.2637C262.76 63.4049 262.981 63.4756 263.255 63.4756ZM269.25 57.2002C270.275 57.2002 271.062 57.4235 271.608 57.8701C272.155 58.3167 272.429 58.9958 272.429 59.9072V65H270.973L270.569 63.9609H270.515C270.296 64.2344 270.073 64.4577 269.845 64.6309C269.617 64.804 269.355 64.9316 269.059 65.0137C268.762 65.0957 268.402 65.1367 267.979 65.1367C267.527 65.1367 267.122 65.0501 266.762 64.877C266.406 64.7038 266.126 64.4395 265.921 64.084C265.716 63.724 265.613 63.2682 265.613 62.7168C265.613 61.9056 265.898 61.3086 266.468 60.9258C267.037 60.5384 267.892 60.3242 269.031 60.2832L270.357 60.2422V59.9072C270.357 59.5062 270.253 59.2122 270.043 59.0254C269.833 58.8385 269.542 58.7451 269.168 58.7451C268.799 58.7451 268.437 58.7975 268.081 58.9023C267.726 59.0072 267.37 59.1393 267.015 59.2988L266.324 57.8906C266.73 57.6764 267.183 57.5078 267.685 57.3848C268.19 57.2617 268.712 57.2002 269.25 57.2002ZM270.357 61.459L269.551 61.4863C268.876 61.5046 268.407 61.6253 268.143 61.8486C267.883 62.0719 267.753 62.3659 267.753 62.7305C267.753 63.0495 267.846 63.2773 268.033 63.4141C268.22 63.5462 268.464 63.6123 268.765 63.6123C269.211 63.6123 269.587 63.4801 269.893 63.2158C270.202 62.9515 270.357 62.5755 270.357 62.0879V61.459ZM279.914 62.7305C279.914 63.25 279.791 63.6898 279.545 64.0498C279.303 64.4053 278.941 64.6764 278.458 64.8633C277.975 65.0456 277.373 65.1367 276.653 65.1367C276.12 65.1367 275.662 65.1025 275.279 65.0342C274.901 64.9658 274.518 64.8519 274.131 64.6924V62.9697C274.546 63.1566 274.99 63.3115 275.464 63.4346C275.942 63.5531 276.362 63.6123 276.722 63.6123C277.127 63.6123 277.417 63.5531 277.59 63.4346C277.768 63.3115 277.856 63.152 277.856 62.9561C277.856 62.8285 277.82 62.7145 277.747 62.6143C277.679 62.5094 277.528 62.3932 277.296 62.2656C277.063 62.1335 276.699 61.9626 276.202 61.7529C275.724 61.5524 275.329 61.3496 275.02 61.1445C274.714 60.9395 274.486 60.6979 274.336 60.4199C274.19 60.1374 274.117 59.7796 274.117 59.3467C274.117 58.6403 274.391 58.1094 274.938 57.7539C275.489 57.3939 276.225 57.2139 277.146 57.2139C277.619 57.2139 278.071 57.2617 278.499 57.3574C278.932 57.4531 279.376 57.6058 279.832 57.8154L279.203 59.3193C278.825 59.1553 278.467 59.0208 278.13 58.916C277.797 58.8112 277.458 58.7588 277.111 58.7588C276.806 58.7588 276.576 58.7998 276.421 58.8818C276.266 58.9639 276.188 59.0892 276.188 59.2578C276.188 59.3809 276.227 59.4902 276.305 59.5859C276.387 59.6816 276.542 59.7887 276.77 59.9072C277.002 60.0212 277.341 60.1693 277.788 60.3516C278.221 60.5293 278.597 60.7161 278.916 60.9121C279.235 61.1035 279.481 61.3428 279.654 61.6299C279.827 61.9124 279.914 62.2793 279.914 62.7305ZM283.626 54.3633V59.1211C283.626 59.4082 283.615 59.6953 283.592 59.9824C283.569 60.2695 283.544 60.5566 283.517 60.8438H283.544C283.685 60.6432 283.829 60.445 283.975 60.249C284.125 60.0531 284.285 59.8639 284.453 59.6816L286.593 57.3574H288.944L285.909 60.6729L289.129 65H286.723L284.521 61.9033L283.626 62.6211V65H281.541V54.3633H283.626ZM300.142 65L299.554 62.3271C299.522 62.1676 299.469 61.9329 299.396 61.623C299.324 61.3086 299.244 60.9736 299.157 60.6182C299.075 60.2581 298.998 59.9255 298.925 59.6201C298.856 59.3148 298.806 59.0915 298.774 58.9502H298.713C298.681 59.0915 298.631 59.3148 298.562 59.6201C298.494 59.9255 298.417 60.2581 298.33 60.6182C298.248 60.9782 298.171 61.3177 298.098 61.6367C298.025 61.9512 297.97 62.1904 297.934 62.3545L297.318 65H295.076L292.902 57.3574H294.98L295.862 60.7412C295.922 60.9782 295.979 61.2607 296.033 61.5889C296.088 61.9124 296.136 62.2269 296.177 62.5322C296.222 62.833 296.257 63.0723 296.279 63.25H296.334C296.343 63.1178 296.361 62.9424 296.389 62.7236C296.421 62.5049 296.455 62.2793 296.491 62.0469C296.532 61.8099 296.569 61.598 296.601 61.4111C296.637 61.2197 296.664 61.0898 296.683 61.0215L297.626 57.3574H299.923L300.818 61.0215C300.85 61.1536 300.891 61.3633 300.941 61.6504C300.996 61.9375 301.044 62.2337 301.085 62.5391C301.126 62.8398 301.149 63.0768 301.153 63.25H301.208C301.226 63.0951 301.258 62.8649 301.304 62.5596C301.349 62.2542 301.402 61.9352 301.461 61.6025C301.525 61.2653 301.589 60.9782 301.652 60.7412L302.568 57.3574H304.612L302.411 65H300.142ZM307.935 57.3574V65H305.85V57.3574H307.935ZM306.896 54.3633C307.205 54.3633 307.472 54.4362 307.695 54.582C307.919 54.7233 308.03 54.9899 308.03 55.3818C308.03 55.7692 307.919 56.0381 307.695 56.1885C307.472 56.3343 307.205 56.4072 306.896 56.4072C306.581 56.4072 306.312 56.3343 306.089 56.1885C305.87 56.0381 305.761 55.7692 305.761 55.3818C305.761 54.9899 305.87 54.7233 306.089 54.582C306.312 54.4362 306.581 54.3633 306.896 54.3633ZM312.214 65H310.129V54.3633H312.214V65ZM316.493 65H314.408V54.3633H316.493V65ZM324.409 54.3633V56.8379C324.409 57.125 324.4 57.4098 324.382 57.6924C324.368 57.9749 324.35 58.1937 324.327 58.3486H324.409C324.61 58.0342 324.883 57.7676 325.229 57.5488C325.576 57.3255 326.025 57.2139 326.576 57.2139C327.433 57.2139 328.128 57.5488 328.661 58.2188C329.194 58.8887 329.461 59.8708 329.461 61.165C329.461 62.0355 329.338 62.7669 329.092 63.3594C328.846 63.9473 328.502 64.3916 328.06 64.6924C327.618 64.9886 327.105 65.1367 326.521 65.1367C325.961 65.1367 325.519 65.0365 325.195 64.8359C324.872 64.6354 324.61 64.4098 324.409 64.1592H324.266L323.917 65H322.324V54.3633H324.409ZM325.906 58.8818C325.542 58.8818 325.252 58.957 325.038 59.1074C324.824 59.2578 324.667 59.4834 324.566 59.7842C324.471 60.085 324.418 60.4655 324.409 60.9258V61.1514C324.409 61.8942 324.519 62.4639 324.737 62.8604C324.956 63.2523 325.355 63.4482 325.934 63.4482C326.362 63.4482 326.701 63.25 326.952 62.8535C327.207 62.457 327.335 61.8851 327.335 61.1377C327.335 60.3903 327.207 59.8275 326.952 59.4492C326.697 59.071 326.348 58.8818 325.906 58.8818ZM334.335 57.2139C335.041 57.2139 335.65 57.3506 336.16 57.624C336.671 57.8929 337.065 58.2848 337.343 58.7998C337.621 59.3148 337.76 59.9437 337.76 60.6865V61.6982H332.831C332.854 62.2861 333.029 62.7487 333.357 63.0859C333.69 63.4186 334.15 63.585 334.738 63.585C335.226 63.585 335.673 63.5348 336.078 63.4346C336.484 63.3343 336.901 63.1839 337.329 62.9834V64.5967C336.951 64.7835 336.554 64.9202 336.14 65.0068C335.729 65.0934 335.23 65.1367 334.643 65.1367C333.877 65.1367 333.198 64.9954 332.605 64.7129C332.018 64.4303 331.555 63.9997 331.218 63.4209C330.885 62.8421 330.719 62.113 330.719 61.2334C330.719 60.3402 330.869 59.5973 331.17 59.0049C331.475 58.4079 331.899 57.9613 332.441 57.665C332.984 57.3643 333.615 57.2139 334.335 57.2139ZM334.349 58.6973C333.943 58.6973 333.606 58.8271 333.337 59.0869C333.073 59.3467 332.92 59.7546 332.879 60.3105H335.805C335.8 60.0007 335.743 59.7249 335.634 59.4834C335.529 59.2419 335.369 59.0505 335.155 58.9092C334.946 58.7679 334.677 58.6973 334.349 58.6973ZM344.91 65L341.998 57.3574H344.179L345.655 61.7119C345.737 61.9671 345.801 62.236 345.847 62.5186C345.897 62.8011 345.931 63.054 345.949 63.2773H346.004C346.018 63.0358 346.049 62.7783 346.1 62.5049C346.154 62.2314 346.225 61.9671 346.312 61.7119L347.781 57.3574H349.962L347.05 65H344.91ZM354.193 57.2002C355.219 57.2002 356.005 57.4235 356.552 57.8701C357.099 58.3167 357.372 58.9958 357.372 59.9072V65H355.916L355.513 63.9609H355.458C355.239 64.2344 355.016 64.4577 354.788 64.6309C354.56 64.804 354.298 64.9316 354.002 65.0137C353.706 65.0957 353.346 65.1367 352.922 65.1367C352.471 65.1367 352.065 65.0501 351.705 64.877C351.35 64.7038 351.069 64.4395 350.864 64.084C350.659 63.724 350.557 63.2682 350.557 62.7168C350.557 61.9056 350.841 61.3086 351.411 60.9258C351.981 60.5384 352.835 60.3242 353.975 60.2832L355.301 60.2422V59.9072C355.301 59.5062 355.196 59.2122 354.986 59.0254C354.777 58.8385 354.485 58.7451 354.111 58.7451C353.742 58.7451 353.38 58.7975 353.024 58.9023C352.669 59.0072 352.313 59.1393 351.958 59.2988L351.268 57.8906C351.673 57.6764 352.127 57.5078 352.628 57.3848C353.134 57.2617 353.656 57.2002 354.193 57.2002ZM355.301 61.459L354.494 61.4863C353.82 61.5046 353.35 61.6253 353.086 61.8486C352.826 62.0719 352.696 62.3659 352.696 62.7305C352.696 63.0495 352.79 63.2773 352.977 63.4141C353.163 63.5462 353.407 63.6123 353.708 63.6123C354.155 63.6123 354.531 63.4801 354.836 63.2158C355.146 62.9515 355.301 62.5755 355.301 62.0879V61.459ZM361.61 65H359.525V54.3633H361.61V65ZM365.89 57.3574V65H363.805V57.3574H365.89ZM364.851 54.3633C365.16 54.3633 365.427 54.4362 365.65 54.582C365.874 54.7233 365.985 54.9899 365.985 55.3818C365.985 55.7692 365.874 56.0381 365.65 56.1885C365.427 56.3343 365.16 56.4072 364.851 56.4072C364.536 56.4072 364.267 56.3343 364.044 56.1885C363.825 56.0381 363.716 55.7692 363.716 55.3818C363.716 54.9899 363.825 54.7233 364.044 54.582C364.267 54.4362 364.536 54.3633 364.851 54.3633ZM370.504 65.1367C369.652 65.1367 368.957 64.804 368.419 64.1387C367.886 63.4688 367.619 62.4867 367.619 61.1924C367.619 59.8844 367.89 58.8955 368.433 58.2256C368.975 57.5511 369.684 57.2139 370.559 57.2139C370.923 57.2139 371.244 57.264 371.522 57.3643C371.8 57.4645 372.04 57.599 372.24 57.7676C372.445 57.9362 372.618 58.1253 372.76 58.335H372.828C372.801 58.1891 372.767 57.9749 372.726 57.6924C372.689 57.4053 372.671 57.1113 372.671 56.8105V54.3633H374.763V65H373.163L372.76 64.0088H372.671C372.539 64.2184 372.372 64.4098 372.172 64.583C371.976 64.7516 371.741 64.8861 371.468 64.9863C371.194 65.0866 370.873 65.1367 370.504 65.1367ZM371.235 63.4756C371.805 63.4756 372.206 63.307 372.438 62.9697C372.675 62.6279 372.801 62.1152 372.814 61.4316V61.2061C372.814 60.4632 372.701 59.8958 372.473 59.5039C372.245 59.1074 371.821 58.9092 371.201 58.9092C370.741 58.9092 370.381 59.1074 370.121 59.5039C369.861 59.9004 369.731 60.4723 369.731 61.2197C369.731 61.9671 369.861 62.5299 370.121 62.9082C370.385 63.2865 370.757 63.4756 371.235 63.4756ZM380.074 57.2002C381.1 57.2002 381.886 57.4235 382.433 57.8701C382.979 58.3167 383.253 58.9958 383.253 59.9072V65H381.797L381.394 63.9609H381.339C381.12 64.2344 380.897 64.4577 380.669 64.6309C380.441 64.804 380.179 64.9316 379.883 65.0137C379.587 65.0957 379.227 65.1367 378.803 65.1367C378.352 65.1367 377.946 65.0501 377.586 64.877C377.23 64.7038 376.95 64.4395 376.745 64.084C376.54 63.724 376.438 63.2682 376.438 62.7168C376.438 61.9056 376.722 61.3086 377.292 60.9258C377.862 60.5384 378.716 60.3242 379.855 60.2832L381.182 60.2422V59.9072C381.182 59.5062 381.077 59.2122 380.867 59.0254C380.658 58.8385 380.366 58.7451 379.992 58.7451C379.623 58.7451 379.261 58.7975 378.905 58.9023C378.55 59.0072 378.194 59.1393 377.839 59.2988L377.148 57.8906C377.554 57.6764 378.007 57.5078 378.509 57.3848C379.015 57.2617 379.536 57.2002 380.074 57.2002ZM381.182 61.459L380.375 61.4863C379.701 61.5046 379.231 61.6253 378.967 61.8486C378.707 62.0719 378.577 62.3659 378.577 62.7305C378.577 63.0495 378.671 63.2773 378.857 63.4141C379.044 63.5462 379.288 63.6123 379.589 63.6123C380.035 63.6123 380.411 63.4801 380.717 63.2158C381.027 62.9515 381.182 62.5755 381.182 62.0879V61.459ZM388.626 63.4756C388.854 63.4756 389.075 63.4528 389.289 63.4072C389.508 63.3617 389.724 63.3047 389.938 63.2363V64.7881C389.715 64.8883 389.437 64.9704 389.104 65.0342C388.776 65.1025 388.416 65.1367 388.024 65.1367C387.569 65.1367 387.159 65.0638 386.794 64.918C386.434 64.7676 386.149 64.5101 385.939 64.1455C385.734 63.7764 385.632 63.2637 385.632 62.6074V58.9229H384.634V58.041L385.782 57.3438L386.384 55.7305H387.717V57.3574H389.856V58.9229H387.717V62.6074C387.717 62.8991 387.799 63.1178 387.963 63.2637C388.132 63.4049 388.353 63.4756 388.626 63.4756ZM394.642 57.2139C395.348 57.2139 395.956 57.3506 396.467 57.624C396.977 57.8929 397.371 58.2848 397.649 58.7998C397.927 59.3148 398.066 59.9437 398.066 60.6865V61.6982H393.138C393.16 62.2861 393.336 62.7487 393.664 63.0859C393.997 63.4186 394.457 63.585 395.045 63.585C395.533 63.585 395.979 63.5348 396.385 63.4346C396.79 63.3343 397.207 63.1839 397.636 62.9834V64.5967C397.257 64.7835 396.861 64.9202 396.446 65.0068C396.036 65.0934 395.537 65.1367 394.949 65.1367C394.184 65.1367 393.505 64.9954 392.912 64.7129C392.324 64.4303 391.862 63.9997 391.524 63.4209C391.192 62.8421 391.025 62.113 391.025 61.2334C391.025 60.3402 391.176 59.5973 391.477 59.0049C391.782 58.4079 392.206 57.9613 392.748 57.665C393.29 57.3643 393.922 57.2139 394.642 57.2139ZM394.655 58.6973C394.25 58.6973 393.912 58.8271 393.644 59.0869C393.379 59.3467 393.227 59.7546 393.186 60.3105H396.111C396.107 60.0007 396.05 59.7249 395.94 59.4834C395.836 59.2419 395.676 59.0505 395.462 58.9092C395.252 58.7679 394.983 58.6973 394.655 58.6973ZM402.182 65.1367C401.329 65.1367 400.634 64.804 400.097 64.1387C399.563 63.4688 399.297 62.4867 399.297 61.1924C399.297 59.8844 399.568 58.8955 400.11 58.2256C400.653 57.5511 401.361 57.2139 402.236 57.2139C402.601 57.2139 402.922 57.264 403.2 57.3643C403.478 57.4645 403.717 57.599 403.918 57.7676C404.123 57.9362 404.296 58.1253 404.438 58.335H404.506C404.479 58.1891 404.444 57.9749 404.403 57.6924C404.367 57.4053 404.349 57.1113 404.349 56.8105V54.3633H406.44V65H404.841L404.438 64.0088H404.349C404.216 64.2184 404.05 64.4098 403.85 64.583C403.654 64.7516 403.419 64.8861 403.146 64.9863C402.872 65.0866 402.551 65.1367 402.182 65.1367ZM402.913 63.4756C403.483 63.4756 403.884 63.307 404.116 62.9697C404.353 62.6279 404.479 62.1152 404.492 61.4316V61.2061C404.492 60.4632 404.378 59.8958 404.15 59.5039C403.923 59.1074 403.499 58.9092 402.879 58.9092C402.419 58.9092 402.059 59.1074 401.799 59.5039C401.539 59.9004 401.409 60.4723 401.409 61.2197C401.409 61.9671 401.539 62.5299 401.799 62.9082C402.063 63.2865 402.435 63.4756 402.913 63.4756ZM417.59 62.7305C417.59 63.25 417.467 63.6898 417.221 64.0498C416.979 64.4053 416.617 64.6764 416.134 64.8633C415.651 65.0456 415.049 65.1367 414.329 65.1367C413.796 65.1367 413.338 65.1025 412.955 65.0342C412.577 64.9658 412.194 64.8519 411.807 64.6924V62.9697C412.221 63.1566 412.666 63.3115 413.14 63.4346C413.618 63.5531 414.037 63.6123 414.397 63.6123C414.803 63.6123 415.092 63.5531 415.266 63.4346C415.443 63.3115 415.532 63.152 415.532 62.9561C415.532 62.8285 415.496 62.7145 415.423 62.6143C415.354 62.5094 415.204 62.3932 414.972 62.2656C414.739 62.1335 414.375 61.9626 413.878 61.7529C413.399 61.5524 413.005 61.3496 412.695 61.1445C412.39 60.9395 412.162 60.6979 412.012 60.4199C411.866 60.1374 411.793 59.7796 411.793 59.3467C411.793 58.6403 412.066 58.1094 412.613 57.7539C413.165 57.3939 413.901 57.2139 414.821 57.2139C415.295 57.2139 415.746 57.2617 416.175 57.3574C416.608 57.4531 417.052 57.6058 417.508 57.8154L416.879 59.3193C416.501 59.1553 416.143 59.0208 415.806 58.916C415.473 58.8112 415.133 58.7588 414.787 58.7588C414.482 58.7588 414.252 58.7998 414.097 58.8818C413.942 58.9639 413.864 59.0892 413.864 59.2578C413.864 59.3809 413.903 59.4902 413.98 59.5859C414.062 59.6816 414.217 59.7887 414.445 59.9072C414.678 60.0212 415.017 60.1693 415.464 60.3516C415.897 60.5293 416.273 60.7161 416.592 60.9121C416.911 61.1035 417.157 61.3428 417.33 61.6299C417.503 61.9124 417.59 62.2793 417.59 62.7305ZM426.162 61.165C426.162 61.8031 426.076 62.3682 425.902 62.8604C425.734 63.3525 425.485 63.7695 425.157 64.1113C424.834 64.4486 424.442 64.7038 423.981 64.877C423.526 65.0501 423.011 65.1367 422.437 65.1367C421.899 65.1367 421.404 65.0501 420.953 64.877C420.507 64.7038 420.117 64.4486 419.784 64.1113C419.456 63.7695 419.201 63.3525 419.019 62.8604C418.841 62.3682 418.752 61.8031 418.752 61.165C418.752 60.3174 418.902 59.5996 419.203 59.0117C419.504 58.4238 419.932 57.9772 420.488 57.6719C421.044 57.3665 421.707 57.2139 422.478 57.2139C423.193 57.2139 423.826 57.3665 424.378 57.6719C424.934 57.9772 425.369 58.4238 425.684 59.0117C426.003 59.5996 426.162 60.3174 426.162 61.165ZM420.878 61.165C420.878 61.6663 420.933 62.0879 421.042 62.4297C421.151 62.7715 421.322 63.029 421.555 63.2021C421.787 63.3753 422.09 63.4619 422.464 63.4619C422.833 63.4619 423.132 63.3753 423.359 63.2021C423.592 63.029 423.76 62.7715 423.865 62.4297C423.975 62.0879 424.029 61.6663 424.029 61.165C424.029 60.6592 423.975 60.2399 423.865 59.9072C423.76 59.57 423.592 59.3171 423.359 59.1484C423.127 58.9798 422.824 58.8955 422.45 58.8955C421.899 58.8955 421.498 59.0846 421.247 59.4629C421.001 59.8411 420.878 60.4085 420.878 61.165ZM434.83 61.165C434.83 61.8031 434.743 62.3682 434.57 62.8604C434.402 63.3525 434.153 63.7695 433.825 64.1113C433.502 64.4486 433.11 64.7038 432.649 64.877C432.194 65.0501 431.679 65.1367 431.104 65.1367C430.567 65.1367 430.072 65.0501 429.621 64.877C429.174 64.7038 428.785 64.4486 428.452 64.1113C428.124 63.7695 427.869 63.3525 427.687 62.8604C427.509 62.3682 427.42 61.8031 427.42 61.165C427.42 60.3174 427.57 59.5996 427.871 59.0117C428.172 58.4238 428.6 57.9772 429.156 57.6719C429.712 57.3665 430.375 57.2139 431.146 57.2139C431.861 57.2139 432.494 57.3665 433.046 57.6719C433.602 57.9772 434.037 58.4238 434.352 59.0117C434.671 59.5996 434.83 60.3174 434.83 61.165ZM429.546 61.165C429.546 61.6663 429.601 62.0879 429.71 62.4297C429.819 62.7715 429.99 63.029 430.223 63.2021C430.455 63.3753 430.758 63.4619 431.132 63.4619C431.501 63.4619 431.799 63.3753 432.027 63.2021C432.26 63.029 432.428 62.7715 432.533 62.4297C432.643 62.0879 432.697 61.6663 432.697 61.165C432.697 60.6592 432.643 60.2399 432.533 59.9072C432.428 59.57 432.26 59.3171 432.027 59.1484C431.795 58.9798 431.492 58.8955 431.118 58.8955C430.567 58.8955 430.166 59.0846 429.915 59.4629C429.669 59.8411 429.546 60.4085 429.546 61.165ZM440.894 57.2139C441.709 57.2139 442.366 57.4372 442.862 57.8838C443.359 58.3258 443.607 59.0368 443.607 60.0166V65H441.522V60.5361C441.522 59.9893 441.422 59.5768 441.222 59.2988C441.026 59.0208 440.716 58.8818 440.292 58.8818C439.654 58.8818 439.219 59.0983 438.986 59.5312C438.754 59.9642 438.638 60.5885 438.638 61.4043V65H436.553V57.3574H438.146L438.426 58.335H438.542C438.706 58.0706 438.909 57.8564 439.15 57.6924C439.396 57.5283 439.668 57.4076 439.964 57.3301C440.265 57.2526 440.575 57.2139 440.894 57.2139Z" fill="#FFB12A"/>
<path d="M190.286 83L189.308 80.5024H186.161L185.194 83H184.27L187.375 75.1152H188.143L191.231 83H190.286ZM189.023 79.6807L188.11 77.2476C187.992 76.9396 187.87 76.5618 187.745 76.1143C187.666 76.458 187.554 76.8358 187.407 77.2476L186.483 79.6807H189.023ZM194.529 83.1074C193.677 83.1074 193.016 82.846 192.547 82.3232C192.081 81.7969 191.849 81.0539 191.849 80.0942C191.849 79.1095 192.085 78.3486 192.558 77.8115C193.034 77.2744 193.711 77.0059 194.588 77.0059C194.871 77.0059 195.154 77.0363 195.437 77.0972C195.719 77.158 195.941 77.2297 196.103 77.312L195.829 78.0693C195.632 77.9906 195.417 77.9261 195.184 77.876C194.951 77.8223 194.745 77.7954 194.566 77.7954C193.37 77.7954 192.772 78.5581 192.772 80.0835C192.772 80.8068 192.917 81.3618 193.208 81.7485C193.501 82.1353 193.934 82.3286 194.507 82.3286C194.998 82.3286 195.501 82.223 196.017 82.0117V82.8013C195.623 83.0054 195.127 83.1074 194.529 83.1074ZM199.32 82.3716C199.477 82.3716 199.63 82.3608 199.776 82.3394C199.923 82.3143 200.04 82.2892 200.125 82.2642V82.9463C200.029 82.9928 199.886 83.0304 199.696 83.0591C199.51 83.0913 199.341 83.1074 199.191 83.1074C198.052 83.1074 197.483 82.5076 197.483 81.3081V77.8062H196.64V77.3765L197.483 77.0059L197.859 75.749H198.375V77.1133H200.083V77.8062H198.375V81.2705C198.375 81.625 198.459 81.8971 198.627 82.0869C198.795 82.2767 199.026 82.3716 199.32 82.3716ZM202.199 83H201.307V77.1133H202.199V83ZM201.232 75.5181C201.232 75.314 201.282 75.1654 201.382 75.0723C201.483 74.9756 201.608 74.9272 201.758 74.9272C201.902 74.9272 202.025 74.9756 202.129 75.0723C202.233 75.1689 202.285 75.3175 202.285 75.5181C202.285 75.7186 202.233 75.869 202.129 75.9692C202.025 76.0659 201.902 76.1143 201.758 76.1143C201.608 76.1143 201.483 76.0659 201.382 75.9692C201.282 75.869 201.232 75.7186 201.232 75.5181ZM205.378 83L203.144 77.1133H204.1L205.368 80.6045C205.654 81.4209 205.822 81.9508 205.873 82.1943H205.916C205.955 82.0046 206.078 81.6125 206.286 81.0181C206.497 80.4201 206.968 79.1185 207.699 77.1133H208.655L206.42 83H205.378ZM210.492 83H209.6V77.1133H210.492V83ZM209.525 75.5181C209.525 75.314 209.575 75.1654 209.675 75.0723C209.776 74.9756 209.901 74.9272 210.051 74.9272C210.194 74.9272 210.318 74.9756 210.422 75.0723C210.526 75.1689 210.578 75.3175 210.578 75.5181C210.578 75.7186 210.526 75.869 210.422 75.9692C210.318 76.0659 210.194 76.1143 210.051 76.1143C209.901 76.1143 209.776 76.0659 209.675 75.9692C209.575 75.869 209.525 75.7186 209.525 75.5181ZM214.284 82.3716C214.441 82.3716 214.593 82.3608 214.74 82.3394C214.887 82.3143 215.003 82.2892 215.089 82.2642V82.9463C214.993 82.9928 214.849 83.0304 214.66 83.0591C214.473 83.0913 214.305 83.1074 214.155 83.1074C213.016 83.1074 212.447 82.5076 212.447 81.3081V77.8062H211.604V77.3765L212.447 77.0059L212.823 75.749H213.338V77.1133H215.046V77.8062H213.338V81.2705C213.338 81.625 213.423 81.8971 213.591 82.0869C213.759 82.2767 213.99 82.3716 214.284 82.3716ZM215.336 77.1133H216.292L217.582 80.4702C217.864 81.2365 218.04 81.7897 218.108 82.1299H218.151C218.197 81.9473 218.294 81.6357 218.441 81.1953C218.591 80.7513 219.078 79.3906 219.902 77.1133H220.858L218.328 83.8164C218.077 84.4788 217.784 84.9479 217.447 85.2236C217.114 85.5029 216.704 85.6426 216.217 85.6426C215.945 85.6426 215.677 85.6121 215.412 85.5513V84.8369C215.609 84.8799 215.829 84.9014 216.072 84.9014C216.685 84.9014 217.121 84.5576 217.383 83.8701L217.71 83.0322L215.336 77.1133ZM229.479 83L228.399 79.5464C228.331 79.3351 228.204 78.8553 228.018 78.1069H227.975C227.831 78.7336 227.706 79.217 227.599 79.5571L226.487 83H225.456L223.85 77.1133H224.784C225.164 78.5921 225.452 79.7183 225.649 80.4917C225.849 81.2651 225.964 81.7861 225.993 82.0547H226.036C226.075 81.8506 226.138 81.5874 226.224 81.2651C226.313 80.9393 226.39 80.6815 226.455 80.4917L227.534 77.1133H228.501L229.554 80.4917C229.754 81.1076 229.89 81.625 229.962 82.0439H230.005C230.019 81.915 230.057 81.7163 230.118 81.4478C230.182 81.1792 230.556 79.7344 231.24 77.1133H232.164L230.537 83H229.479ZM234.125 83H233.233V77.1133H234.125V83ZM233.158 75.5181C233.158 75.314 233.208 75.1654 233.308 75.0723C233.408 74.9756 233.534 74.9272 233.684 74.9272C233.827 74.9272 233.951 74.9756 234.055 75.0723C234.159 75.1689 234.21 75.3175 234.21 75.5181C234.21 75.7186 234.159 75.869 234.055 75.9692C233.951 76.0659 233.827 76.1143 233.684 76.1143C233.534 76.1143 233.408 76.0659 233.308 75.9692C233.208 75.869 233.158 75.7186 233.158 75.5181ZM236.907 83H236.015V74.6426H236.907V83ZM244.394 77.0166C245.167 77.0166 245.767 77.2816 246.193 77.8115C246.623 78.3379 246.838 79.0845 246.838 80.0513C246.838 81.0181 246.621 81.77 246.188 82.3071C245.758 82.8407 245.16 83.1074 244.394 83.1074C244.011 83.1074 243.66 83.0376 243.341 82.8979C243.026 82.7547 242.761 82.5363 242.546 82.2427H242.482L242.294 83H241.655V74.6426H242.546V76.6729C242.546 77.1276 242.532 77.5358 242.503 77.8975H242.546C242.962 77.3102 243.578 77.0166 244.394 77.0166ZM244.265 77.7632C243.656 77.7632 243.218 77.9386 242.949 78.2896C242.681 78.6369 242.546 79.2241 242.546 80.0513C242.546 80.8784 242.684 81.471 242.96 81.8291C243.236 82.1836 243.678 82.3608 244.287 82.3608C244.834 82.3608 245.243 82.1621 245.511 81.7646C245.78 81.3636 245.914 80.7889 245.914 80.0405C245.914 79.2743 245.78 78.7031 245.511 78.3271C245.243 77.9512 244.827 77.7632 244.265 77.7632ZM250.888 83.1074C250.018 83.1074 249.33 82.8424 248.825 82.3125C248.324 81.7826 248.073 81.0467 248.073 80.105C248.073 79.1561 248.306 78.4023 248.771 77.8438C249.241 77.2852 249.869 77.0059 250.657 77.0059C251.394 77.0059 251.978 77.2493 252.408 77.7363C252.837 78.2197 253.052 78.8589 253.052 79.6538V80.2178H248.997C249.015 80.9089 249.189 81.4334 249.518 81.7915C249.851 82.1496 250.318 82.3286 250.92 82.3286C251.554 82.3286 252.18 82.1961 252.8 81.9312V82.7261C252.485 82.8621 252.186 82.9588 251.903 83.0161C251.624 83.077 251.285 83.1074 250.888 83.1074ZM250.646 77.7524C250.173 77.7524 249.796 77.9064 249.513 78.2144C249.233 78.5223 249.069 78.9484 249.019 79.4927H252.096C252.096 78.9305 251.971 78.5008 251.72 78.2036C251.47 77.9028 251.111 77.7524 250.646 77.7524ZM259.788 83.1074C258.935 83.1074 258.275 82.846 257.806 82.3232C257.34 81.7969 257.107 81.0539 257.107 80.0942C257.107 79.1095 257.344 78.3486 257.816 77.8115C258.293 77.2744 258.969 77.0059 259.847 77.0059C260.13 77.0059 260.412 77.0363 260.695 77.0972C260.978 77.158 261.2 77.2297 261.361 77.312L261.087 78.0693C260.89 77.9906 260.676 77.9261 260.443 77.876C260.21 77.8223 260.004 77.7954 259.825 77.7954C258.629 77.7954 258.031 78.5581 258.031 80.0835C258.031 80.8068 258.176 81.3618 258.466 81.7485C258.76 82.1353 259.193 82.3286 259.766 82.3286C260.257 82.3286 260.76 82.223 261.275 82.0117V82.8013C260.882 83.0054 260.386 83.1074 259.788 83.1074ZM265.363 77.0059C265.624 77.0059 265.859 77.0273 266.066 77.0703L265.943 77.8975C265.699 77.8438 265.485 77.8169 265.298 77.8169C264.822 77.8169 264.414 78.0103 264.074 78.397C263.737 78.7837 263.569 79.2653 263.569 79.8418V83H262.677V77.1133H263.413L263.515 78.2036H263.558C263.777 77.8205 264.04 77.5251 264.348 77.3174C264.656 77.1097 264.994 77.0059 265.363 77.0059ZM269.654 83.1074C268.784 83.1074 268.097 82.8424 267.592 82.3125C267.09 81.7826 266.84 81.0467 266.84 80.105C266.84 79.1561 267.073 78.4023 267.538 77.8438C268.007 77.2852 268.636 77.0059 269.423 77.0059C270.161 77.0059 270.745 77.2493 271.174 77.7363C271.604 78.2197 271.819 78.8589 271.819 79.6538V80.2178H267.764C267.782 80.9089 267.955 81.4334 268.285 81.7915C268.618 82.1496 269.085 82.3286 269.687 82.3286C270.32 82.3286 270.947 82.1961 271.566 81.9312V82.7261C271.251 82.8621 270.952 82.9588 270.669 83.0161C270.39 83.077 270.052 83.1074 269.654 83.1074ZM269.413 77.7524C268.94 77.7524 268.562 77.9064 268.279 78.2144C268 78.5223 267.835 78.9484 267.785 79.4927H270.863C270.863 78.9305 270.737 78.5008 270.487 78.2036C270.236 77.9028 269.878 77.7524 269.413 77.7524ZM276.964 83L276.787 82.1621H276.744C276.451 82.5309 276.157 82.7816 275.863 82.9141C275.573 83.043 275.21 83.1074 274.773 83.1074C274.189 83.1074 273.731 82.957 273.398 82.6562C273.069 82.3555 272.904 81.9276 272.904 81.3726C272.904 80.1838 273.854 79.5607 275.756 79.5034L276.755 79.4712V79.106C276.755 78.644 276.655 78.3039 276.454 78.0854C276.257 77.8634 275.94 77.7524 275.503 77.7524C275.013 77.7524 274.458 77.9028 273.838 78.2036L273.564 77.5215C273.854 77.3639 274.171 77.2404 274.515 77.1509C274.862 77.0614 275.21 77.0166 275.557 77.0166C276.259 77.0166 276.778 77.1724 277.115 77.4839C277.455 77.7954 277.625 78.2949 277.625 78.9824V83H276.964ZM274.95 82.3716C275.505 82.3716 275.94 82.2194 276.255 81.915C276.574 81.6107 276.733 81.1846 276.733 80.6367V80.105L275.842 80.1426C275.133 80.1676 274.621 80.2786 274.306 80.4756C273.994 80.6689 273.838 80.9715 273.838 81.3833C273.838 81.7056 273.935 81.9508 274.128 82.1191C274.325 82.2874 274.599 82.3716 274.95 82.3716ZM281.369 82.3716C281.526 82.3716 281.678 82.3608 281.825 82.3394C281.972 82.3143 282.088 82.2892 282.174 82.2642V82.9463C282.078 82.9928 281.934 83.0304 281.745 83.0591C281.558 83.0913 281.39 83.1074 281.24 83.1074C280.101 83.1074 279.532 82.5076 279.532 81.3081V77.8062H278.688V77.3765L279.532 77.0059L279.908 75.749H280.423V77.1133H282.131V77.8062H280.423V81.2705C280.423 81.625 280.507 81.8971 280.676 82.0869C280.844 82.2767 281.075 82.3716 281.369 82.3716ZM285.843 83.1074C284.973 83.1074 284.285 82.8424 283.78 82.3125C283.279 81.7826 283.028 81.0467 283.028 80.105C283.028 79.1561 283.261 78.4023 283.727 77.8438C284.196 77.2852 284.824 77.0059 285.612 77.0059C286.349 77.0059 286.933 77.2493 287.363 77.7363C287.792 78.2197 288.007 78.8589 288.007 79.6538V80.2178H283.952C283.97 80.9089 284.144 81.4334 284.473 81.7915C284.806 82.1496 285.273 82.3286 285.875 82.3286C286.509 82.3286 287.135 82.1961 287.755 81.9312V82.7261C287.44 82.8621 287.141 82.9588 286.858 83.0161C286.579 83.077 286.24 83.1074 285.843 83.1074ZM285.601 77.7524C285.128 77.7524 284.751 77.9064 284.468 78.2144C284.188 78.5223 284.024 78.9484 283.974 79.4927H287.051C287.051 78.9305 286.926 78.5008 286.675 78.2036C286.425 77.9028 286.067 77.7524 285.601 77.7524ZM293.54 82.2104H293.491C293.079 82.8084 292.464 83.1074 291.644 83.1074C290.874 83.1074 290.274 82.8442 289.844 82.3179C289.418 81.7915 289.205 81.0431 289.205 80.0728C289.205 79.1024 289.42 78.3486 289.85 77.8115C290.279 77.2744 290.877 77.0059 291.644 77.0059C292.442 77.0059 293.054 77.2959 293.48 77.876H293.55L293.513 77.4517L293.491 77.0381V74.6426H294.383V83H293.658L293.54 82.2104ZM291.756 82.3608C292.365 82.3608 292.806 82.1961 293.078 81.8667C293.353 81.5337 293.491 80.9984 293.491 80.2607V80.0728C293.491 79.2384 293.352 78.644 293.072 78.2896C292.797 77.9315 292.354 77.7524 291.746 77.7524C291.223 77.7524 290.822 77.9565 290.542 78.3647C290.267 78.7694 290.129 79.3423 290.129 80.0835C290.129 80.8354 290.267 81.403 290.542 81.7861C290.818 82.1693 291.223 82.3608 291.756 82.3608ZM303.943 83L302.864 79.5464C302.796 79.3351 302.669 78.8553 302.482 78.1069H302.439C302.296 78.7336 302.171 79.217 302.063 79.5571L300.952 83H299.92L298.314 77.1133H299.249C299.629 78.5921 299.917 79.7183 300.114 80.4917C300.314 81.2651 300.429 81.7861 300.458 82.0547H300.5C300.54 81.8506 300.603 81.5874 300.688 81.2651C300.778 80.9393 300.855 80.6815 300.919 80.4917L301.999 77.1133H302.966L304.019 80.4917C304.219 81.1076 304.355 81.625 304.427 82.0439H304.47C304.484 81.915 304.522 81.7163 304.583 81.4478C304.647 81.1792 305.021 79.7344 305.705 77.1133H306.629L305.001 83H303.943ZM311.726 83V79.1919C311.726 78.7121 311.617 78.354 311.398 78.1177C311.18 77.8813 310.838 77.7632 310.373 77.7632C309.753 77.7632 309.3 77.9315 309.014 78.2681C308.731 78.6047 308.589 79.1561 308.589 79.9224V83H307.698V74.6426H308.589V77.1724C308.589 77.4767 308.575 77.7292 308.546 77.9297H308.6C308.776 77.6468 309.024 77.4248 309.347 77.2637C309.673 77.099 310.043 77.0166 310.458 77.0166C311.178 77.0166 311.717 77.1885 312.075 77.5322C312.437 77.8724 312.618 78.4149 312.618 79.1597V83H311.726ZM316.941 83.1074C316.071 83.1074 315.384 82.8424 314.879 82.3125C314.378 81.7826 314.127 81.0467 314.127 80.105C314.127 79.1561 314.36 78.4023 314.825 77.8438C315.294 77.2852 315.923 77.0059 316.71 77.0059C317.448 77.0059 318.032 77.2493 318.461 77.7363C318.891 78.2197 319.106 78.8589 319.106 79.6538V80.2178H315.051C315.069 80.9089 315.242 81.4334 315.572 81.7915C315.905 82.1496 316.372 82.3286 316.974 82.3286C317.607 82.3286 318.234 82.1961 318.854 81.9312V82.7261C318.538 82.8621 318.239 82.9588 317.957 83.0161C317.677 83.077 317.339 83.1074 316.941 83.1074ZM316.7 77.7524C316.227 77.7524 315.849 77.9064 315.566 78.2144C315.287 78.5223 315.122 78.9484 315.072 79.4927H318.15C318.15 78.9305 318.025 78.5008 317.774 78.2036C317.523 77.9028 317.165 77.7524 316.7 77.7524ZM324.66 83V79.1919C324.66 78.7121 324.55 78.354 324.332 78.1177C324.114 77.8813 323.772 77.7632 323.306 77.7632C322.69 77.7632 322.239 77.9297 321.953 78.2627C321.666 78.5957 321.523 79.1453 321.523 79.9116V83H320.631V77.1133H321.356L321.501 77.9189H321.544C321.727 77.6289 321.983 77.4051 322.312 77.2476C322.642 77.0864 323.009 77.0059 323.414 77.0059C324.123 77.0059 324.656 77.1777 325.014 77.5215C325.372 77.8617 325.551 78.4077 325.551 79.1597V83H324.66ZM332.147 82.3716C332.305 82.3716 332.457 82.3608 332.604 82.3394C332.75 82.3143 332.867 82.2892 332.953 82.2642V82.9463C332.856 82.9928 332.713 83.0304 332.523 83.0591C332.337 83.0913 332.168 83.1074 332.018 83.1074C330.879 83.1074 330.31 82.5076 330.31 81.3081V77.8062H329.467V77.3765L330.31 77.0059L330.686 75.749H331.202V77.1133H332.91V77.8062H331.202V81.2705C331.202 81.625 331.286 81.8971 331.454 82.0869C331.622 82.2767 331.853 82.3716 332.147 82.3716ZM338.163 83V79.1919C338.163 78.7121 338.053 78.354 337.835 78.1177C337.617 77.8813 337.275 77.7632 336.809 77.7632C336.19 77.7632 335.737 77.9315 335.45 78.2681C335.167 78.6047 335.026 79.1561 335.026 79.9224V83H334.134V74.6426H335.026V77.1724C335.026 77.4767 335.012 77.7292 334.983 77.9297H335.037C335.212 77.6468 335.461 77.4248 335.783 77.2637C336.109 77.099 336.48 77.0166 336.895 77.0166C337.615 77.0166 338.154 77.1885 338.512 77.5322C338.873 77.8724 339.054 78.4149 339.054 79.1597V83H338.163ZM343.378 83.1074C342.508 83.1074 341.82 82.8424 341.315 82.3125C340.814 81.7826 340.563 81.0467 340.563 80.105C340.563 79.1561 340.796 78.4023 341.262 77.8438C341.731 77.2852 342.359 77.0059 343.147 77.0059C343.885 77.0059 344.468 77.2493 344.898 77.7363C345.328 78.2197 345.542 78.8589 345.542 79.6538V80.2178H341.487C341.505 80.9089 341.679 81.4334 342.008 81.7915C342.341 82.1496 342.809 82.3286 343.41 82.3286C344.044 82.3286 344.671 82.1961 345.29 81.9312V82.7261C344.975 82.8621 344.676 82.9588 344.393 83.0161C344.114 83.077 343.775 83.1074 343.378 83.1074ZM343.136 77.7524C342.664 77.7524 342.286 77.9064 342.003 78.2144C341.724 78.5223 341.559 78.9484 341.509 79.4927H344.586C344.586 78.9305 344.461 78.5008 344.21 78.2036C343.96 77.9028 343.602 77.7524 343.136 77.7524ZM357.429 83V79.1704C357.429 78.7013 357.328 78.3504 357.128 78.1177C356.927 77.8813 356.616 77.7632 356.193 77.7632C355.638 77.7632 355.228 77.9225 354.963 78.2412C354.698 78.5599 354.566 79.0505 354.566 79.7129V83H353.674V79.1704C353.674 78.7013 353.574 78.3504 353.374 78.1177C353.173 77.8813 352.86 77.7632 352.434 77.7632C351.875 77.7632 351.465 77.9315 351.204 78.2681C350.946 78.6011 350.817 79.1489 350.817 79.9116V83H349.925V77.1133H350.65L350.795 77.9189H350.838C351.007 77.6325 351.243 77.4087 351.547 77.2476C351.855 77.0864 352.199 77.0059 352.579 77.0059C353.499 77.0059 354.1 77.3389 354.383 78.0049H354.426C354.602 77.6969 354.856 77.4535 355.189 77.2744C355.522 77.0954 355.902 77.0059 356.328 77.0059C356.994 77.0059 357.491 77.1777 357.821 77.5215C358.154 77.8617 358.32 78.4077 358.32 79.1597V83H357.429ZM363.783 83L363.605 82.1621H363.562C363.269 82.5309 362.975 82.7816 362.682 82.9141C362.392 83.043 362.028 83.1074 361.591 83.1074C361.008 83.1074 360.549 82.957 360.216 82.6562C359.887 82.3555 359.722 81.9276 359.722 81.3726C359.722 80.1838 360.673 79.5607 362.574 79.5034L363.573 79.4712V79.106C363.573 78.644 363.473 78.3039 363.272 78.0854C363.076 77.8634 362.759 77.7524 362.322 77.7524C361.831 77.7524 361.276 77.9028 360.657 78.2036L360.383 77.5215C360.673 77.3639 360.99 77.2404 361.333 77.1509C361.681 77.0614 362.028 77.0166 362.375 77.0166C363.077 77.0166 363.597 77.1724 363.933 77.4839C364.273 77.7954 364.443 78.2949 364.443 78.9824V83H363.783ZM361.769 82.3716C362.324 82.3716 362.759 82.2194 363.074 81.915C363.392 81.6107 363.552 81.1846 363.552 80.6367V80.105L362.66 80.1426C361.951 80.1676 361.439 80.2786 361.124 80.4756C360.812 80.6689 360.657 80.9715 360.657 81.3833C360.657 81.7056 360.753 81.9508 360.947 82.1191C361.144 82.2874 361.418 82.3716 361.769 82.3716ZM367.177 83H366.286V77.1133H367.177V83ZM366.21 75.5181C366.21 75.314 366.261 75.1654 366.361 75.0723C366.461 74.9756 366.586 74.9272 366.737 74.9272C366.88 74.9272 367.004 74.9756 367.107 75.0723C367.211 75.1689 367.263 75.3175 367.263 75.5181C367.263 75.7186 367.211 75.869 367.107 75.9692C367.004 76.0659 366.88 76.1143 366.737 76.1143C366.586 76.1143 366.461 76.0659 366.361 75.9692C366.261 75.869 366.21 75.7186 366.21 75.5181ZM369.959 83H369.068V74.6426H369.959V83ZM375.599 83H374.708V77.1133H375.599V83ZM374.632 75.5181C374.632 75.314 374.682 75.1654 374.783 75.0723C374.883 74.9756 375.008 74.9272 375.159 74.9272C375.302 74.9272 375.425 74.9756 375.529 75.0723C375.633 75.1689 375.685 75.3175 375.685 75.5181C375.685 75.7186 375.633 75.869 375.529 75.9692C375.425 76.0659 375.302 76.1143 375.159 76.1143C375.008 76.1143 374.883 76.0659 374.783 75.9692C374.682 75.869 374.632 75.7186 374.632 75.5181ZM381.287 81.394C381.287 81.9419 381.083 82.3644 380.675 82.6616C380.267 82.9588 379.694 83.1074 378.956 83.1074C378.175 83.1074 377.567 82.9839 377.13 82.7368V81.9097C377.413 82.0529 377.715 82.1657 378.038 82.248C378.363 82.3304 378.677 82.3716 378.978 82.3716C379.443 82.3716 379.801 82.2982 380.052 82.1514C380.302 82.001 380.428 81.7736 380.428 81.4692C380.428 81.2401 380.327 81.0449 380.127 80.8838C379.93 80.7191 379.543 80.5257 378.967 80.3037C378.419 80.0996 378.029 79.9224 377.796 79.772C377.567 79.618 377.395 79.4443 377.28 79.251C377.169 79.0576 377.114 78.8267 377.114 78.5581C377.114 78.0783 377.309 77.7005 377.699 77.4248C378.09 77.1455 378.625 77.0059 379.305 77.0059C379.939 77.0059 380.558 77.1348 381.164 77.3926L380.847 78.1177C380.256 77.8742 379.721 77.7524 379.241 77.7524C378.818 77.7524 378.5 77.8187 378.285 77.9512C378.07 78.0837 377.962 78.2663 377.962 78.499C377.962 78.6566 378.002 78.7909 378.081 78.9019C378.163 79.0129 378.294 79.1185 378.473 79.2188C378.652 79.319 378.995 79.464 379.504 79.6538C380.202 79.908 380.673 80.1641 380.917 80.4219C381.164 80.6797 381.287 81.0037 381.287 81.394ZM389.397 81.394C389.397 81.9419 389.193 82.3644 388.785 82.6616C388.377 82.9588 387.804 83.1074 387.066 83.1074C386.286 83.1074 385.677 82.9839 385.24 82.7368V81.9097C385.523 82.0529 385.826 82.1657 386.148 82.248C386.474 82.3304 386.787 82.3716 387.088 82.3716C387.553 82.3716 387.911 82.2982 388.162 82.1514C388.413 82.001 388.538 81.7736 388.538 81.4692C388.538 81.2401 388.438 81.0449 388.237 80.8838C388.04 80.7191 387.654 80.5257 387.077 80.3037C386.529 80.0996 386.139 79.9224 385.906 79.772C385.677 79.618 385.505 79.4443 385.391 79.251C385.28 79.0576 385.224 78.8267 385.224 78.5581C385.224 78.0783 385.419 77.7005 385.81 77.4248C386.2 77.1455 386.735 77.0059 387.416 77.0059C388.049 77.0059 388.669 77.1348 389.274 77.3926L388.957 78.1177C388.366 77.8742 387.831 77.7524 387.351 77.7524C386.929 77.7524 386.61 77.8187 386.395 77.9512C386.18 78.0837 386.073 78.2663 386.073 78.499C386.073 78.6566 386.112 78.7909 386.191 78.9019C386.273 79.0129 386.404 79.1185 386.583 79.2188C386.762 79.319 387.106 79.464 387.614 79.6538C388.312 79.908 388.783 80.1641 389.027 80.4219C389.274 80.6797 389.397 81.0037 389.397 81.394ZM393.34 83.1074C392.47 83.1074 391.782 82.8424 391.277 82.3125C390.776 81.7826 390.525 81.0467 390.525 80.105C390.525 79.1561 390.758 78.4023 391.224 77.8438C391.693 77.2852 392.321 77.0059 393.109 77.0059C393.847 77.0059 394.43 77.2493 394.86 77.7363C395.29 78.2197 395.504 78.8589 395.504 79.6538V80.2178H391.449C391.467 80.9089 391.641 81.4334 391.97 81.7915C392.303 82.1496 392.771 82.3286 393.372 82.3286C394.006 82.3286 394.632 82.1961 395.252 81.9312V82.7261C394.937 82.8621 394.638 82.9588 394.355 83.0161C394.076 83.077 393.737 83.1074 393.34 83.1074ZM393.098 77.7524C392.625 77.7524 392.248 77.9064 391.965 78.2144C391.686 78.5223 391.521 78.9484 391.471 79.4927H394.548C394.548 78.9305 394.423 78.5008 394.172 78.2036C393.922 77.9028 393.564 77.7524 393.098 77.7524ZM401.058 83V79.1919C401.058 78.7121 400.949 78.354 400.73 78.1177C400.512 77.8813 400.17 77.7632 399.705 77.7632C399.089 77.7632 398.638 77.9297 398.351 78.2627C398.065 78.5957 397.921 79.1453 397.921 79.9116V83H397.03V77.1133H397.755L397.9 77.9189H397.943C398.125 77.6289 398.382 77.4051 398.711 77.2476C399.04 77.0864 399.407 77.0059 399.812 77.0059C400.521 77.0059 401.055 77.1777 401.413 77.5215C401.771 77.8617 401.95 78.4077 401.95 79.1597V83H401.058ZM405.688 82.3716C405.846 82.3716 405.998 82.3608 406.145 82.3394C406.291 82.3143 406.408 82.2892 406.494 82.2642V82.9463C406.397 82.9928 406.254 83.0304 406.064 83.0591C405.878 83.0913 405.709 83.1074 405.559 83.1074C404.42 83.1074 403.851 82.5076 403.851 81.3081V77.8062H403.008V77.3765L403.851 77.0059L404.227 75.749H404.743V77.1133H406.451V77.8062H404.743V81.2705C404.743 81.625 404.827 81.8971 404.995 82.0869C405.163 82.2767 405.394 82.3716 405.688 82.3716Z" fill="#FFB12A"/>
<defs>
<linearGradient id="paint0_linear_15244_1041343408573" x1="0" y1="0" x2="30.4349" y2="187.048" gradientUnits="userSpaceOnUse">
<stop stop-color="#FFCF4F"/>
<stop offset="1" stop-color="#FF9B4A"/>
</linearGradient>
<linearGradient id="paint1_linear_15244_104134348750394" x1="44" y1="0" x2="75.6427" y2="72.116" gradientUnits="userSpaceOnUse">
<stop stop-color="#FFCF4F"/>
<stop offset="1" stop-color="#FF9B4A"/>
</linearGradient>
<linearGradient id="paint2_linear_15244_104134398764893" x1="562" y1="96" x2="522.028" y2="5.69259" gradientUnits="userSpaceOnUse">
<stop stop-color="#FFCF4F"/>
<stop offset="1" stop-color="#FF9B4A"/>
</linearGradient>
<linearGradient id="paint3_linear_15244_1041343056873049" x1="281" y1="10" x2="311" y2="40" gradientUnits="userSpaceOnUse">
<stop stop-color="#FFCF4F"/>
<stop offset="1" stop-color="#FF9B4A"/>
</linearGradient>
</defs>
</svg>
