<svg width="17" height="17" viewBox="0 0 17 17" fill="none" xmlns="http://www.w3.org/2000/svg">
<path d="M6.83331 9.16658C6.95367 9.32706 7.0121 9.52557 6.99788 9.72566C6.98366 9.92575 6.89774 10.114 6.7559 10.2558C6.61406 10.3977 6.42581 10.4836 6.22572 10.4978C6.02563 10.512 5.82712 10.4536 5.66664 10.3332C5.26805 9.95916 4.95037 9.50735 4.7332 9.0057C4.51603 8.50406 4.40399 7.96322 4.40399 7.41658C4.40399 6.86994 4.51603 6.32911 4.7332 5.82746C4.95037 5.32581 5.26805 4.874 5.66664 4.49992L8.58331 1.49992C9.37623 0.73117 10.4372 0.30127 11.5416 0.30127C12.646 0.30127 13.7071 0.73117 14.5 1.49992C15.2687 2.29283 15.6986 3.35385 15.6986 4.45825C15.6986 5.56264 15.2687 6.62367 14.5 7.41658L13.25 8.66658C13.2678 7.98473 13.1546 7.3058 12.9166 6.66658L13.3333 6.24992C13.7783 5.75931 14.0249 5.12063 14.0249 4.45825C14.0249 3.79586 13.7783 3.15719 13.3333 2.66658C12.8427 2.22154 12.204 1.97502 11.5416 1.97502C10.8793 1.97502 10.2406 2.22154 9.74998 2.66658L6.83331 5.66658C6.59631 5.89229 6.40763 6.16379 6.27871 6.46461C6.14979 6.76543 6.08331 7.0893 6.08331 7.41658C6.08331 7.74386 6.14979 8.06773 6.27871 8.36855C6.40763 8.66937 6.59631 8.94087 6.83331 9.16658ZM11.5 9.41658C11.6444 8.74396 11.6129 8.04545 11.4085 7.38855C11.2042 6.73164 10.8338 6.13855 10.3333 5.66658C10.1728 5.54622 9.97433 5.48779 9.77424 5.50201C9.57414 5.51623 9.3859 5.60215 9.24405 5.74399C9.10221 5.88584 9.01629 6.07408 9.00207 6.27417C8.98785 6.47427 9.04629 6.67277 9.16664 6.83325C9.40364 7.05896 9.59232 7.33046 9.72124 7.63128C9.85017 7.9321 9.91664 8.25597 9.91664 8.58325C9.91664 8.91053 9.85017 9.2344 9.72124 9.53522C9.59232 9.83604 9.40364 10.1075 9.16664 10.3332L6.24998 13.3332C5.75937 13.7783 5.12069 14.0248 4.45831 14.0248C3.79592 14.0248 3.15725 13.7783 2.66664 13.3332C2.2216 12.8426 1.97508 12.204 1.97508 11.5416C1.97508 10.8792 2.2216 10.2405 2.66664 9.74992L3.08331 9.41658C2.8517 8.74685 2.7389 8.04181 2.74998 7.33325L1.49998 8.58325C0.731231 9.37617 0.301331 10.4372 0.301331 11.5416C0.301331 12.646 0.731231 13.707 1.49998 14.4999C2.29289 15.2687 3.35392 15.6986 4.45831 15.6986C5.5627 15.6986 6.62373 15.2687 7.41664 14.4999L8.91664 12.9999C9.04403 12.2447 9.34322 11.5288 9.79112 10.9075C10.239 10.2862 10.8237 9.77611 11.5 9.41658ZM15.5833 10.9166L13.8333 12.6666L12.0833 10.9166L10.9166 12.0832L12.6666 13.8332L10.9166 15.5832L12.0833 16.7499L13.8333 14.9999L15.5833 16.7499L16.75 15.5832L15 13.8332L16.75 12.0832L15.5833 10.9166Z" fill="#567191"/>
</svg>
