<svg width="24" height="24" viewBox="0 0 24 24" fill="none" xmlns="http://www.w3.org/2000/svg">
<circle cx="12" cy="12" r="12" fill="url(#paint0_linear_3803_115769)"/>
<path fill-rule="evenodd" clip-rule="evenodd" d="M18.7069 7.29279C18.8944 7.48031 18.9997 7.73462 18.9997 7.99979C18.9997 8.26495 18.8944 8.51926 18.7069 8.70679L10.7069 16.7068C10.5194 16.8943 10.2651 16.9996 9.99992 16.9996C9.73475 16.9996 9.48045 16.8943 9.29292 16.7068L5.29292 12.7068C5.11076 12.5182 5.00997 12.2656 5.01224 12.0034C5.01452 11.7412 5.11969 11.4904 5.3051 11.305C5.49051 11.1196 5.74132 11.0144 6.00352 11.0121C6.26571 11.0098 6.51832 11.1106 6.70692 11.2928L9.99992 14.5858L17.2929 7.29279C17.4804 7.10532 17.7348 7 17.9999 7C18.2651 7 18.5194 7.10532 18.7069 7.29279Z" fill="white"/>
<defs>
<linearGradient id="paint0_linear_3803_115769" x1="-6.42155e-10" y1="5.22013" x2="24.0006" y2="5.22013" gradientUnits="userSpaceOnUse">
<stop stop-color="#36CDCF"/>
<stop offset="1" stop-color="#40E0CF"/>
</linearGradient>
</defs>
</svg>
