<svg width="20" height="20" viewBox="0 0 20 20" fill="none" xmlns="http://www.w3.org/2000/svg">
<path d="M9.99935 16.6641C8.23124 16.6641 6.53555 15.9617 5.2853 14.7114C4.03506 13.4612 3.33268 11.7655 3.33268 9.9974C3.33268 8.22929 4.03506 6.53359 5.2853 5.28335C6.53555 4.03311 8.23124 3.33073 9.99935 3.33073C11.7675 3.33073 13.4632 4.03311 14.7134 5.28335C15.9636 6.53359 16.666 8.22929 16.666 9.9974C16.666 11.7655 15.9636 13.4612 14.7134 14.7114C13.4632 15.9617 11.7675 16.6641 9.99935 16.6641ZM9.99935 1.66406C8.905 1.66406 7.82137 1.87961 6.81032 2.2984C5.79927 2.71719 4.88061 3.33102 4.10679 4.10484C2.54399 5.66764 1.66602 7.78726 1.66602 9.9974C1.66602 12.2075 2.54399 14.3271 4.10679 15.89C4.88061 16.6638 5.79927 17.2776 6.81032 17.6964C7.82137 18.1152 8.905 18.3307 9.99935 18.3307C12.2095 18.3307 14.3291 17.4528 15.8919 15.89C17.4547 14.3271 18.3327 12.2075 18.3327 9.9974C18.3327 8.90305 18.1171 7.81941 17.6983 6.80837C17.2796 5.79732 16.6657 4.87866 15.8919 4.10484C15.1181 3.33102 14.1994 2.71719 13.1884 2.2984C12.1773 1.87961 11.0937 1.66406 9.99935 1.66406ZM13.5327 6.46406C12.5577 5.48073 11.2743 4.9974 9.99935 4.9974V9.9974L6.46602 13.5307C8.41602 15.4807 11.5827 15.4807 13.5327 13.5307C15.491 11.5807 15.491 8.41406 13.5327 6.46406Z" fill="currentColor"/>
</svg>
