<svg width="15" height="15" viewBox="0 0 15 15" fill="none" xmlns="http://www.w3.org/2000/svg">
<path  d="M5.39943 3.78344L5.73981 6.44368L4.00516 4.39826L1.34492 4.73864L3.39034 3.00399L3.04997 0.34375L4.78461 2.38917L7.44485 2.0488L5.39943 3.78344ZM11.6293 2.13789C11.4202 2.22773 11.231 2.35832 11.0729 2.52203L10.3933 3.20169L12.817 5.62547L13.4967 4.94582C13.6604 4.7877 13.791 4.59855 13.8808 4.38942C13.9707 4.18029 14.018 3.95536 14.0199 3.72776C14.0219 3.50016 13.9785 3.27444 13.8924 3.06378C13.8062 2.85312 13.6789 2.66173 13.5179 2.50079C13.357 2.33984 13.1656 2.21256 12.955 2.12637C12.7443 2.04019 12.5186 1.99682 12.291 1.99879C12.0634 2.00077 11.8384 2.04806 11.6293 2.13789ZM9.18093 4.41401L9.18136 4.41358H9.18051L9.18093 4.41401ZM9.18093 4.41401L2 11.5949V14.0187H4.42379L11.606 6.83737L9.18093 4.41401ZM10.9048 12.0463L12.8095 10.9987L11.7619 12.9035L12.8095 14.8083L10.9048 13.7606L9 14.8083L10.0476 12.9035L9 10.9987L10.9048 12.0463ZM2.85714 5.99853L2.04762 7.4271L2.85714 8.85567L1.42857 8.04614L0 8.85567L0.809524 7.4271L0 5.99853L1.42857 6.80805L2.85714 5.99853Z" fill="currentColor"/>
</svg>
