<svg width="25" height="24" viewBox="0 0 25 24" fill="none" xmlns="http://www.w3.org/2000/svg">
<path fill-rule="evenodd" clip-rule="evenodd" d="M14.0623 1.2558C14.5619 1.41326 14.9016 1.87652 14.9016 2.40028V8.40028L19.7016 8.40028C20.149 8.40028 20.5593 8.64923 20.7659 9.04611C20.9726 9.44299 20.9412 9.92187 20.6846 10.2884L12.2846 22.2884C11.9843 22.7175 11.4403 22.9022 10.9408 22.7448C10.4413 22.5873 10.1016 22.124 10.1016 21.6003L10.1016 15.6003H5.30157C4.85412 15.6003 4.44383 15.3513 4.23719 14.9545C4.03055 14.5576 4.06189 14.0787 4.31849 13.7121L12.7185 1.71213C13.0188 1.28304 13.5628 1.09833 14.0623 1.2558Z" fill="url(#paint0_linear_28146_203245)"/>
<defs>
<linearGradient id="paint0_linear_28146_203245" x1="4.10156" y1="1.2002" x2="25.0371" y2="17.4833" gradientUnits="userSpaceOnUse">
<stop stop-color="#FFCF4F"/>
<stop offset="1" stop-color="#FF9B4A"/>
</linearGradient>
</defs>
</svg>
