<svg width="40" height="40" viewBox="0 0 40 40" fill="none" xmlns="http://www.w3.org/2000/svg">
<path fill-rule="evenodd" clip-rule="evenodd" d="M39.1998 19.9969C39.1998 25.089 37.177 29.9726 33.5763 33.5733C29.9756 37.174 25.092 39.1969 19.9998 39.1969C14.9076 39.1969 10.0241 37.174 6.42336 33.5733C2.82266 29.9726 0.799805 25.089 0.799805 19.9969C0.799805 14.9047 2.82266 10.0211 6.42336 6.42043C10.0241 2.81973 14.9076 0.796875 19.9998 0.796875C25.092 0.796875 29.9756 2.81973 33.5763 6.42043C37.177 10.0211 39.1998 14.9047 39.1998 19.9969ZM24.7998 12.7969C24.7998 14.0699 24.2941 15.2908 23.3939 16.191C22.4937 17.0912 21.2728 17.5969 19.9998 17.5969C18.7268 17.5969 17.5059 17.0912 16.6057 16.191C15.7055 15.2908 15.1998 14.0699 15.1998 12.7969C15.1998 11.5238 15.7055 10.3029 16.6057 9.40276C17.5059 8.50259 18.7268 7.99688 19.9998 7.99688C21.2728 7.99688 22.4937 8.50259 23.3939 9.40276C24.2941 10.3029 24.7998 11.5238 24.7998 12.7969ZM19.9998 22.3969C17.702 22.3964 15.4525 23.0556 13.5184 24.2962C11.5843 25.5368 10.0471 27.3066 9.08941 29.3953C10.4398 30.9663 12.1141 32.2267 13.9973 33.09C15.8805 33.9533 17.9281 34.3991 19.9998 34.3969C22.0715 34.3991 24.1191 33.9533 26.0023 33.09C27.8856 32.2267 29.5598 30.9663 30.9102 29.3953C29.9525 27.3066 28.4153 25.5368 26.4812 24.2962C24.5471 23.0556 22.2976 22.3964 19.9998 22.3969Z" fill="#8193A8"/>
</svg>
