<svg width="14" height="13" viewBox="0 0 14 13" fill="none" xmlns="http://www.w3.org/2000/svg">
<path d="M7.0001 0.599976C6.55827 0.599976 6.2001 0.958148 6.2001 1.39998V2.19998C6.2001 2.6418 6.55827 2.99998 7.0001 2.99998C7.44192 2.99998 7.8001 2.6418 7.8001 2.19998V1.39998C7.8001 0.958148 7.44192 0.599976 7.0001 0.599976Z" fill="currentColor"/>
<path fill-rule="evenodd" clip-rule="evenodd" d="M2.2001 2.19998H4.6001C4.6001 3.52546 5.67461 4.59998 7.0001 4.59998C8.32558 4.59998 9.4001 3.52546 9.4001 2.19998H11.8001C12.6838 2.19998 13.4001 2.91632 13.4001 3.79998V11C13.4001 11.8836 12.6838 12.6 11.8001 12.6H2.2001C1.31644 12.6 0.600098 11.8836 0.600098 11V3.79998C0.600098 2.91632 1.31644 2.19998 2.2001 2.19998ZM4.2001 7.79998C4.86284 7.79998 5.4001 7.26272 5.4001 6.59998C5.4001 5.93723 4.86284 5.39998 4.2001 5.39998C3.53736 5.39998 3.0001 5.93723 3.0001 6.59998C3.0001 7.26272 3.53736 7.79998 4.2001 7.79998ZM6.16048 11C6.18672 10.8707 6.20049 10.737 6.20049 10.6C6.20049 9.49541 5.30506 8.59998 4.20049 8.59998C3.09592 8.59998 2.20049 9.49541 2.20049 10.6C2.20049 10.737 2.21426 10.8707 2.2405 11H6.16048ZM8.6001 6.19998C8.15827 6.19998 7.8001 6.55815 7.8001 6.99998C7.8001 7.4418 8.15827 7.79998 8.6001 7.79998H11.0001C11.4419 7.79998 11.8001 7.4418 11.8001 6.99998C11.8001 6.55815 11.4419 6.19998 11.0001 6.19998H8.6001ZM7.8001 9.39998C7.8001 8.95815 8.15827 8.59998 8.6001 8.59998H10.2001C10.6419 8.59998 11.0001 8.95815 11.0001 9.39998C11.0001 9.8418 10.6419 10.2 10.2001 10.2H8.6001C8.15827 10.2 7.8001 9.8418 7.8001 9.39998Z" fill="currentColor"/>
</svg>
