<svg width="20" height="20" viewBox="0 0 20 20" fill="none" xmlns="http://www.w3.org/2000/svg">
<path d="M12.5007 13.1843C12.9427 13.1843 13.3666 13.3599 13.6792 13.6725C13.9917 13.985 14.1673 14.409 14.1673 14.851C14.1673 15.293 13.9917 15.7169 13.6792 16.0295C13.3666 16.3421 12.9427 16.5177 12.5007 16.5177C12.0586 16.5177 11.6347 16.3421 11.3221 16.0295C11.0096 15.7169 10.834 15.293 10.834 14.851C10.834 14.409 11.0096 13.985 11.3221 13.6725C11.6347 13.3599 12.0586 13.1843 12.5007 13.1843ZM12.5007 8.18433C12.9427 8.18433 13.3666 8.35992 13.6792 8.67248C13.9917 8.98504 14.1673 9.40897 14.1673 9.85099C14.1673 10.293 13.9917 10.7169 13.6792 11.0295C13.3666 11.3421 12.9427 11.5177 12.5007 11.5177C12.0586 11.5177 11.6347 11.3421 11.3221 11.0295C11.0096 10.7169 10.834 10.293 10.834 9.85099C10.834 9.40897 11.0096 8.98504 11.3221 8.67248C11.6347 8.35992 12.0586 8.18433 12.5007 8.18433ZM12.5007 3.18433C12.9427 3.18433 13.3666 3.35992 13.6792 3.67248C13.9917 3.98504 14.1673 4.40897 14.1673 4.85099C14.1673 5.29302 13.9917 5.71694 13.6792 6.0295C13.3666 6.34206 12.9427 6.51766 12.5007 6.51766C12.0586 6.51766 11.6347 6.34206 11.3221 6.0295C11.0096 5.71694 10.834 5.29302 10.834 4.85099C10.834 4.40897 11.0096 3.98504 11.3221 3.67248C11.6347 3.35992 12.0586 3.18433 12.5007 3.18433Z" fill="currentColor"/>
<path d="M7.31803 13.1843C7.76006 13.1843 8.18398 13.3599 8.49654 13.6725C8.80911 13.985 8.9847 14.409 8.9847 14.851C8.9847 15.293 8.80911 15.7169 8.49654 16.0295C8.18398 16.3421 7.76006 16.5177 7.31803 16.5177C6.87601 16.5177 6.45208 16.3421 6.13952 16.0295C5.82696 15.7169 5.65137 15.293 5.65137 14.851C5.65137 14.409 5.82696 13.985 6.13952 13.6725C6.45208 13.3599 6.87601 13.1843 7.31803 13.1843ZM7.31803 8.18433C7.76006 8.18433 8.18398 8.35992 8.49654 8.67248C8.80911 8.98504 8.9847 9.40897 8.9847 9.85099C8.9847 10.293 8.80911 10.7169 8.49654 11.0295C8.18398 11.3421 7.76006 11.5177 7.31803 11.5177C6.87601 11.5177 6.45208 11.3421 6.13952 11.0295C5.82696 10.7169 5.65137 10.293 5.65137 9.85099C5.65137 9.40897 5.82696 8.98504 6.13952 8.67248C6.45208 8.35992 6.87601 8.18433 7.31803 8.18433ZM7.31803 3.18433C7.76006 3.18433 8.18398 3.35992 8.49654 3.67248C8.80911 3.98504 8.9847 4.40897 8.9847 4.85099C8.9847 5.29302 8.80911 5.71694 8.49654 6.0295C8.18398 6.34206 7.76006 6.51766 7.31803 6.51766C6.87601 6.51766 6.45208 6.34206 6.13952 6.0295C5.82696 5.71694 5.65137 5.29302 5.65137 4.85099C5.65137 4.40897 5.82696 3.98504 6.13952 3.67248C6.45208 3.35992 6.87601 3.18433 7.31803 3.18433Z" fill="currentColor"/>
</svg>
