<svg width="42" height="38" viewBox="0 0 42 38" fill="none" xmlns="http://www.w3.org/2000/svg">
<path fill-rule="evenodd" clip-rule="evenodd" d="M15.8024 3.00586C18.1124 -0.994141 23.8884 -0.994141 26.1964 3.00586L40.9064 28.5019C43.2144 32.5019 40.3264 37.5019 35.7084 37.5019H6.29036C1.67236 37.5019 -1.21364 32.5019 1.09436 28.5019L15.8004 3.00586H15.8024ZM21.0004 13.4999C21.3982 13.4999 21.7797 13.6579 22.061 13.9392C22.3423 14.2205 22.5004 14.602 22.5004 14.9999V22.4999C22.5004 22.8977 22.3423 23.2792 22.061 23.5605C21.7797 23.8418 21.3982 23.9999 21.0004 23.9999C20.6025 23.9999 20.221 23.8418 19.9397 23.5605C19.6584 23.2792 19.5004 22.8977 19.5004 22.4999V14.9999C19.5004 14.602 19.6584 14.2205 19.9397 13.9392C20.221 13.6579 20.6025 13.4999 21.0004 13.4999ZM21.0004 29.9999C21.3982 29.9999 21.7797 29.8418 22.061 29.5605C22.3423 29.2792 22.5004 28.8977 22.5004 28.4999C22.5004 28.102 22.3423 27.7205 22.061 27.4392C21.7797 27.1579 21.3982 26.9999 21.0004 26.9999C20.6025 26.9999 20.221 27.1579 19.9397 27.4392C19.6584 27.7205 19.5004 28.102 19.5004 28.4999C19.5004 28.8977 19.6584 29.2792 19.9397 29.5605C20.221 29.8418 20.6025 29.9999 21.0004 29.9999Z" fill="url(#paint0_linear_31115_12738)"/>
<defs>
<linearGradient id="paint0_linear_31115_12738" x1="-4.995" y1="-4.55447" x2="54.811" y2="27.5947" gradientUnits="userSpaceOnUse">
<stop stop-color="#F75A92"/>
<stop offset="1" stop-color="#FF9A9A"/>
</linearGradient>
</defs>
</svg>
